STARTFONT 2.1
COMMENT $Xorg: $
COMMENT ISO10646-1 extension by Markus Kuhn <mkuhn@acm.org>, 2001-03-20
COMMENT  (c) Copyright Bigelow & Holmes 1986, 1985. Lucida is a registered
COMMENT  trademark of Bigelow & Holmes. See LEGAL NOTICE file for terms 
COMMENT  of the license. 
FONT -B&H-Lucida-Bold-I-Normal-Sans-26-190-100-100-P-166-ISO10646-1
SIZE 19 100 100
FONTBOUNDINGBOX 53 39 -17 -11
STARTPROPERTIES 22
COMMENT Begin LogicalFontDescription
FONTNAME_REGISTRY ""
FOUNDRY "B&H"
FAMILY_NAME "Lucida"
WEIGHT_NAME "Bold"
SLANT "I"
SETWIDTH_NAME "Normal"
ADD_STYLE_NAME "Sans"
PIXEL_SIZE 26
POINT_SIZE 190
RESOLUTION_X 100
RESOLUTION_Y 100
SPACING "P"
AVERAGE_WIDTH 166
CHARSET_REGISTRY "ISO10646"
CHARSET_ENCODING "1"
COMMENT END LogicalFontDescription
COPYRIGHT "Copyright Bigelow & Holmes 1986, 1985."
FONT_ASCENT 24
FONT_DESCENT 6
DEFAULT_CHAR 0
FACE_NAME "Lucida Sans Bold Italic"
X_HEIGHT 14
CAP_HEIGHT 19
ENDPROPERTIES
CHARS 723
STARTCHAR char0
ENCODING 0
SWIDTH 813 0
DWIDTH 21 0
BBX 19 19 2 0
BITMAP
AAAAA0
000000
800020
000000
800020
000000
800020
000000
800020
000000
800020
000000
800020
000000
800020
000000
800020
000000
AAAAA0
ENDCHAR
STARTCHAR space
ENCODING 32
SWIDTH 343 0
DWIDTH 9 0
BBX 1 1 0 0
BITMAP
00
ENDCHAR
STARTCHAR exclam
ENCODING 33
SWIDTH 343 0
DWIDTH 9 0
BBX 9 19 2 0
BITMAP
0F80
0F80
1F80
1F00
1F00
1F00
1E00
1E00
1E00
3E00
3C00
3C00
3C00
0000
0000
0000
7C00
FC00
F800
ENDCHAR
STARTCHAR quotedbl
ENCODING 34
SWIDTH 530 0
DWIDTH 14 0
BBX 12 9 4 11
BITMAP
F9F0
F9F0
F9F0
F9F0
70E0
70E0
70E0
70E0
70E0
ENDCHAR
STARTCHAR numbersign
ENCODING 35
SWIDTH 687 0
DWIDTH 18 0
BBX 17 19 2 0
BITMAP
007380
006300
00C700
00C600
018E00
3FFF80
7FFF80
071800
063800
0E3000
0C7000
7FFF00
FFFE00
38C000
31C000
318000
618000
630000
E70000
ENDCHAR
STARTCHAR dollar
ENCODING 36
SWIDTH 687 0
DWIDTH 18 0
BBX 16 25 2 -3
BITMAP
0070
0070
0070
01FE
07FF
0FFF
0F62
1E60
1F60
1FE0
0FC0
07E0
03F0
01F8
01FC
03FC
033C
433C
637C
FFF8
FFF0
7FE0
0700
0700
0700
ENDCHAR
STARTCHAR percent
ENCODING 37
SWIDTH 908 0
DWIDTH 24 0
BBX 22 19 3 0
BITMAP
0F003C
3F8070
7FC0E0
7BC1E0
F3C3C0
F3C780
F3CF00
FF9E00
7F3C00
3E7800
00F1F0
01E3F8
03C7FC
078F3C
0F0F3C
1E0F3C
1C0FF8
380FF0
F003E0
ENDCHAR
STARTCHAR ampersand
ENCODING 38
SWIDTH 816 0
DWIDTH 21 0
BBX 20 19 2 0
BITMAP
007E00
01FF00
03FF80
07C780
07C780
07CF00
03FE00
03FC00
07E0F0
1FF0F0
3CF8E0
78F9E0
F87DC0
F83F80
F83F00
FC3E00
7FFF00
3FFF80
0FCFC0
ENDCHAR
STARTCHAR quotesingle
ENCODING 39
SWIDTH 265 0
DWIDTH 7 0
BBX 5 9 4 11
BITMAP
F8
F8
F8
F8
70
70
70
70
70
ENDCHAR
STARTCHAR parenleft
ENCODING 40
SWIDTH 386 0
DWIDTH 10 0
BBX 10 24 2 -4
BITMAP
0040
01C0
03C0
0780
0F00
1F00
1E00
3E00
7C00
7C00
7C00
F800
F800
F800
F800
F800
F800
F800
7800
7800
3C00
3C00
1C00
0400
ENDCHAR
STARTCHAR parenright
ENCODING 41
SWIDTH 386 0
DWIDTH 10 0
BBX 10 24 1 -4
BITMAP
0400
0600
0F00
0F80
0780
07C0
03C0
03C0
03C0
03C0
07C0
07C0
07C0
07C0
0F80
0F80
0F00
1F00
1E00
3C00
7800
F000
E000
8000
ENDCHAR
STARTCHAR asterisk
ENCODING 42
SWIDTH 464 0
DWIDTH 12 0
BBX 10 10 4 9
BITMAP
0F00
0E00
6EC0
77C0
F3C0
0000
3E00
F700
7600
2400
ENDCHAR
STARTCHAR plus
ENCODING 43
SWIDTH 687 0
DWIDTH 18 0
BBX 16 16 2 0
BITMAP
00E0
00E0
00C0
01C0
01C0
01C0
FFFF
FFFF
FFFF
0380
0380
0380
0380
0700
0700
0700
ENDCHAR
STARTCHAR comma
ENCODING 44
SWIDTH 343 0
DWIDTH 9 0
BBX 7 9 1 -4
BITMAP
3E
7E
7E
7C
7C
1C
38
F8
E0
ENDCHAR
STARTCHAR hyphen
ENCODING 45
SWIDTH 289 0
DWIDTH 8 0
BBX 6 3 2 7
BITMAP
FC
FC
FC
ENDCHAR
STARTCHAR period
ENCODING 46
SWIDTH 343 0
DWIDTH 9 0
BBX 6 5 2 0
BITMAP
7C
7C
FC
F8
F8
ENDCHAR
STARTCHAR slash
ENCODING 47
SWIDTH 596 0
DWIDTH 15 0
BBX 20 24 0 -4
BITMAP
0000F0
0001E0
0001C0
000380
000780
000700
000E00
001E00
001C00
003800
007800
007000
00E000
01E000
01C000
038000
078000
070000
0E0000
1E0000
1C0000
380000
780000
F00000
ENDCHAR
STARTCHAR zero
ENCODING 48
SWIDTH 687 0
DWIDTH 18 0
BBX 17 19 2 0
BITMAP
01F800
07FE00
0FFE00
1F1F00
3E0F00
3E0F80
7C0F80
7C1F80
7C1F80
FC1F00
F81F00
F83F00
F83E00
F83E00
F87C00
7CF800
7FF800
3FE000
0F8000
ENDCHAR
STARTCHAR one
ENCODING 49
SWIDTH 687 0
DWIDTH 18 0
BBX 9 19 6 0
BITMAP
7F80
7F80
7F00
1F00
1F00
1F00
1F00
3E00
3E00
3E00
3E00
3E00
7C00
7C00
7C00
7C00
7C00
F800
F800
ENDCHAR
STARTCHAR two
ENCODING 50
SWIDTH 687 0
DWIDTH 18 0
BBX 17 19 2 0
BITMAP
03FC00
0FFF00
0FFF00
181F80
000F80
000F80
001F80
001F00
007E00
00FC00
01F000
07E000
0F8000
1F0000
3E0000
7C0000
7FFE00
FFFC00
FFFC00
ENDCHAR
STARTCHAR three
ENCODING 51
SWIDTH 687 0
DWIDTH 18 0
BBX 16 19 3 0
BITMAP
07F8
0FFE
0FFF
183F
001F
001E
003E
0078
1FE0
1FF0
1FFC
00FC
007E
003E
007E
40FC
FFF8
FFF0
7FC0
ENDCHAR
STARTCHAR four
ENCODING 52
SWIDTH 687 0
DWIDTH 18 0
BBX 16 19 2 0
BITMAP
001F
003F
007E
00FE
01FE
03FE
07BE
0F3C
1E3C
3C3C
7C7C
7FFF
FFFF
FFFE
0078
00F8
00F8
00F0
00F0
ENDCHAR
STARTCHAR five
ENCODING 53
SWIDTH 687 0
DWIDTH 18 0
BBX 16 19 3 0
BITMAP
0FFF
0FFF
1FFE
1C00
1C00
1800
1F80
3FE0
3FF0
03F8
00FC
00FC
007C
007C
00FC
41F8
FFF0
FFE0
FF80
ENDCHAR
STARTCHAR six
ENCODING 54
SWIDTH 687 0
DWIDTH 18 0
BBX 17 19 3 0
BITMAP
00FF00
03FF80
0FFF80
1F8100
1F0000
3E0000
7E0000
7DF800
7FFC00
FFFE00
FC3F00
F81F00
F81F00
F81E00
F83E00
7C7C00
7FFC00
3FF000
0FC000
ENDCHAR
STARTCHAR seven
ENCODING 55
SWIDTH 687 0
DWIDTH 18 0
BBX 15 19 5 0
BITMAP
7FFE
7FFE
FFFE
003C
007C
00F8
01F0
01E0
03C0
0780
0F00
1F00
1E00
3E00
7C00
7C00
7800
F800
F800
ENDCHAR
STARTCHAR eight
ENCODING 56
SWIDTH 687 0
DWIDTH 18 0
BBX 16 19 3 0
BITMAP
01FC
07FE
0FFF
1F1F
1E0F
1E0F
1F1E
0FFC
07F0
0FF8
3FFC
7C7E
783E
F81E
F83E
FC3C
FFFC
7FF0
1FC0
ENDCHAR
STARTCHAR nine
ENCODING 57
SWIDTH 687 0
DWIDTH 18 0
BBX 17 19 2 0
BITMAP
01F800
07FE00
1FFF00
1F1F00
3E0F80
3C0F80
7C0F80
7C0F80
7E1F80
3FFF80
1FFF00
0FDF00
003F00
003E00
007C00
40FC00
FFF800
FFE000
7F8000
ENDCHAR
STARTCHAR colon
ENCODING 58
SWIDTH 343 0
DWIDTH 9 0
BBX 8 14 2 0
BITMAP
1F
1F
3E
3E
3E
00
00
00
00
7C
7C
FC
F8
F8
ENDCHAR
STARTCHAR semicolon
ENCODING 59
SWIDTH 343 0
DWIDTH 9 0
BBX 9 18 1 -4
BITMAP
0F80
1F80
1F00
1F00
1F00
0000
0000
0000
0000
3E00
3E00
7E00
7C00
7C00
1C00
3800
F800
E000
ENDCHAR
STARTCHAR less
ENCODING 60
SWIDTH 687 0
DWIDTH 18 0
BBX 17 16 3 0
BITMAP
000080
000380
000F80
003F00
00FC00
03F000
1FC000
FF0000
7E0000
1F0000
0FC000
03F000
00FC00
003E00
001C00
000400
ENDCHAR
STARTCHAR equal
ENCODING 61
SWIDTH 687 0
DWIDTH 18 0
BBX 17 9 2 3
BITMAP
3FFF80
7FFF80
7FFF00
000000
000000
000000
7FFF00
FFFF00
FFFE00
ENDCHAR
STARTCHAR greater
ENCODING 62
SWIDTH 687 0
DWIDTH 18 0
BBX 17 16 1 0
BITMAP
100000
1C0000
3E0000
1F8000
07E000
01F800
007C00
003F00
007F80
01FC00
07E000
1F8000
7E0000
F80000
E00000
800000
ENDCHAR
STARTCHAR question
ENCODING 63
SWIDTH 539 0
DWIDTH 14 0
BBX 13 19 3 0
BITMAP
3FC0
7FF0
FFF8
C1F8
00F8
00F8
01F0
03E0
07C0
0F80
1F00
3E00
7E00
0000
0000
0000
7C00
FC00
F800
ENDCHAR
STARTCHAR at
ENCODING 64
SWIDTH 833 0
DWIDTH 22 0
BBX 19 19 3 0
BITMAP
00FC00
03FF00
0F03C0
1C00C0
3800E0
30FC60
61FC60
630C60
C61C60
C61860
CC3860
CEF8C0
CFD9C0
CF9F80
671E00
700000
383000
1FF000
07E000
ENDCHAR
STARTCHAR A
ENCODING 65
SWIDTH 771 0
DWIDTH 20 0
BBX 19 19 0 0
BITMAP
003E00
007F00
007F00
00FF00
00FF00
01EF00
01CF80
03CF80
038F80
078F80
070780
0FFFC0
1FFFC0
1FFFC0
3C07C0
3803C0
7803E0
7003E0
F003E0
ENDCHAR
STARTCHAR B
ENCODING 66
SWIDTH 660 0
DWIDTH 17 0
BBX 16 19 2 0
BITMAP
0FFC
1FFE
1FFF
1F1F
1E1F
1E1F
3E3E
3E7C
3FF0
3FF0
3FFC
7C7E
7C3E
7C3E
783E
787E
FFFC
FFF8
FFE0
ENDCHAR
STARTCHAR C
ENCODING 67
SWIDTH 737 0
DWIDTH 19 0
BBX 19 19 2 0
BITMAP
007FC0
01FFE0
07FFE0
0FC040
1F8000
3F0000
3E0000
7C0000
7C0000
F80000
F80000
F80000
F80000
FC0000
FC0000
7F0300
7FFF00
3FFF00
07F800
ENDCHAR
STARTCHAR D
ENCODING 68
SWIDTH 822 0
DWIDTH 21 0
BBX 20 19 2 0
BITMAP
0FFF00
1FFFC0
1FFFE0
1F07F0
1F03F0
1E01F0
3E01F0
3E01F0
3E01F0
3E03F0
3E03E0
7C03E0
7C07E0
7C0FC0
7C1FC0
7C3F80
FFFF00
FFFC00
FFF000
ENDCHAR
STARTCHAR E
ENCODING 69
SWIDTH 642 0
DWIDTH 17 0
BBX 17 19 2 0
BITMAP
0FFF80
0FFF80
1FFF00
1F0000
1F0000
1F0000
1F0000
3F0000
3FFC00
3FFC00
3FF800
3E0000
7E0000
7C0000
7C0000
7C0000
7FFC00
FFFC00
FFFC00
ENDCHAR
STARTCHAR F
ENCODING 70
SWIDTH 614 0
DWIDTH 16 0
BBX 17 19 2 0
BITMAP
0FFF80
0FFF80
1FFF00
1F0000
1F0000
1F0000
1F0000
3E0000
3FFC00
3FF800
3FF800
3E0000
7C0000
7C0000
7C0000
7C0000
7C0000
F80000
F80000
ENDCHAR
STARTCHAR G
ENCODING 71
SWIDTH 755 0
DWIDTH 20 0
BBX 19 19 2 0
BITMAP
007FC0
01FFE0
07FFE0
0FC040
1F8000
3F0000
3E0000
7C0000
7C0000
F80000
F80F80
F80F80
F80F80
FC0F00
FC0F00
7F1F00
7FFF00
3FFF00
07FC00
ENDCHAR
STARTCHAR H
ENCODING 72
SWIDTH 813 0
DWIDTH 21 0
BBX 20 19 2 0
BITMAP
0F81F0
1F01F0
1F01F0
1F03E0
1F03E0
1F03E0
3E03E0
3E03E0
3FFFC0
3FFFC0
3FFFC0
7C07C0
7C07C0
7C0780
7C0F80
7C0F80
F80F80
F80F80
F81F00
ENDCHAR
STARTCHAR I
ENCODING 73
SWIDTH 361 0
DWIDTH 9 0
BBX 9 19 2 0
BITMAP
0F80
0F80
1F00
1F00
1F00
1F00
1F00
3E00
3E00
3E00
3E00
3E00
7C00
7C00
7C00
7C00
7C00
F800
F800
ENDCHAR
STARTCHAR J
ENCODING 74
SWIDTH 502 0
DWIDTH 13 0
BBX 15 23 0 -4
BITMAP
003E
003E
007C
007C
007C
007C
007C
00F8
00F8
00F8
00F8
00F8
01F0
01F0
01F0
01F0
01F0
03F0
03E0
47E0
FFC0
FF80
FE00
ENDCHAR
STARTCHAR K
ENCODING 75
SWIDTH 753 0
DWIDTH 20 0
BBX 18 19 2 0
BITMAP
0F83C0
1F8780
1F0F00
1F1E00
1F1C00
1F3C00
3F7800
3EF000
3EE000
3FF000
3FF800
7EF800
7CFC00
7C7C00
7C7E00
7C3E00
FC3F00
F81F80
F81F80
ENDCHAR
STARTCHAR L
ENCODING 76
SWIDTH 623 0
DWIDTH 16 0
BBX 14 19 2 0
BITMAP
0F80
1F00
1F00
1F00
1F00
1F00
3E00
3E00
3E00
3E00
3E00
7C00
7C00
7C00
7C00
7C00
FFFC
FFFC
FFFC
ENDCHAR
STARTCHAR M
ENCODING 77
SWIDTH 940 0
DWIDTH 24 0
BBX 24 19 2 0
BITMAP
0FC03F
1FC07F
1FE07E
1FE0FE
1FE0FE
1DE1FE
3DE1FE
3DE3BC
3DE7BC
3DE73C
39EF7C
79FE7C
79FE78
79FC78
78F878
70F8F8
F0F0F8
F0F0F0
F000F0
ENDCHAR
STARTCHAR N
ENCODING 78
SWIDTH 789 0
DWIDTH 20 0
BBX 20 19 2 0
BITMAP
0F00F0
1F80F0
1F80F0
1FC1E0
1FC1E0
1FE1E0
3FE1E0
3FF1E0
3DF3C0
3DFBC0
3CFBC0
78FFC0
787FC0
787F80
783F80
783F80
F01F80
F01F80
F00F00
ENDCHAR
STARTCHAR O
ENCODING 79
SWIDTH 855 0
DWIDTH 22 0
BBX 21 19 3 0
BITMAP
007F00
01FFC0
07FFE0
0FC3F0
1F01F8
3E01F8
3E01F8
7C01F8
7C01F8
FC01F8
F801F0
F801F0
F803E0
FC07E0
FC07C0
7E1F80
3FFF00
1FFC00
07F000
ENDCHAR
STARTCHAR P
ENCODING 80
SWIDTH 645 0
DWIDTH 17 0
BBX 17 19 2 0
BITMAP
0FFE00
1FFF00
1FFF80
1F1F80
1F0F80
1E0F80
3E0F00
3E1F00
3E3E00
3FFE00
3FF800
7FE000
7C0000
7C0000
7C0000
7C0000
F80000
F80000
F80000
ENDCHAR
STARTCHAR Q
ENCODING 81
SWIDTH 855 0
DWIDTH 22 0
BBX 21 23 3 -4
BITMAP
007F00
01FFC0
07FFE0
0FC3F0
1F01F8
3E01F8
3E01F8
7C01F8
7C01F8
FC01F8
F801F0
F801F0
F803E0
FC07E0
FC07C0
7E1F80
3FFF00
1FFC00
07FE00
003FE0
000FF8
0003F0
0000E0
ENDCHAR
STARTCHAR R
ENCODING 82
SWIDTH 708 0
DWIDTH 18 0
BBX 17 19 2 0
BITMAP
0FFE00
1FFF00
1FFF80
1F0F80
1F0F80
1E0F80
3E1F00
3E3F00
3EFE00
3FF800
3FF000
7CF800
7CF800
7C7800
7C7C00
787C00
F83E00
F83E00
F83F00
ENDCHAR
STARTCHAR S
ENCODING 83
SWIDTH 639 0
DWIDTH 17 0
BBX 16 19 2 0
BITMAP
01FE
07FF
0FFF
1F02
1F00
1F00
1F80
1FC0
1FF0
07F8
03FC
00FC
007E
007E
007C
607C
FFF8
FFF0
FF80
ENDCHAR
STARTCHAR T
ENCODING 84
SWIDTH 747 0
DWIDTH 19 0
BBX 19 19 4 0
BITMAP
FFFFE0
FFFFE0
FFFFE0
01F000
03E000
03E000
03E000
03E000
03E000
03C000
07C000
07C000
07C000
07C000
078000
0F8000
0F8000
0F8000
0F8000
ENDCHAR
STARTCHAR U
ENCODING 85
SWIDTH 759 0
DWIDTH 20 0
BBX 18 19 3 0
BITMAP
3E03C0
3E07C0
3E07C0
3E0780
3C0780
7C0780
7C0F80
7C0F80
7C0F00
7C0F00
F80F00
F80F00
F81F00
F81E00
F81E00
FC3C00
7FFC00
3FF000
0FE000
ENDCHAR
STARTCHAR V
ENCODING 86
SWIDTH 765 0
DWIDTH 20 0
BBX 18 19 4 0
BITMAP
F803C0
F80380
F80780
7C0700
7C0F00
7C0E00
7C1E00
7C1C00
7C3800
3E3800
3E7000
3E7000
3EE000
3FE000
3FC000
1FC000
1F8000
1F8000
1F0000
ENDCHAR
STARTCHAR W
ENCODING 87
SWIDTH 991 0
DWIDTH 26 0
BBX 24 19 4 0
BITMAP
F83C0F
F83C0E
F87C1E
F87C1C
F87C3C
F8FC38
F8FE78
F9FE70
F9FE70
FBFEF0
FBBEE0
7BBFE0
7F3FC0
7F3FC0
7E3F80
7E3F80
7E3F00
7C3F00
7C3E00
ENDCHAR
STARTCHAR X
ENCODING 88
SWIDTH 696 0
DWIDTH 18 0
BBX 21 19 0 0
BITMAP
0FC078
07C0F0
07E1E0
03E3C0
03E780
03FF00
01FE00
01FC00
00FC00
00F800
01FC00
03FC00
03FE00
07BE00
0F3E00
1E3F00
3C1F00
781F80
F80F80
ENDCHAR
STARTCHAR Y
ENCODING 89
SWIDTH 681 0
DWIDTH 18 0
BBX 17 19 4 0
BITMAP
F80780
7C0F00
7C1E00
7C3C00
3E3800
3E7800
3EF000
1FE000
1FC000
1FC000
0F8000
0F8000
1F8000
1F0000
1F0000
1F0000
1F0000
3F0000
3E0000
ENDCHAR
STARTCHAR Z
ENCODING 90
SWIDTH 687 0
DWIDTH 18 0
BBX 18 19 2 0
BITMAP
0FFFC0
0FFFC0
0FFFC0
001F80
003F00
007E00
00FE00
00FC00
01F800
03F000
07E000
0FC000
1FC000
1F8000
3F0000
7E0000
7FFE00
FFFE00
FFFE00
ENDCHAR
STARTCHAR bracketleft
ENCODING 91
SWIDTH 386 0
DWIDTH 10 0
BBX 11 24 1 -4
BITMAP
07E0
0FE0
0FC0
0F00
0F00
0F00
1E00
1E00
1E00
1E00
1E00
3C00
3C00
3C00
3C00
3C00
7C00
7800
7800
7800
7800
FE00
FE00
FC00
ENDCHAR
STARTCHAR backslash
ENCODING 92
SWIDTH 566 0
DWIDTH 15 0
BBX 10 24 4 -4
BITMAP
F000
7000
7000
7000
7800
3800
3800
3800
1C00
1C00
1C00
1C00
0E00
0E00
0E00
0E00
0700
0700
0700
0780
0380
0380
0380
03C0
ENDCHAR
STARTCHAR bracketright
ENCODING 93
SWIDTH 386 0
DWIDTH 10 0
BBX 11 24 1 -4
BITMAP
0FE0
0FE0
0FE0
03C0
03C0
03C0
03C0
07C0
0780
0780
0780
0780
0780
0F00
0F00
0F00
0F00
0F00
1E00
1E00
1E00
FE00
FE00
FC00
ENDCHAR
STARTCHAR asciicircum
ENCODING 94
SWIDTH 687 0
DWIDTH 18 0
BBX 15 16 2 3
BITMAP
0020
0020
0060
00E0
00F0
01F0
03F0
03B8
0738
0F38
0E38
1C1C
3C1C
381C
700E
F00E
ENDCHAR
STARTCHAR underscore
ENCODING 95
SWIDTH 500 0
DWIDTH 13 0
BBX 12 3 0 -3
BITMAP
FFF0
FFF0
FFE0
ENDCHAR
STARTCHAR grave
ENCODING 96
SWIDTH 663 0
DWIDTH 17 0
BBX 6 3 9 17
BITMAP
F0
38
1C
ENDCHAR
STARTCHAR a
ENCODING 97
SWIDTH 681 0
DWIDTH 18 0
BBX 16 14 2 0
BITMAP
01FF
07FF
0FFF
1F1E
3E3E
7C3E
7C7E
787E
F8BC
F9BC
FF7C
FE7C
FC7C
78F8
ENDCHAR
STARTCHAR b
ENCODING 98
SWIDTH 681 0
DWIDTH 18 0
BBX 16 20 2 0
BITMAP
0F80
0F00
1F00
1F00
1F00
1F00
1E1E
3E3E
3E7F
3EFF
3D9F
3D1F
7E1E
7E3E
7C3E
7C7C
78F8
FFF0
FFE0
FF80
ENDCHAR
STARTCHAR c
ENCODING 99
SWIDTH 548 0
DWIDTH 14 0
BBX 14 14 2 0
BITMAP
01F8
07FC
0FF8
3F08
3E00
7C00
7C00
F800
F800
F800
FC30
FFF0
7FE0
1F80
ENDCHAR
STARTCHAR d
ENCODING 100
SWIDTH 681 0
DWIDTH 18 0
BBX 18 20 2 0
BITMAP
0007C0
0007C0
000F80
000F80
000F80
000F80
01FF80
07FF00
0FFF00
1F1F00
3E1F00
3C1F00
7C3E00
787E00
F8FE00
F9BE00
FFBE00
FF7C00
7E7C00
387C00
ENDCHAR
STARTCHAR e
ENCODING 101
SWIDTH 612 0
DWIDTH 16 0
BBX 14 14 2 0
BITMAP
01F0
07F8
1FFC
3E7C
3C7C
7CF8
7FF0
FFE0
FF80
F804
FC1C
FFFC
7FF8
1FC0
ENDCHAR
STARTCHAR f
ENCODING 102
SWIDTH 464 0
DWIDTH 12 0
BBX 15 25 1 -5
BITMAP
00FC
01FE
03FE
07C6
0F80
0F80
3FF0
3FF0
7FF0
1F00
1F00
1F00
3E00
3E00
3E00
3E00
3E00
7C00
7C00
7C00
7C00
7C00
F800
F800
F800
ENDCHAR
STARTCHAR g
ENCODING 103
SWIDTH 674 0
DWIDTH 17 0
BBX 17 19 1 -5
BITMAP
00FF80
03FF80
07FF80
0F1F00
1E1F00
3E1F00
3C3F00
7C7F00
7CDE00
7DDE00
7FBE00
7F3E00
7E3E00
3C7C00
807C00
E0FC00
FFF800
7FF000
7F8000
ENDCHAR
STARTCHAR h
ENCODING 104
SWIDTH 675 0
DWIDTH 18 0
BBX 16 20 2 0
BITMAP
0F80
0F80
1F80
1F00
1F00
1F00
1F1E
3E3F
3E7F
3EFF
3EDF
3D9F
7F3E
7E3E
7C3E
7C3E
7C3E
FC7C
F87C
F87C
ENDCHAR
STARTCHAR i
ENCODING 105
SWIDTH 343 0
DWIDTH 9 0
BBX 9 20 2 0
BITMAP
0F80
0F80
1F00
1F00
0000
0000
1F00
3E00
3E00
3E00
3E00
3E00
7C00
7C00
7C00
7C00
7C00
F800
F800
F800
ENDCHAR
STARTCHAR j
ENCODING 106
SWIDTH 407 0
DWIDTH 11 0
BBX 15 25 -1 -5
BITMAP
003E
003E
003C
007C
0000
0000
007C
007C
00F8
00F8
00F8
00F8
01F8
01F0
01F0
01F0
01F0
03F0
03E0
03E0
03E0
C7C0
FF80
FF00
7C00
ENDCHAR
STARTCHAR k
ENCODING 107
SWIDTH 666 0
DWIDTH 17 0
BBX 17 20 2 0
BITMAP
0F8000
0F8000
0F8000
1F0000
1F0000
1F0000
1F0780
1F0F00
3E1E00
3E3C00
3E7800
3EF000
3FF000
7DF000
7CF800
7CF800
7CFC00
7C7C00
F87E00
F83E00
ENDCHAR
STARTCHAR l
ENCODING 108
SWIDTH 343 0
DWIDTH 9 0
BBX 9 20 2 0
BITMAP
0F80
0F80
1F80
1F00
1F00
1F00
1F00
3F00
3E00
3E00
3E00
3E00
7E00
7C00
7C00
7C00
7C00
FC00
F800
F800
ENDCHAR
STARTCHAR m
ENCODING 109
SWIDTH 991 0
DWIDTH 26 0
BBX 24 14 2 0
BITMAP
1E1C1E
3E7E3F
3EFE7F
3FFEFF
3DBFDF
3FBF9F
7F3F1E
7E3F3E
7E3E3E
7C7C3E
787C3E
F87C3C
F87C7C
F8787C
ENDCHAR
STARTCHAR n
ENCODING 110
SWIDTH 675 0
DWIDTH 18 0
BBX 16 14 2 0
BITMAP
1F1E
1E3F
3E7F
3EFF
3EDF
3D9F
3F3E
7E3E
7C3E
7C3E
7C3E
787C
F87C
F87C
ENDCHAR
STARTCHAR o
ENCODING 111
SWIDTH 663 0
DWIDTH 17 0
BBX 16 14 2 0
BITMAP
01F8
07FE
1FFF
3E3F
3C1F
7C1F
781F
F81E
F83E
F83C
FC7C
FFF8
7FE0
1F80
ENDCHAR
STARTCHAR p
ENCODING 112
SWIDTH 681 0
DWIDTH 18 0
BBX 17 19 1 -5
BITMAP
0F8F00
1F1F80
1F3F80
1F7F80
1ECF80
1E8F80
3F0F00
3F1F00
3E1F00
3E3E00
3C7C00
7FF800
7FF000
7FC000
7C0000
7C0000
F80000
F80000
F80000
ENDCHAR
STARTCHAR q
ENCODING 113
SWIDTH 681 0
DWIDTH 18 0
BBX 16 19 2 -5
BITMAP
01FF
07FF
0FFF
1F1E
3E3E
7C3E
7C7E
787E
F8BC
F9FC
FF7C
FE7C
FC7C
78F8
00F8
00F8
00F8
00F8
01F0
ENDCHAR
STARTCHAR r
ENCODING 114
SWIDTH 542 0
DWIDTH 14 0
BBX 14 14 2 0
BITMAP
1F1C
3E3C
3E78
3EF8
3FC0
3D80
7F00
7E00
7C00
7C00
7C00
F800
F800
F800
ENDCHAR
STARTCHAR s
ENCODING 115
SWIDTH 527 0
DWIDTH 14 0
BBX 13 14 1 0
BITMAP
03F8
0FF8
1FF0
1F00
1E00
1F00
0FC0
07E0
03E0
01F0
43F0
FFE0
FFC0
7F80
ENDCHAR
STARTCHAR t
ENCODING 116
SWIDTH 437 0
DWIDTH 11 0
BBX 10 18 3 0
BITMAP
0700
1F00
1F00
3F00
FFC0
FFC0
FFC0
3E00
7E00
7C00
7C00
7C00
7C00
F800
FC00
FF00
FF00
3F00
ENDCHAR
STARTCHAR u
ENCODING 117
SWIDTH 675 0
DWIDTH 18 0
BBX 16 14 2 0
BITMAP
3E1F
3E1F
3E3E
7C3E
7C3E
7C3E
7C7E
7CFC
F9BC
FB7C
FF7C
FE7C
FC78
78F8
ENDCHAR
STARTCHAR v
ENCODING 118
SWIDTH 630 0
DWIDTH 16 0
BBX 16 14 3 0
BITMAP
F80F
F80E
FC1C
7C3C
7C38
7C78
7C70
7CE0
3FE0
3FC0
3FC0
3F80
3F80
3F00
ENDCHAR
STARTCHAR w
ENCODING 119
SWIDTH 878 0
DWIDTH 23 0
BBX 22 14 3 0
BITMAP
F07C3C
F07C38
F0FC78
F8FC70
F9FCF0
F9FCE0
FBBDE0
FBBDC0
FF3FC0
FF3F80
FE3F80
FE3F00
7C3F00
7C3E00
ENDCHAR
STARTCHAR x
ENCODING 120
SWIDTH 563 0
DWIDTH 15 0
BBX 16 14 0 0
BITMAP
1F0F
0F1E
0FBC
0FF8
07F0
07F0
03E0
07E0
07E0
0FF0
1FF0
3DF0
78F8
F0F8
ENDCHAR
STARTCHAR y
ENCODING 121
SWIDTH 633 0
DWIDTH 16 0
BBX 18 19 1 -5
BITMAP
3E03C0
3E0780
1F0700
1F0F00
1F1E00
1F1C00
1F3C00
1FF800
0FF000
0FF000
0FE000
0FC000
0FC000
078000
0F0000
1F0000
3E0000
7C0000
FC0000
ENDCHAR
STARTCHAR z
ENCODING 122
SWIDTH 630 0
DWIDTH 16 0
BBX 16 14 1 0
BITMAP
1FFF
1FFF
1FFE
007E
00FC
01F0
03E0
07C0
0F80
3F00
7E00
7FFC
FFFC
FFFC
ENDCHAR
STARTCHAR braceleft
ENCODING 123
SWIDTH 386 0
DWIDTH 10 0
BBX 10 24 2 -4
BITMAP
03C0
0FC0
0FC0
1F00
1F00
1F00
1F00
1F00
1F00
1E00
7E00
7800
F800
FC00
3C00
3C00
3C00
7C00
7C00
F800
F800
FC00
7C00
3800
ENDCHAR
STARTCHAR bar
ENCODING 124
SWIDTH 259 0
DWIDTH 7 0
BBX 8 24 1 -4
BITMAP
07
07
06
0E
0E
0E
0E
0C
1C
1C
1C
1C
38
38
38
38
30
70
70
70
70
60
E0
E0
ENDCHAR
STARTCHAR braceright
ENCODING 125
SWIDTH 386 0
DWIDTH 10 0
BBX 10 24 1 -4
BITMAP
0F00
0F80
0FC0
07C0
07C0
0F80
0F80
0F80
0F00
0F00
0FC0
07C0
0780
1F80
1E00
3E00
3E00
3E00
3E00
3E00
3E00
FC00
FC00
F000
ENDCHAR
STARTCHAR asciitilde
ENCODING 126
SWIDTH 687 0
DWIDTH 18 0
BBX 16 7 2 4
BITMAP
1E00
3F07
7F87
63C6
E1FE
E0FC
0078
ENDCHAR
STARTCHAR space
ENCODING 160
SWIDTH 343 0
DWIDTH 9 0
BBX 1 1 0 0
BITMAP
00
ENDCHAR
STARTCHAR exclamdown
ENCODING 161
SWIDTH 343 0
DWIDTH 9 0
BBX 9 19 1 -5
BITMAP
0F80
1F80
1F00
0000
0000
0000
1E00
1E00
1E00
3E00
3C00
3C00
3C00
7C00
7C00
7C00
7C00
F800
F800
ENDCHAR
STARTCHAR cent
ENCODING 162
SWIDTH 687 0
DWIDTH 18 0
BBX 15 19 4 0
BITMAP
0070
0070
00F0
07FE
0FFC
1F0C
3E00
7C00
7C00
F800
F800
F800
FC18
FFF8
7FF8
3FF0
0380
0380
0700
ENDCHAR
STARTCHAR sterling
ENCODING 163
SWIDTH 687 0
DWIDTH 18 0
BBX 16 19 3 0
BITMAP
007E
01FF
03FF
03E2
07C0
07C0
07C0
07C0
1FF0
3FE0
3FE0
0F80
0F80
1F00
1E00
3C00
7FF8
FFF8
FFF8
ENDCHAR
STARTCHAR currency
ENCODING 164
SWIDTH 687 0
DWIDTH 18 0
BBX 20 19 1 0
BITMAP
040020
1C0060
1C00F0
0E01E0
0F7BC0
07FF80
03FF00
079E00
078F00
0F0F00
0F0E00
071E00
079E00
0FFE00
1FFE00
7DE700
F80780
600380
400200
ENDCHAR
STARTCHAR yen
ENCODING 165
SWIDTH 687 0
DWIDTH 18 0
BBX 17 19 4 0
BITMAP
F80780
7C0F00
7C1E00
3E3C00
3E7800
1FF000
1FE000
1FC000
0FC000
7FF000
7FF000
0F8000
FFE000
FFE000
1F0000
1F0000
1F0000
3E0000
3E0000
ENDCHAR
STARTCHAR brokenbar
ENCODING 166
SWIDTH 259 0
DWIDTH 7 0
BBX 8 24 1 -4
BITMAP
07
07
06
0E
0E
0E
0E
0C
1C
00
00
00
00
00
00
38
30
70
70
70
70
60
E0
E0
ENDCHAR
STARTCHAR section
ENCODING 167
SWIDTH 687 0
DWIDTH 18 0
BBX 16 23 2 -4
BITMAP
01FE
07FF
0FFF
1F82
1F00
1F80
0FE0
0FF8
0FFC
1CFE
3C3E
3C1E
3E1C
3FFC
1FF8
0FF8
03F8
00FC
007C
40F8
FFF8
FFF0
7F80
ENDCHAR
STARTCHAR dieresis
ENCODING 168
SWIDTH 663 0
DWIDTH 17 0
BBX 9 3 8 16
BITMAP
7380
E380
E700
ENDCHAR
STARTCHAR copyright
ENCODING 169
SWIDTH 834 0
DWIDTH 22 0
BBX 20 19 3 0
BITMAP
01F800
07FE00
1E0F00
380380
30FCC0
63FEE0
678260
C70060
CE0030
CE0030
CE0030
CE0060
6F0C60
67F8E0
31F8C0
380380
1E0F00
07FE00
01F800
ENDCHAR
STARTCHAR ordfeminine
ENCODING 170
SWIDTH 539 0
DWIDTH 14 0
BBX 12 10 4 9
BITMAP
07F0
1FF0
3DF0
79E0
73E0
F3E0
F7E0
FDE0
FBC0
73C0
ENDCHAR
STARTCHAR guillemotleft
ENCODING 171
SWIDTH 633 0
DWIDTH 16 0
BBX 15 12 3 1
BITMAP
0204
070C
0FBE
1E7C
3CF8
7BF0
F9E0
79F0
3CF0
1C78
1E38
0820
ENDCHAR
STARTCHAR logicalnot
ENCODING 172
SWIDTH 687 0
DWIDTH 18 0
BBX 16 9 3 3
BITMAP
7FFF
FFFF
FFFE
000E
000E
000E
000E
000C
001C
ENDCHAR
STARTCHAR hyphen
ENCODING 173
SWIDTH 289 0
DWIDTH 8 0
BBX 6 3 2 7
BITMAP
FC
FC
FC
ENDCHAR
STARTCHAR registered
ENCODING 174
SWIDTH 691 0
DWIDTH 18 0
BBX 13 14 5 5
BITMAP
0F80
1FE0
3870
67F8
E7F8
C6D8
CEC8
CF88
CD98
ED98
6DF8
3870
1FE0
0F80
ENDCHAR
STARTCHAR macron
ENCODING 175
SWIDTH 663 0
DWIDTH 17 0
BBX 9 3 8 16
BITMAP
FF80
FF80
FF80
ENDCHAR
STARTCHAR degree
ENCODING 176
SWIDTH 241 0
DWIDTH 6 0
BBX 4 5 4 14
BITMAP
70
90
90
90
70
ENDCHAR
STARTCHAR plusminus
ENCODING 177
SWIDTH 687 0
DWIDTH 18 0
BBX 17 16 2 0
BITMAP
007000
007000
00E000
00E000
3FFF80
3FFF80
3FFF80
01C000
01C000
01C000
01C000
01C000
000000
7FFE00
FFFE00
FFFE00
ENDCHAR
STARTCHAR twosuperior
ENCODING 178
SWIDTH 539 0
DWIDTH 11 0
BBX 10 11 -15 8
BITMAP
1F80
3FC0
21C0
01C0
0380
0F00
1E00
3800
7000
FF80
FF00
ENDCHAR
STARTCHAR threesuperior
ENCODING 179
SWIDTH 539 0
DWIDTH 11 0
BBX 9 11 -15 8
BITMAP
3F00
3F80
0380
0700
3E00
3E00
0700
0700
8700
FF00
FC00
ENDCHAR
STARTCHAR acute
ENCODING 180
SWIDTH 663 0
DWIDTH 17 0
BBX 8 3 9 17
BITMAP
1F
38
F0
ENDCHAR
STARTCHAR mu
ENCODING 181
SWIDTH 681 0
DWIDTH 18 0
BBX 17 18 1 -4
BITMAP
1F0F80
1F0F80
1F0F80
1F1F00
1E1F00
3E3F00
3E3F00
3E7F00
3EDE00
3FFE00
7FBE00
7FBE00
7F3E00
7E7C00
7C0000
F80000
F80000
F80000
ENDCHAR
STARTCHAR paragraph
ENCODING 182
SWIDTH 687 0
DWIDTH 18 0
BBX 12 23 5 -4
BITMAP
3FF0
7FF0
FF70
FF60
FE60
FEE0
FEE0
7EE0
3EC0
1CC0
0DC0
1DC0
1DC0
1D80
1980
1B80
3B80
3B80
3B00
3300
3700
7700
7700
ENDCHAR
STARTCHAR periodcentered
ENCODING 183
SWIDTH 343 0
DWIDTH 18 0
BBX 4 3 8 7
BITMAP
70
F0
E0
ENDCHAR
STARTCHAR cedilla
ENCODING 184
SWIDTH 663 0
DWIDTH 17 0
BBX 5 5 6 -5
BITMAP
38
70
38
38
F0
ENDCHAR
STARTCHAR onesuperior
ENCODING 185
SWIDTH 539 0
DWIDTH 11 0
BBX 5 11 -17 8
BITMAP
F8
F8
38
30
70
70
70
70
60
E0
E0
ENDCHAR
STARTCHAR ordmasculine
ENCODING 186
SWIDTH 539 0
DWIDTH 14 0
BBX 13 10 3 9
BITMAP
03E0
0FF0
3FF8
7CF8
7878
F8F0
F0F0
F9E0
7F80
3E00
ENDCHAR
STARTCHAR guillemotright
ENCODING 187
SWIDTH 633 0
DWIDTH 16 0
BBX 15 12 2 1
BITMAP
0820
38F0
3C70
1E78
1F3C
0F3E
1FBC
3E78
7CF0
FBE0
61C0
4080
ENDCHAR
STARTCHAR onequarter
ENCODING 188
SWIDTH 1089 0
DWIDTH 25 0
BBX 21 19 9 0
BITMAP
7C0078
7C00F0
1C01E0
1803C0
380780
380F00
381E00
383C00
307838
70F878
70F0F0
01E1B0
03C330
078670
0F0FF8
1E0FF8
3C0060
780060
F000E0
ENDCHAR
STARTCHAR onehalf
ENCODING 189
SWIDTH 1089 0
DWIDTH 25 0
BBX 22 19 9 0
BITMAP
7C0078
7C00F0
1C01E0
1803C0
380780
380F00
381E00
383C00
3079F8
70FBFC
70F21C
01E01C
03C038
0780F0
0F01E0
1E0380
3C0700
780FF8
F00FF0
ENDCHAR
STARTCHAR threequarters
ENCODING 190
SWIDTH 1149 0
DWIDTH 25 0
BBX 22 19 10 0
BITMAP
3F003C
3F8078
0380F0
0701E0
3E03C0
3E0780
070F00
071E00
873C1C
FF7C3C
FC7878
00F0D8
01E198
03C338
0787FC
0F07FC
1E0030
3C0030
780070
ENDCHAR
STARTCHAR questiondown
ENCODING 191
SWIDTH 539 0
DWIDTH 14 0
BBX 13 19 0 -5
BITMAP
00F8
01F8
01F0
0000
0000
0000
03F0
03E0
07C0
0F80
1F00
3E00
7C00
F800
F800
FC18
FFF8
7FF0
1FE0
ENDCHAR
STARTCHAR Agrave
ENCODING 192
SWIDTH 771 0
DWIDTH 20 0
BBX 19 23 0 0
BITMAP
001E00
000700
000380
000000
003E00
007F00
007F00
00FF00
00FF00
01EF00
01CF80
03CF80
038F80
078F80
070780
0FFFC0
1FFFC0
1FFFC0
3C07C0
3803C0
7803E0
7003E0
F003E0
ENDCHAR
STARTCHAR Aacute
ENCODING 193
SWIDTH 771 0
DWIDTH 20 0
BBX 19 23 0 0
BITMAP
0007C0
000E00
003C00
000000
003E00
007F00
007F00
00FF00
00FF00
01EF00
01CF80
03CF80
038F80
078F80
070780
0FFFC0
1FFFC0
1FFFC0
3C07C0
3803C0
7803E0
7003E0
F003E0
ENDCHAR
STARTCHAR Acircumflex
ENCODING 194
SWIDTH 771 0
DWIDTH 20 0
BBX 19 23 0 0
BITMAP
000F00
001F80
0071C0
000000
003E00
007F00
007F00
00FF00
00FF00
01EF00
01CF80
03CF80
038F80
078F80
070780
0FFFC0
1FFFC0
1FFFC0
3C07C0
3803C0
7803E0
7003E0
F003E0
ENDCHAR
STARTCHAR Atilde
ENCODING 195
SWIDTH 771 0
DWIDTH 20 0
BBX 19 23 0 0
BITMAP
001EE0
003FC0
007780
000000
003E00
007F00
007F00
00FF00
00FF00
01EF00
01CF80
03CF80
038F80
078F80
070780
0FFFC0
1FFFC0
1FFFC0
3C07C0
3803C0
7803E0
7003E0
F003E0
ENDCHAR
STARTCHAR Adieresis
ENCODING 196
SWIDTH 771 0
DWIDTH 20 0
BBX 19 23 0 0
BITMAP
0039C0
0071C0
007380
000000
003E00
007F00
007F00
00FF00
00FF00
01EF00
01CF80
03CF80
038F80
078F80
070780
0FFFC0
1FFFC0
1FFFC0
3C07C0
3803C0
7803E0
7003E0
F003E0
ENDCHAR
STARTCHAR Aring
ENCODING 197
SWIDTH 771 0
DWIDTH 20 0
BBX 19 24 0 0
BITMAP
000600
000900
000900
000600
000000
003E00
007F00
007F00
00FF00
00FF00
01EF00
01CF80
03CF80
038F80
078F80
070780
0FFFC0
1FFFC0
1FFFC0
3C07C0
3803C0
7803E0
7003E0
F003E0
ENDCHAR
STARTCHAR AE
ENCODING 198
SWIDTH 1004 0
DWIDTH 26 0
BBX 28 19 0 0
BITMAP
0003FFF0
0003FFF0
0007FFE0
000FF000
001FE000
001FE000
003FE000
007BE000
00F3FF80
00E7FF80
01E7FF00
03C7C000
07FFC000
0FFFC000
0FFF8000
1E0F8000
3C0FFFC0
780FFF80
F01FFF80
ENDCHAR
STARTCHAR Ccedilla
ENCODING 199
SWIDTH 737 0
DWIDTH 19 0
BBX 19 24 2 -5
BITMAP
007FC0
01FFE0
07FFE0
0FC040
1F8000
3F0000
3E0000
7C0000
7C0000
F80000
F80000
F80000
F80000
FC0000
FC0000
7F0300
7FFF00
3FFF00
07F800
030000
070000
038000
038000
0F0000
ENDCHAR
STARTCHAR Egrave
ENCODING 200
SWIDTH 642 0
DWIDTH 17 0
BBX 17 23 2 0
BITMAP
01E000
007000
003800
000000
0FFF80
0FFF80
1FFF00
1F0000
1F0000
1F0000
1F0000
3F0000
3FFC00
3FFC00
3FF800
3E0000
7E0000
7C0000
7C0000
7C0000
7FFC00
FFFC00
FFFC00
ENDCHAR
STARTCHAR Eacute
ENCODING 201
SWIDTH 642 0
DWIDTH 17 0
BBX 17 23 2 0
BITMAP
003E00
007000
01E000
000000
0FFF80
0FFF80
1FFF00
1F0000
1F0000
1F0000
1F0000
3F0000
3FFC00
3FFC00
3FF800
3E0000
7E0000
7C0000
7C0000
7C0000
7FFC00
FFFC00
FFFC00
ENDCHAR
STARTCHAR Ecircumflex
ENCODING 202
SWIDTH 642 0
DWIDTH 17 0
BBX 17 23 2 0
BITMAP
007800
00FC00
038E00
000000
0FFF80
0FFF80
1FFF00
1F0000
1F0000
1F0000
1F0000
3F0000
3FFC00
3FFC00
3FF800
3E0000
7E0000
7C0000
7C0000
7C0000
7FFC00
FFFC00
FFFC00
ENDCHAR
STARTCHAR Edieresis
ENCODING 203
SWIDTH 642 0
DWIDTH 17 0
BBX 17 23 2 0
BITMAP
01CE00
038E00
039C00
000000
0FFF80
0FFF80
1FFF00
1F0000
1F0000
1F0000
1F0000
3F0000
3FFC00
3FFC00
3FF800
3E0000
7E0000
7C0000
7C0000
7C0000
7FFC00
FFFC00
FFFC00
ENDCHAR
STARTCHAR Igrave
ENCODING 204
SWIDTH 361 0
DWIDTH 9 0
BBX 10 23 2 0
BITMAP
0F00
0380
01C0
0000
0F80
0F80
1F00
1F00
1F00
1F00
1F00
3E00
3E00
3E00
3E00
3E00
7C00
7C00
7C00
7C00
7C00
F800
F800
ENDCHAR
STARTCHAR Iacute
ENCODING 205
SWIDTH 361 0
DWIDTH 9 0
BBX 11 23 2 0
BITMAP
03E0
0700
1E00
0000
0F80
0F80
1F00
1F00
1F00
1F00
1F00
3E00
3E00
3E00
3E00
3E00
7C00
7C00
7C00
7C00
7C00
F800
F800
ENDCHAR
STARTCHAR Icircumflex
ENCODING 206
SWIDTH 361 0
DWIDTH 9 0
BBX 11 23 2 0
BITMAP
0780
0FC0
38E0
0000
0F80
0F80
1F00
1F00
1F00
1F00
1F00
3E00
3E00
3E00
3E00
3E00
7C00
7C00
7C00
7C00
7C00
F800
F800
ENDCHAR
STARTCHAR Idieresis
ENCODING 207
SWIDTH 361 0
DWIDTH 9 0
BBX 11 23 2 0
BITMAP
1CE0
38E0
39C0
0000
0F80
0F80
1F00
1F00
1F00
1F00
1F00
3E00
3E00
3E00
3E00
3E00
7C00
7C00
7C00
7C00
7C00
F800
F800
ENDCHAR
STARTCHAR Eth
ENCODING 208
SWIDTH 822 0
DWIDTH 21 0
BBX 21 19 1 0
BITMAP
0FFF80
0FFFE0
0FFFF0
0F83F8
0F81F8
1F00F8
1F00F8
1F00F8
FFF0F8
FFE1F8
FFE1F0
3E01F0
3E03F0
3E07E0
3E0FE0
3E1FC0
7FFF80
7FFE00
7FF800
ENDCHAR
STARTCHAR Ntilde
ENCODING 209
SWIDTH 789 0
DWIDTH 20 0
BBX 20 23 2 0
BITMAP
007B80
00FF00
01DE00
000000
0F00F0
1F80F0
1F80F0
1FC1E0
1FC1E0
1FE1E0
3FE1E0
3FF1E0
3DF3C0
3DFBC0
3CFBC0
78FFC0
787FC0
787F80
783F80
783F80
F01F80
F01F80
F00F00
ENDCHAR
STARTCHAR Ograve
ENCODING 210
SWIDTH 855 0
DWIDTH 22 0
BBX 21 23 3 0
BITMAP
003C00
000E00
000700
000000
007F00
01FFC0
07FFE0
0FC3F0
1F01F8
3E01F8
3E01F8
7C01F8
7C01F8
FC01F8
F801F0
F801F0
F803E0
FC07E0
FC07C0
7E1F80
3FFF00
1FFC00
07F000
ENDCHAR
STARTCHAR Oacute
ENCODING 211
SWIDTH 855 0
DWIDTH 22 0
BBX 21 23 3 0
BITMAP
000F80
001C00
007800
000000
007F00
01FFC0
07FFE0
0FC3F0
1F01F8
3E01F8
3E01F8
7C01F8
7C01F8
FC01F8
F801F0
F801F0
F803E0
FC07E0
FC07C0
7E1F80
3FFF00
1FFC00
07F000
ENDCHAR
STARTCHAR Ocircumflex
ENCODING 212
SWIDTH 855 0
DWIDTH 22 0
BBX 21 23 3 0
BITMAP
001E00
003F00
00E380
000000
007F00
01FFC0
07FFE0
0FC3F0
1F01F8
3E01F8
3E01F8
7C01F8
7C01F8
FC01F8
F801F0
F801F0
F803E0
FC07E0
FC07C0
7E1F80
3FFF00
1FFC00
07F000
ENDCHAR
STARTCHAR Otilde
ENCODING 213
SWIDTH 855 0
DWIDTH 22 0
BBX 21 23 3 0
BITMAP
003DC0
007F80
00EF00
000000
007F00
01FFC0
07FFE0
0FC3F0
1F01F8
3E01F8
3E01F8
7C01F8
7C01F8
FC01F8
F801F0
F801F0
F803E0
FC07E0
FC07C0
7E1F80
3FFF00
1FFC00
07F000
ENDCHAR
STARTCHAR Odieresis
ENCODING 214
SWIDTH 855 0
DWIDTH 22 0
BBX 21 23 3 0
BITMAP
007380
00E380
00E700
000000
007F00
01FFC0
07FFE0
0FC3F0
1F01F8
3E01F8
3E01F8
7C01F8
7C01F8
FC01F8
F801F0
F801F0
F803E0
FC07E0
FC07C0
7E1F80
3FFF00
1FFC00
07F000
ENDCHAR
STARTCHAR multiply
ENCODING 215
SWIDTH 687 0
DWIDTH 18 0
BBX 17 16 2 0
BITMAP
080100
380300
1C0780
1E1F00
0F3E00
077800
03F000
03E000
03E000
07E000
0F7000
3E7800
7C3C00
F01C00
600E00
400800
ENDCHAR
STARTCHAR Oslash
ENCODING 216
SWIDTH 855 0
DWIDTH 22 0
BBX 24 19 4 0
BITMAP
003F9F
00FFFE
03FFFC
07E1F8
0F81FC
1F03FC
1F07FC
3E0FFC
3E1EFC
7E3CFC
7C78F8
7CF0F8
7DE1F0
7FC3F0
7F83E0
3F0FC0
3FFF80
7FFE00
FBF800
ENDCHAR
STARTCHAR Ugrave
ENCODING 217
SWIDTH 759 0
DWIDTH 20 0
BBX 18 23 3 0
BITMAP
00F000
003800
001C00
000000
3E03C0
3E07C0
3E07C0
3E0780
3C0780
7C0780
7C0F80
7C0F80
7C0F00
7C0F00
F80F00
F80F00
F81F00
F81E00
F81E00
FC3C00
7FFC00
3FF000
0FE000
ENDCHAR
STARTCHAR Uacute
ENCODING 218
SWIDTH 759 0
DWIDTH 20 0
BBX 18 23 3 0
BITMAP
003E00
007000
01E000
000000
3E03C0
3E07C0
3E07C0
3E0780
3C0780
7C0780
7C0F80
7C0F80
7C0F00
7C0F00
F80F00
F80F00
F81F00
F81E00
F81E00
FC3C00
7FFC00
3FF000
0FE000
ENDCHAR
STARTCHAR Ucircumflex
ENCODING 219
SWIDTH 759 0
DWIDTH 20 0
BBX 18 23 3 0
BITMAP
007800
00FC00
038E00
000000
3E03C0
3E07C0
3E07C0
3E0780
3C0780
7C0780
7C0F80
7C0F80
7C0F00
7C0F00
F80F00
F80F00
F81F00
F81E00
F81E00
FC3C00
7FFC00
3FF000
0FE000
ENDCHAR
STARTCHAR Udieresis
ENCODING 220
SWIDTH 759 0
DWIDTH 20 0
BBX 18 23 3 0
BITMAP
01CE00
038E00
039C00
000000
3E03C0
3E07C0
3E07C0
3E0780
3C0780
7C0780
7C0F80
7C0F80
7C0F00
7C0F00
F80F00
F80F00
F81F00
F81E00
F81E00
FC3C00
7FFC00
3FF000
0FE000
ENDCHAR
STARTCHAR Yacute
ENCODING 221
SWIDTH 681 0
DWIDTH 18 0
BBX 17 23 4 0
BITMAP
007C00
00E000
03C000
000000
F80780
7C0F00
7C1E00
7C3C00
3E3800
3E7800
3EF000
1FE000
1FC000
1FC000
0F8000
0F8000
1F8000
1F0000
1F0000
1F0000
1F0000
3F0000
3E0000
ENDCHAR
STARTCHAR Thorn
ENCODING 222
SWIDTH 645 0
DWIDTH 17 0
BBX 16 19 2 0
BITMAP
0F00
1F00
1F00
1FFC
1FFE
1FFF
3E1F
3E1F
3E1F
3E1E
3C3E
7C7C
7FFC
7FF0
7FC0
7800
F800
F800
F800
ENDCHAR
STARTCHAR germandbls
ENCODING 223
SWIDTH 708 0
DWIDTH 18 0
BBX 17 25 1 -5
BITMAP
00FC00
01FF00
03FF00
07CF00
0F8F00
0F9E00
0F9C00
0F3800
1F3800
1F7800
1F7C00
1F3E00
1E3F00
3E1F80
3E0F80
3E0780
3E8780
3CFF80
7CFF00
7CFC00
7C0000
7C0000
780000
F80000
F80000
ENDCHAR
STARTCHAR agrave
ENCODING 224
SWIDTH 681 0
DWIDTH 18 0
BBX 16 18 2 0
BITMAP
00F0
0038
001C
0000
01FF
07FF
0FFF
1F1E
3E3E
7C3E
7C7E
787E
F8BC
F9BC
FF7C
FE7C
FC7C
78F8
ENDCHAR
STARTCHAR aacute
ENCODING 225
SWIDTH 681 0
DWIDTH 18 0
BBX 16 18 2 0
BITMAP
003E
0070
01E0
0000
01FF
07FF
0FFF
1F1E
3E3E
7C3E
7C7E
787E
F8BC
F9BC
FF7C
FE7C
FC7C
78F8
ENDCHAR
STARTCHAR acircumflex
ENCODING 226
SWIDTH 681 0
DWIDTH 18 0
BBX 16 18 2 0
BITMAP
0078
00FC
038E
0000
01FF
07FF
0FFF
1F1E
3E3E
7C3E
7C7E
787E
F8BC
F9BC
FF7C
FE7C
FC7C
78F8
ENDCHAR
STARTCHAR atilde
ENCODING 227
SWIDTH 681 0
DWIDTH 18 0
BBX 16 18 2 0
BITMAP
00F7
01FE
03BC
0000
01FF
07FF
0FFF
1F1E
3E3E
7C3E
7C7E
787E
F8BC
F9BC
FF7C
FE7C
FC7C
78F8
ENDCHAR
STARTCHAR adieresis
ENCODING 228
SWIDTH 681 0
DWIDTH 18 0
BBX 16 18 2 0
BITMAP
01CE
038E
039C
0000
01FF
07FF
0FFF
1F1E
3E3E
7C3E
7C7E
787E
F8BC
F9BC
FF7C
FE7C
FC7C
78F8
ENDCHAR
STARTCHAR aring
ENCODING 229
SWIDTH 681 0
DWIDTH 18 0
BBX 16 19 2 0
BITMAP
0030
0048
0048
0030
0000
01FF
07FF
0FFF
1F1E
3E3E
7C3E
7C7E
787E
F8BC
F9BC
FF7C
FE7C
FC7C
78F8
ENDCHAR
STARTCHAR ae
ENCODING 230
SWIDTH 987 0
DWIDTH 26 0
BBX 24 14 2 0
BITMAP
01FFFC
07FFFE
0FFFFF
1F1F9F
3E1F1F
3C3E3E
7C3FFC
787FF8
F8FFE0
F9BE01
FF3F07
FF3FFF
7E1FFE
380FF0
ENDCHAR
STARTCHAR ccedilla
ENCODING 231
SWIDTH 548 0
DWIDTH 14 0
BBX 14 19 2 -5
BITMAP
01F8
07FC
0FF8
3F08
3E00
7C00
7C00
F800
F800
F800
FC30
FFF0
7FE0
1F80
0C00
1C00
0E00
0E00
3C00
ENDCHAR
STARTCHAR egrave
ENCODING 232
SWIDTH 612 0
DWIDTH 16 0
BBX 14 18 2 0
BITMAP
01E0
0070
0038
0000
01F0
07F8
1FFC
3E7C
3C7C
7CF8
7FF0
FFE0
FF80
F804
FC1C
FFFC
7FF8
1FC0
ENDCHAR
STARTCHAR eacute
ENCODING 233
SWIDTH 612 0
DWIDTH 16 0
BBX 15 18 2 0
BITMAP
003E
0070
01E0
0000
01F0
07F8
1FFC
3E7C
3C7C
7CF8
7FF0
FFE0
FF80
F804
FC1C
FFFC
7FF8
1FC0
ENDCHAR
STARTCHAR ecircumflex
ENCODING 234
SWIDTH 612 0
DWIDTH 16 0
BBX 14 18 2 0
BITMAP
00F0
01F8
071C
0000
01F0
07F8
1FFC
3E7C
3C7C
7CF8
7FF0
FFE0
FF80
F804
FC1C
FFFC
7FF8
1FC0
ENDCHAR
STARTCHAR edieresis
ENCODING 235
SWIDTH 612 0
DWIDTH 16 0
BBX 15 18 2 0
BITMAP
01CE
038E
039C
0000
01F0
07F8
1FFC
3E7C
3C7C
7CF8
7FF0
FFE0
FF80
F804
FC1C
FFFC
7FF8
1FC0
ENDCHAR
STARTCHAR igrave
ENCODING 236
SWIDTH 343 0
DWIDTH 9 0
BBX 10 18 2 0
BITMAP
0F00
0380
01C0
0000
1F00
1F00
3E00
3E00
3E00
3E00
3E00
7C00
7C00
7C00
7C00
7C00
F800
F800
ENDCHAR
STARTCHAR iacute
ENCODING 237
SWIDTH 343 0
DWIDTH 9 0
BBX 11 18 2 0
BITMAP
03E0
0700
1E00
0000
1F00
1F00
3E00
3E00
3E00
3E00
3E00
7C00
7C00
7C00
7C00
7C00
F800
F800
ENDCHAR
STARTCHAR icircumflex
ENCODING 238
SWIDTH 343 0
DWIDTH 9 0
BBX 11 18 2 0
BITMAP
0780
0FC0
38E0
0000
1F00
1F00
3E00
3E00
3E00
3E00
3E00
7C00
7C00
7C00
7C00
7C00
F800
F800
ENDCHAR
STARTCHAR idieresis
ENCODING 239
SWIDTH 343 0
DWIDTH 9 0
BBX 11 18 2 0
BITMAP
1CE0
38E0
39C0
0000
1F00
1F00
3E00
3E00
3E00
3E00
3E00
7C00
7C00
7C00
7C00
7C00
F800
F800
ENDCHAR
STARTCHAR eth
ENCODING 240
SWIDTH 663 0
DWIDTH 17 0
BBX 16 23 2 0
BITMAP
0010
0038
007C
1EF0
1FE0
3FF0
07F8
0E7C
1E3E
0DFE
07FE
0FFF
1E3F
3C3F
7C1F
781E
F83E
F83E
F87C
FCF8
7FF0
7FE0
1F80
ENDCHAR
STARTCHAR ntilde
ENCODING 241
SWIDTH 675 0
DWIDTH 18 0
BBX 16 18 2 0
BITMAP
00F7
01FE
03BC
0000
1F1E
1E3F
3E7F
3EFF
3EDF
3D9F
3F3E
7E3E
7C3E
7C3E
7C3E
787C
F87C
F87C
ENDCHAR
STARTCHAR ograve
ENCODING 242
SWIDTH 663 0
DWIDTH 17 0
BBX 16 18 2 0
BITMAP
00F0
0038
001C
0000
01F8
07FE
1FFF
3E3F
3C1F
7C1F
781F
F81E
F83E
F83C
FC7C
FFF8
7FE0
1F80
ENDCHAR
STARTCHAR oacute
ENCODING 243
SWIDTH 663 0
DWIDTH 17 0
BBX 16 18 2 0
BITMAP
003E
0070
01E0
0000
01F8
07FE
1FFF
3E3F
3C1F
7C1F
781F
F81E
F83E
F83C
FC7C
FFF8
7FE0
1F80
ENDCHAR
STARTCHAR ocircumflex
ENCODING 244
SWIDTH 663 0
DWIDTH 17 0
BBX 16 18 2 0
BITMAP
0078
00FC
038E
0000
01F8
07FE
1FFF
3E3F
3C1F
7C1F
781F
F81E
F83E
F83C
FC7C
FFF8
7FE0
1F80
ENDCHAR
STARTCHAR otilde
ENCODING 245
SWIDTH 663 0
DWIDTH 17 0
BBX 16 18 2 0
BITMAP
00F7
01FE
03BC
0000
01F8
07FE
1FFF
3E3F
3C1F
7C1F
781F
F81E
F83E
F83C
FC7C
FFF8
7FE0
1F80
ENDCHAR
STARTCHAR odieresis
ENCODING 246
SWIDTH 663 0
DWIDTH 17 0
BBX 16 18 2 0
BITMAP
01CE
038E
039C
0000
01F8
07FE
1FFF
3E3F
3C1F
7C1F
781F
F81E
F83E
F83C
FC7C
FFF8
7FE0
1F80
ENDCHAR
STARTCHAR divide
ENCODING 247
SWIDTH 687 0
DWIDTH 18 0
BBX 16 16 2 0
BITMAP
01E0
01E0
01E0
0000
0000
0000
7FFF
FFFF
FFFE
0000
0000
0000
0000
0780
0780
0780
ENDCHAR
STARTCHAR oslash
ENCODING 248
SWIDTH 663 0
DWIDTH 17 0
BBX 18 14 3 0
BITMAP
00FFC0
03FF00
0FFF80
1F3F80
1E7F80
3EFF80
3DEF80
7FCF00
7F9F00
7F1E00
7E3E00
7FFC00
7FF000
FFC000
ENDCHAR
STARTCHAR ugrave
ENCODING 249
SWIDTH 675 0
DWIDTH 18 0
BBX 16 18 2 0
BITMAP
01E0
0070
0038
0000
3E1F
3E1F
3E3E
7C3E
7C3E
7C3E
7C7E
7CFC
F9BC
FB7C
FF7C
FE7C
FC78
78F8
ENDCHAR
STARTCHAR uacute
ENCODING 250
SWIDTH 675 0
DWIDTH 18 0
BBX 16 18 2 0
BITMAP
003E
0070
01E0
0000
3E1F
3E1F
3E3E
7C3E
7C3E
7C3E
7C7E
7CFC
F9BC
FB7C
FF7C
FE7C
FC78
78F8
ENDCHAR
STARTCHAR ucircumflex
ENCODING 251
SWIDTH 675 0
DWIDTH 18 0
BBX 16 18 2 0
BITMAP
0078
00FC
038E
0000
3E1F
3E1F
3E3E
7C3E
7C3E
7C3E
7C7E
7CFC
F9BC
FB7C
FF7C
FE7C
FC78
78F8
ENDCHAR
STARTCHAR udieresis
ENCODING 252
SWIDTH 675 0
DWIDTH 18 0
BBX 16 18 2 0
BITMAP
01CE
038E
039C
0000
3E1F
3E1F
3E3E
7C3E
7C3E
7C3E
7C7E
7CFC
F9BC
FB7C
FF7C
FE7C
FC78
78F8
ENDCHAR
STARTCHAR yacute
ENCODING 253
SWIDTH 633 0
DWIDTH 16 0
BBX 18 23 1 -5
BITMAP
001F00
003800
00F000
000000
3E03C0
3E0780
1F0700
1F0F00
1F1E00
1F1C00
1F3C00
1FF800
0FF000
0FF000
0FE000
0FC000
0FC000
078000
0F0000
1F0000
3E0000
7C0000
FC0000
ENDCHAR
STARTCHAR thorn
ENCODING 254
SWIDTH 681 0
DWIDTH 18 0
BBX 17 23 1 -5
BITMAP
0F8000
0F8000
0F8000
0F8000
0F0F00
1F1F00
1F3F80
1F7F80
1ECF80
1E8F80
3F0F00
3F1F00
3E1F00
3E3E00
3C7C00
7FF800
7FF000
7FC000
7C0000
7C0000
F80000
F80000
F80000
ENDCHAR
STARTCHAR ydieresis
ENCODING 255
SWIDTH 633 0
DWIDTH 16 0
BBX 18 23 1 -5
BITMAP
00E700
01C700
01CE00
000000
3E03C0
3E0780
1F0700
1F0F00
1F1E00
1F1C00
1F3C00
1FF800
0FF000
0FF000
0FE000
0FC000
0FC000
078000
0F0000
1F0000
3E0000
7C0000
FC0000
ENDCHAR
STARTCHAR Amacron
ENCODING 256
SWIDTH 771 0
DWIDTH 20 0
BBX 19 23 0 0
BITMAP
01FF00
01FF00
01FF00
000000
003E00
007F00
007F00
00FF00
00FF00
01EF00
01CF80
03CF80
038F80
078F80
070780
0FFFC0
1FFFC0
1FFFC0
3C07C0
3803C0
7803E0
7003E0
F003E0
ENDCHAR
STARTCHAR amacron
ENCODING 257
SWIDTH 681 0
DWIDTH 18 0
BBX 16 18 2 0
BITMAP
07FC
07FC
07FC
0000
01FF
07FF
0FFF
1F1E
3E3E
7C3E
7C7E
787E
F8BC
F9BC
FF7C
FE7C
FC7C
78F8
ENDCHAR
STARTCHAR Abreve
ENCODING 258
SWIDTH 771 0
DWIDTH 20 0
BBX 19 23 0 0
BITMAP
00E380
00FF00
007C00
000000
003E00
007F00
007F00
00FF00
00FF00
01EF00
01CF80
03CF80
038F80
078F80
070780
0FFFC0
1FFFC0
1FFFC0
3C07C0
3803C0
7803E0
7003E0
F003E0
ENDCHAR
STARTCHAR abreve
ENCODING 259
SWIDTH 681 0
DWIDTH 18 0
BBX 16 18 2 0
BITMAP
038E
03FC
01F0
0000
01FF
07FF
0FFF
1F1E
3E3E
7C3E
7C7E
787E
F8BC
F9BC
FF7C
FE7C
FC7C
78F8
ENDCHAR
STARTCHAR Aogonek
ENCODING 260
SWIDTH 771 0
DWIDTH 20 0
BBX 19 23 0 -4
BITMAP
003E00
007F00
007F00
00FF00
00FF00
01EF00
01CF80
03CF80
038F80
078F80
070780
0FFFC0
1FFFC0
1FFFC0
3C07C0
3803C0
7803E0
7003E0
F003E0
000000
007000
00E000
00F800
ENDCHAR
STARTCHAR aogonek
ENCODING 261
SWIDTH 681 0
DWIDTH 18 0
BBX 16 18 2 -4
BITMAP
01FF
07FF
0FFF
1F1E
3E3E
7C3E
7C7E
787E
F8BC
F9BC
FF7C
FE7C
FC7C
78F8
0000
0380
0700
07C0
ENDCHAR
STARTCHAR Cacute
ENCODING 262
SWIDTH 737 0
DWIDTH 19 0
BBX 19 23 2 0
BITMAP
001F00
003800
00F000
000000
007FC0
01FFE0
07FFE0
0FC040
1F8000
3F0000
3E0000
7C0000
7C0000
F80000
F80000
F80000
F80000
FC0000
FC0000
7F0300
7FFF00
3FFF00
07F800
ENDCHAR
STARTCHAR cacute
ENCODING 263
SWIDTH 548 0
DWIDTH 14 0
BBX 14 18 2 0
BITMAP
00F8
01C0
0780
0000
01F8
07FC
0FF8
3F08
3E00
7C00
7C00
F800
F800
F800
FC30
FFF0
7FE0
1F80
ENDCHAR
STARTCHAR Ccircumflex
ENCODING 264
SWIDTH 737 0
DWIDTH 19 0
BBX 19 23 2 0
BITMAP
007800
00FC00
038E00
000000
007FC0
01FFE0
07FFE0
0FC040
1F8000
3F0000
3E0000
7C0000
7C0000
F80000
F80000
F80000
F80000
FC0000
FC0000
7F0300
7FFF00
3FFF00
07F800
ENDCHAR
STARTCHAR ccircumflex
ENCODING 265
SWIDTH 548 0
DWIDTH 14 0
BBX 14 18 2 0
BITMAP
01E0
03F0
0E38
0000
01F8
07FC
0FF8
3F08
3E00
7C00
7C00
F800
F800
F800
FC30
FFF0
7FE0
1F80
ENDCHAR
STARTCHAR Cdotaccent
ENCODING 266
SWIDTH 737 0
DWIDTH 19 0
BBX 19 23 2 0
BITMAP
003800
007800
007000
000000
007FC0
01FFE0
07FFE0
0FC040
1F8000
3F0000
3E0000
7C0000
7C0000
F80000
F80000
F80000
F80000
FC0000
FC0000
7F0300
7FFF00
3FFF00
07F800
ENDCHAR
STARTCHAR cdotaccent
ENCODING 267
SWIDTH 548 0
DWIDTH 14 0
BBX 14 18 2 0
BITMAP
01C0
03C0
0380
0000
01F8
07FC
0FF8
3F08
3E00
7C00
7C00
F800
F800
F800
FC30
FFF0
7FE0
1F80
ENDCHAR
STARTCHAR Ccaron
ENCODING 268
SWIDTH 737 0
DWIDTH 19 0
BBX 19 23 2 0
BITMAP
01C700
00FC00
007800
000000
007FC0
01FFE0
07FFE0
0FC040
1F8000
3F0000
3E0000
7C0000
7C0000
F80000
F80000
F80000
F80000
FC0000
FC0000
7F0300
7FFF00
3FFF00
07F800
ENDCHAR
STARTCHAR ccaron
ENCODING 269
SWIDTH 548 0
DWIDTH 14 0
BBX 14 18 2 0
BITMAP
0E38
07E0
03C0
0000
01F8
07FC
0FF8
3F08
3E00
7C00
7C00
F800
F800
F800
FC30
FFF0
7FE0
1F80
ENDCHAR
STARTCHAR Dcaron
ENCODING 270
SWIDTH 822 0
DWIDTH 21 0
BBX 20 23 2 0
BITMAP
01C700
00FC00
007800
000000
0FFF00
1FFFC0
1FFFE0
1F07F0
1F03F0
1E01F0
3E01F0
3E01F0
3E01F0
3E03F0
3E03E0
7C03E0
7C07E0
7C0FC0
7C1FC0
7C3F80
FFFF00
FFFC00
FFF000
ENDCHAR
STARTCHAR dcaron
ENCODING 271
SWIDTH 912 0
DWIDTH 24 0
BBX 25 20 2 0
BITMAP
0007CF80
0007DF80
000F9F80
000F9F00
000F9F00
000F8700
01FF8E00
07FF3E00
0FFF3800
1F1F0000
3E1F0000
3C1F0000
7C3E0000
787E0000
F8FE0000
F9BE0000
FFBE0000
FF7C0000
7E7C0000
387C0000
ENDCHAR
STARTCHAR Dcroat
ENCODING 272
SWIDTH 822 0
DWIDTH 21 0
BBX 21 19 1 0
BITMAP
0FFF80
0FFFE0
0FFFF0
0F83F8
0F81F8
1F00F8
1F00F8
1F00F8
FFF0F8
FFE1F8
FFE1F0
3E01F0
3E03F0
3E07E0
3E0FE0
3E1FC0
7FFF80
7FFE00
7FF800
ENDCHAR
STARTCHAR dcroat
ENCODING 273
SWIDTH 681 0
DWIDTH 18 0
BBX 18 20 2 0
BITMAP
0007C0
0007C0
000F80
007FC0
007FC0
007FC0
01FF80
07FF00
0FFF00
1F1F00
3E1F00
3C1F00
7C3E00
787E00
F8FE00
F9BE00
FFBE00
FF7C00
7E7C00
387C00
ENDCHAR
STARTCHAR Emacron
ENCODING 274
SWIDTH 642 0
DWIDTH 17 0
BBX 17 23 2 0
BITMAP
0FF800
0FF800
0FF800
000000
0FFF80
0FFF80
1FFF00
1F0000
1F0000
1F0000
1F0000
3F0000
3FFC00
3FFC00
3FF800
3E0000
7E0000
7C0000
7C0000
7C0000
7FFC00
FFFC00
FFFC00
ENDCHAR
STARTCHAR emacron
ENCODING 275
SWIDTH 612 0
DWIDTH 16 0
BBX 14 18 2 0
BITMAP
0FF8
0FF8
0FF8
0000
01F0
07F8
1FFC
3E7C
3C7C
7CF8
7FF0
FFE0
FF80
F804
FC1C
FFFC
7FF8
1FC0
ENDCHAR
STARTCHAR Ebreve
ENCODING 276
SWIDTH 642 0
DWIDTH 17 0
BBX 17 23 2 0
BITMAP
071C00
07F800
03E000
000000
0FFF80
0FFF80
1FFF00
1F0000
1F0000
1F0000
1F0000
3F0000
3FFC00
3FFC00
3FF800
3E0000
7E0000
7C0000
7C0000
7C0000
7FFC00
FFFC00
FFFC00
ENDCHAR
STARTCHAR ebreve
ENCODING 277
SWIDTH 612 0
DWIDTH 16 0
BBX 14 18 2 0
BITMAP
0E38
0FF0
07C0
0000
01F0
07F8
1FFC
3E7C
3C7C
7CF8
7FF0
FFE0
FF80
F804
FC1C
FFFC
7FF8
1FC0
ENDCHAR
STARTCHAR Edotaccent
ENCODING 278
SWIDTH 642 0
DWIDTH 17 0
BBX 17 23 2 0
BITMAP
00E000
01E000
01C000
000000
0FFF80
0FFF80
1FFF00
1F0000
1F0000
1F0000
1F0000
3F0000
3FFC00
3FFC00
3FF800
3E0000
7E0000
7C0000
7C0000
7C0000
7FFC00
FFFC00
FFFC00
ENDCHAR
STARTCHAR edotaccent
ENCODING 279
SWIDTH 612 0
DWIDTH 16 0
BBX 14 18 2 0
BITMAP
01C0
03C0
0380
0000
01F0
07F8
1FFC
3E7C
3C7C
7CF8
7FF0
FFE0
FF80
F804
FC1C
FFFC
7FF8
1FC0
ENDCHAR
STARTCHAR Eogonek
ENCODING 280
SWIDTH 642 0
DWIDTH 17 0
BBX 17 23 2 -4
BITMAP
0FFF80
0FFF80
1FFF00
1F0000
1F0000
1F0000
1F0000
3F0000
3FFC00
3FFC00
3FF800
3E0000
7E0000
7C0000
7C0000
7C0000
7FFC00
FFFC00
FFFC00
000000
038000
070000
07C000
ENDCHAR
STARTCHAR eogonek
ENCODING 281
SWIDTH 612 0
DWIDTH 16 0
BBX 14 18 2 -4
BITMAP
01F0
07F8
1FFC
3E7C
3C7C
7CF8
7FF0
FFE0
FF80
F804
FC1C
FFFC
7FF8
1FC0
0000
0700
0E00
0F80
ENDCHAR
STARTCHAR Ecaron
ENCODING 282
SWIDTH 642 0
DWIDTH 17 0
BBX 17 23 2 0
BITMAP
071C00
03F000
01E000
000000
0FFF80
0FFF80
1FFF00
1F0000
1F0000
1F0000
1F0000
3F0000
3FFC00
3FFC00
3FF800
3E0000
7E0000
7C0000
7C0000
7C0000
7FFC00
FFFC00
FFFC00
ENDCHAR
STARTCHAR ecaron
ENCODING 283
SWIDTH 612 0
DWIDTH 16 0
BBX 14 18 2 0
BITMAP
0E38
07E0
03C0
0000
01F0
07F8
1FFC
3E7C
3C7C
7CF8
7FF0
FFE0
FF80
F804
FC1C
FFFC
7FF8
1FC0
ENDCHAR
STARTCHAR Gcircumflex
ENCODING 284
SWIDTH 755 0
DWIDTH 20 0
BBX 19 23 2 0
BITMAP
007800
00FC00
038E00
000000
007FC0
01FFE0
07FFE0
0FC040
1F8000
3F0000
3E0000
7C0000
7C0000
F80000
F80F80
F80F80
F80F80
FC0F00
FC0F00
7F1F00
7FFF00
3FFF00
07FC00
ENDCHAR
STARTCHAR gcircumflex
ENCODING 285
SWIDTH 674 0
DWIDTH 17 0
BBX 17 23 1 -5
BITMAP
007800
00FC00
038E00
000000
00FF80
03FF80
07FF80
0F1F00
1E1F00
3E1F00
3C3F00
7C7F00
7CDE00
7DDE00
7FBE00
7F3E00
7E3E00
3C7C00
807C00
E0FC00
FFF800
7FF000
7F8000
ENDCHAR
STARTCHAR Gbreve
ENCODING 286
SWIDTH 755 0
DWIDTH 20 0
BBX 19 23 2 0
BITMAP
01C700
01FE00
00F800
000000
007FC0
01FFE0
07FFE0
0FC040
1F8000
3F0000
3E0000
7C0000
7C0000
F80000
F80F80
F80F80
F80F80
FC0F00
FC0F00
7F1F00
7FFF00
3FFF00
07FC00
ENDCHAR
STARTCHAR gbreve
ENCODING 287
SWIDTH 674 0
DWIDTH 17 0
BBX 17 23 1 -5
BITMAP
038E00
03FC00
01F000
000000
00FF80
03FF80
07FF80
0F1F00
1E1F00
3E1F00
3C3F00
7C7F00
7CDE00
7DDE00
7FBE00
7F3E00
7E3E00
3C7C00
807C00
E0FC00
FFF800
7FF000
7F8000
ENDCHAR
STARTCHAR Gdotaccent
ENCODING 288
SWIDTH 755 0
DWIDTH 20 0
BBX 19 23 2 0
BITMAP
003800
007800
007000
000000
007FC0
01FFE0
07FFE0
0FC040
1F8000
3F0000
3E0000
7C0000
7C0000
F80000
F80F80
F80F80
F80F80
FC0F00
FC0F00
7F1F00
7FFF00
3FFF00
07FC00
ENDCHAR
STARTCHAR gdotaccent
ENCODING 289
SWIDTH 674 0
DWIDTH 17 0
BBX 17 23 1 -5
BITMAP
003800
007800
007000
000000
00FF80
03FF80
07FF80
0F1F00
1E1F00
3E1F00
3C3F00
7C7F00
7CDE00
7DDE00
7FBE00
7F3E00
7E3E00
3C7C00
807C00
E0FC00
FFF800
7FF000
7F8000
ENDCHAR
STARTCHAR Gcommaaccent
ENCODING 290
SWIDTH 755 0
DWIDTH 20 0
BBX 19 29 2 -10
BITMAP
007FC0
01FFE0
07FFE0
0FC040
1F8000
3F0000
3E0000
7C0000
7C0000
F80000
F80F80
F80F80
F80F80
FC0F00
FC0F00
7F1F00
7FFF00
3FFF00
07FC00
000000
01F000
03F000
03F000
03E000
03E000
00E000
01C000
07C000
070000
ENDCHAR
STARTCHAR gcommaaccent
ENCODING 291
SWIDTH 674 0
DWIDTH 17 0
BBX 17 29 1 -5
BITMAP
000C00
003C00
007C00
00F000
00F800
00F800
00F800
01F800
01F000
000000
00FF80
03FF80
07FF80
0F1F00
1E1F00
3E1F00
3C3F00
7C7F00
7CDE00
7DDE00
7FBE00
7F3E00
7E3E00
3C7C00
807C00
E0FC00
FFF800
7FF000
7F8000
ENDCHAR
STARTCHAR Hcircumflex
ENCODING 292
SWIDTH 813 0
DWIDTH 21 0
BBX 20 23 2 0
BITMAP
007800
00FC00
038E00
000000
0F81F0
1F01F0
1F01F0
1F03E0
1F03E0
1F03E0
3E03E0
3E03E0
3FFFC0
3FFFC0
3FFFC0
7C07C0
7C07C0
7C0780
7C0F80
7C0F80
F80F80
F80F80
F81F00
ENDCHAR
STARTCHAR hcircumflex
ENCODING 293
SWIDTH 675 0
DWIDTH 18 0
BBX 16 24 2 0
BITMAP
0780
0FC0
38E0
0000
0F80
0F80
1F80
1F00
1F00
1F00
1F1E
3E3F
3E7F
3EFF
3EDF
3D9F
7F3E
7E3E
7C3E
7C3E
7C3E
FC7C
F87C
F87C
ENDCHAR
STARTCHAR Hbar
ENCODING 294
SWIDTH 813 0
DWIDTH 21 0
BBX 20 19 2 0
BITMAP
0F81F0
1F01F0
1F01F0
FFFFF0
FFFFF0
FFFFF0
3E03E0
3E03E0
3FFFC0
3FFFC0
3FFFC0
7C07C0
7C07C0
7C0780
7C0F80
7C0F80
F80F80
F80F80
F81F00
ENDCHAR
STARTCHAR hbar
ENCODING 295
SWIDTH 675 0
DWIDTH 18 0
BBX 16 20 2 0
BITMAP
0F80
0F80
1F80
FF80
FF80
FF80
1F1E
3E3F
3E7F
3EFF
3EDF
3D9F
7F3E
7E3E
7C3E
7C3E
7C3E
FC7C
F87C
F87C
ENDCHAR
STARTCHAR Itilde
ENCODING 296
SWIDTH 361 0
DWIDTH 9 0
BBX 11 23 2 0
BITMAP
1EE0
3FC0
7780
0000
0F80
0F80
1F00
1F00
1F00
1F00
1F00
3E00
3E00
3E00
3E00
3E00
7C00
7C00
7C00
7C00
7C00
F800
F800
ENDCHAR
STARTCHAR itilde
ENCODING 297
SWIDTH 343 0
DWIDTH 9 0
BBX 10 18 2 0
BITMAP
3DC0
7F80
EF00
0000
1F00
1F00
3E00
3E00
3E00
3E00
3E00
7C00
7C00
7C00
7C00
7C00
F800
F800
ENDCHAR
STARTCHAR Imacron
ENCODING 298
SWIDTH 361 0
DWIDTH 9 0
BBX 10 23 2 0
BITMAP
7FC0
7FC0
7FC0
0000
0F80
0F80
1F00
1F00
1F00
1F00
1F00
3E00
3E00
3E00
3E00
3E00
7C00
7C00
7C00
7C00
7C00
F800
F800
ENDCHAR
STARTCHAR imacron
ENCODING 299
SWIDTH 343 0
DWIDTH 9 0
BBX 9 18 2 0
BITMAP
FF80
FF80
FF80
0000
1F00
1F00
3E00
3E00
3E00
3E00
3E00
7C00
7C00
7C00
7C00
7C00
F800
F800
ENDCHAR
STARTCHAR Ibreve
ENCODING 300
SWIDTH 361 0
DWIDTH 9 0
BBX 11 23 2 0
BITMAP
38E0
3FC0
1F00
0000
0F80
0F80
1F00
1F00
1F00
1F00
1F00
3E00
3E00
3E00
3E00
3E00
7C00
7C00
7C00
7C00
7C00
F800
F800
ENDCHAR
STARTCHAR ibreve
ENCODING 301
SWIDTH 343 0
DWIDTH 9 0
BBX 10 18 2 0
BITMAP
71C0
7F80
3E00
0000
1F00
1F00
3E00
3E00
3E00
3E00
3E00
7C00
7C00
7C00
7C00
7C00
F800
F800
ENDCHAR
STARTCHAR Iogonek
ENCODING 302
SWIDTH 361 0
DWIDTH 9 0
BBX 9 23 2 -4
BITMAP
0F80
0F80
1F00
1F00
1F00
1F00
1F00
3E00
3E00
3E00
3E00
3E00
7C00
7C00
7C00
7C00
7C00
F800
F800
0000
3800
7000
7C00
ENDCHAR
STARTCHAR iogonek
ENCODING 303
SWIDTH 343 0
DWIDTH 9 0
BBX 9 24 2 -4
BITMAP
0F80
0F80
1F00
1F00
0000
0000
1F00
3E00
3E00
3E00
3E00
3E00
7C00
7C00
7C00
7C00
7C00
F800
F800
F800
0000
3800
7000
7C00
ENDCHAR
STARTCHAR Idotaccent
ENCODING 304
SWIDTH 361 0
DWIDTH 9 0
BBX 9 23 2 0
BITMAP
0700
0F00
0E00
0000
0F80
0F80
1F00
1F00
1F00
1F00
1F00
3E00
3E00
3E00
3E00
3E00
7C00
7C00
7C00
7C00
7C00
F800
F800
ENDCHAR
STARTCHAR dotlessi
ENCODING 305
SWIDTH 343 0
DWIDTH 9 0
BBX 8 14 2 0
BITMAP
1F
1F
3E
3E
3E
3E
3E
7C
7C
7C
7C
7C
F8
F8
ENDCHAR
STARTCHAR IJ
ENCODING 306
SWIDTH 845 0
DWIDTH 22 0
BBX 22 23 2 -4
BITMAP
0F807C
0F807C
1F00F8
1F00F8
1F00F8
1F00F8
1F00F8
3E01F0
3E01F0
3E01F0
3E01F0
3E01F0
7C03E0
7C03E0
7C03E0
7C03E0
7C03E0
F807E0
F807C0
008FC0
01FF80
01FF00
01FC00
ENDCHAR
STARTCHAR ij
ENCODING 307
SWIDTH 733 0
DWIDTH 20 0
BBX 21 25 2 -5
BITMAP
0F80F8
0F80F8
1F00F0
1F01F0
000000
000000
1F01F0
3E01F0
3E03E0
3E03E0
3E03E0
3E03E0
7C07E0
7C07C0
7C07C0
7C07C0
7C07C0
F80FC0
F80F80
F80F80
000F80
031F00
03FE00
03FC00
01F000
ENDCHAR
STARTCHAR Jcircumflex
ENCODING 308
SWIDTH 502 0
DWIDTH 13 0
BBX 15 27 0 -4
BITMAP
0078
00FC
038E
0000
003E
003E
007C
007C
007C
007C
007C
00F8
00F8
00F8
00F8
00F8
01F0
01F0
01F0
01F0
01F0
03F0
03E0
47E0
FFC0
FF80
FE00
ENDCHAR
STARTCHAR jcircumflex
ENCODING 309
SWIDTH 407 0
DWIDTH 11 0
BBX 15 23 -1 -5
BITMAP
00F0
01F8
071C
0000
007C
007C
00F8
00F8
00F8
00F8
01F8
01F0
01F0
01F0
01F0
03F0
03E0
03E0
03E0
C7C0
FF80
FF00
7C00
ENDCHAR
STARTCHAR Kcommaaccent
ENCODING 310
SWIDTH 753 0
DWIDTH 20 0
BBX 18 29 2 -10
BITMAP
0F83C0
1F8780
1F0F00
1F1E00
1F1C00
1F3C00
3F7800
3EF000
3EE000
3FF000
3FF800
7EF800
7CFC00
7C7C00
7C7E00
7C3E00
FC3F00
F81F80
F81F80
000000
01F000
03F000
03F000
03E000
03E000
00E000
01C000
07C000
070000
ENDCHAR
STARTCHAR kcommaaccent
ENCODING 311
SWIDTH 666 0
DWIDTH 17 0
BBX 17 30 2 -10
BITMAP
0F8000
0F8000
0F8000
1F0000
1F0000
1F0000
1F0780
1F0F00
3E1E00
3E3C00
3E7800
3EF000
3FF000
7DF000
7CF800
7CF800
7CFC00
7C7C00
F87E00
F83E00
000000
03E000
07E000
07E000
07C000
07C000
01C000
038000
0F8000
0E0000
ENDCHAR
STARTCHAR kgreenlandic
ENCODING 312
SWIDTH 666 0
DWIDTH 17 0
BBX 17 14 2 0
BITMAP
1F0780
1F0F00
3E1E00
3E3C00
3E7800
3EF000
3FF000
7DF000
7CF800
7CF800
7CFC00
7C7C00
F87E00
F83E00
ENDCHAR
STARTCHAR Lacute
ENCODING 313
SWIDTH 623 0
DWIDTH 16 0
BBX 14 23 2 0
BITMAP
03E0
0700
1E00
0000
0F80
1F00
1F00
1F00
1F00
1F00
3E00
3E00
3E00
3E00
3E00
7C00
7C00
7C00
7C00
7C00
FFFC
FFFC
FFFC
ENDCHAR
STARTCHAR lacute
ENCODING 314
SWIDTH 343 0
DWIDTH 9 0
BBX 11 24 2 0
BITMAP
03E0
0700
1E00
0000
0F80
0F80
1F80
1F00
1F00
1F00
1F00
3F00
3E00
3E00
3E00
3E00
7E00
7C00
7C00
7C00
7C00
FC00
F800
F800
ENDCHAR
STARTCHAR Lcommaaccent
ENCODING 315
SWIDTH 623 0
DWIDTH 16 0
BBX 14 29 2 -10
BITMAP
0F80
1F00
1F00
1F00
1F00
1F00
3E00
3E00
3E00
3E00
3E00
7C00
7C00
7C00
7C00
7C00
FFFC
FFFC
FFFC
0000
07C0
0FC0
0FC0
0F80
0F80
0380
0700
1F00
1C00
ENDCHAR
STARTCHAR lcommaaccent
ENCODING 316
SWIDTH 343 0
DWIDTH 9 0
BBX 9 30 2 -10
BITMAP
0F80
0F80
1F80
1F00
1F00
1F00
1F00
3F00
3E00
3E00
3E00
3E00
7E00
7C00
7C00
7C00
7C00
FC00
F800
F800
0000
3E00
7E00
7E00
7C00
7C00
1C00
3800
F800
E000
ENDCHAR
STARTCHAR Lcaron
ENCODING 317
SWIDTH 857 0
DWIDTH 22 0
BBX 23 20 2 0
BITMAP
00003E
0F807E
1F007E
1F007C
1F007C
1F001C
1F0038
3E00F8
3E00E0
3E0000
3E0000
3E0000
7C0000
7C0000
7C0000
7C0000
7C0000
FFFC00
FFFC00
FFFC00
ENDCHAR
STARTCHAR lcaron
ENCODING 318
SWIDTH 591 0
DWIDTH 16 0
BBX 17 20 2 0
BITMAP
0F8F80
0F9F80
1F9F80
1F1F00
1F1F00
1F0700
1F0E00
3F3E00
3E3800
3E0000
3E0000
3E0000
7E0000
7C0000
7C0000
7C0000
7C0000
FC0000
F80000
F80000
ENDCHAR
STARTCHAR Ldot
ENCODING 319
SWIDTH 935 0
DWIDTH 33 0
BBX 25 19 2 0
BITMAP
0F800000
1F000000
1F000000
1F000000
1F000000
1F000000
3E000000
3E000000
3E000000
3E000380
3E000780
7C000700
7C000000
7C000000
7C000000
7C000000
FFFC0000
FFFC0000
FFFC0000
ENDCHAR
STARTCHAR ldot
ENCODING 320
SWIDTH 669 0
DWIDTH 27 0
BBX 19 20 2 0
BITMAP
0F8000
0F8000
1F8000
1F0000
1F0000
1F0000
1F0000
3F0000
3E0000
3E0000
3E00E0
3E01E0
7E01C0
7C0000
7C0000
7C0000
7C0000
FC0000
F80000
F80000
ENDCHAR
STARTCHAR Lslash
ENCODING 321
SWIDTH 623 0
DWIDTH 16 0
BBX 16 19 0 0
BITMAP
07C0
07C0
07C0
07C0
0FC0
0F90
0FF0
0FF0
0FE0
1F80
7F00
7F00
FF00
9F00
1F00
3E00
3FFF
3FFF
3FFF
ENDCHAR
STARTCHAR lslash
ENCODING 322
SWIDTH 343 0
DWIDTH 9 0
BBX 12 20 1 0
BITMAP
07C0
07C0
07C0
07C0
07C0
0FB0
0FF0
0FE0
0FE0
1F80
7F00
7F00
FF00
9F00
3F00
3E00
3E00
3E00
3E00
7E00
ENDCHAR
STARTCHAR Nacute
ENCODING 323
SWIDTH 789 0
DWIDTH 20 0
BBX 20 23 2 0
BITMAP
001F00
003800
00F000
000000
0F00F0
1F80F0
1F80F0
1FC1E0
1FC1E0
1FE1E0
3FE1E0
3FF1E0
3DF3C0
3DFBC0
3CFBC0
78FFC0
787FC0
787F80
783F80
783F80
F01F80
F01F80
F00F00
ENDCHAR
STARTCHAR nacute
ENCODING 324
SWIDTH 675 0
DWIDTH 18 0
BBX 16 18 2 0
BITMAP
007C
00E0
03C0
0000
1F1E
1E3F
3E7F
3EFF
3EDF
3D9F
3F3E
7E3E
7C3E
7C3E
7C3E
787C
F87C
F87C
ENDCHAR
STARTCHAR Ncommaaccent
ENCODING 325
SWIDTH 789 0
DWIDTH 20 0
BBX 20 29 2 -10
BITMAP
0F00F0
1F80F0
1F80F0
1FC1E0
1FC1E0
1FE1E0
3FE1E0
3FF1E0
3DF3C0
3DFBC0
3CFBC0
78FFC0
787FC0
787F80
783F80
783F80
F01F80
F01F80
F00F00
000000
00F800
01F800
01F800
01F000
01F000
007000
00E000
03E000
038000
ENDCHAR
STARTCHAR ncommaaccent
ENCODING 326
SWIDTH 675 0
DWIDTH 18 0
BBX 16 24 2 -10
BITMAP
1F1E
1E3F
3E7F
3EFF
3EDF
3D9F
3F3E
7E3E
7C3E
7C3E
7C3E
787C
F87C
F87C
0000
03E0
07E0
07E0
07C0
07C0
01C0
0380
0F80
0E00
ENDCHAR
STARTCHAR Ncaron
ENCODING 327
SWIDTH 789 0
DWIDTH 20 0
BBX 20 23 2 0
BITMAP
038E00
01F800
00F000
000000
0F00F0
1F80F0
1F80F0
1FC1E0
1FC1E0
1FE1E0
3FE1E0
3FF1E0
3DF3C0
3DFBC0
3CFBC0
78FFC0
787FC0
787F80
783F80
783F80
F01F80
F01F80
F00F00
ENDCHAR
STARTCHAR ncaron
ENCODING 328
SWIDTH 675 0
DWIDTH 18 0
BBX 16 18 2 0
BITMAP
071C
03F0
01E0
0000
1F1E
1E3F
3E7F
3EFF
3EDF
3D9F
3F3E
7E3E
7C3E
7C3E
7C3E
787C
F87C
F87C
ENDCHAR
STARTCHAR napostrophe
ENCODING 329
SWIDTH 927 0
DWIDTH 25 0
BBX 22 20 3 0
BITMAP
3E0000
7E0000
7E0000
7C0000
7C0000
1C0000
387C78
F878FC
E0F9FC
00FBFC
00FB7C
00F67C
00FCF8
01F8F8
01F0F8
01F0F8
01F0F8
01E1F0
03E1F0
03E1F0
ENDCHAR
STARTCHAR Eng
ENCODING 330
SWIDTH 789 0
DWIDTH 20 0
BBX 20 24 2 -5
BITMAP
0F00F0
1F80F0
1F80F0
1FC1E0
1FC1E0
1FE1E0
3FE1E0
3FF1E0
3DF3C0
3DFBC0
3CFBC0
78FFC0
787FC0
787F80
783F80
783F80
F01F80
F01F80
F01F00
001F00
063E00
07FC00
07F800
03E000
ENDCHAR
STARTCHAR eng
ENCODING 331
SWIDTH 675 0
DWIDTH 18 0
BBX 16 19 2 -5
BITMAP
1F1E
1E3F
3E7F
3EFF
3EDF
3D9F
3F3E
7E3E
7C3E
7C3E
7C3E
787E
F87C
F87C
007C
18F8
1FF0
1FE0
0F80
ENDCHAR
STARTCHAR Omacron
ENCODING 332
SWIDTH 855 0
DWIDTH 22 0
BBX 21 23 3 0
BITMAP
01FF00
01FF00
01FF00
000000
007F00
01FFC0
07FFE0
0FC3F0
1F01F8
3E01F8
3E01F8
7C01F8
7C01F8
FC01F8
F801F0
F801F0
F803E0
FC07E0
FC07C0
7E1F80
3FFF00
1FFC00
07F000
ENDCHAR
STARTCHAR omacron
ENCODING 333
SWIDTH 663 0
DWIDTH 17 0
BBX 16 18 2 0
BITMAP
07FC
07FC
07FC
0000
01F8
07FE
1FFF
3E3F
3C1F
7C1F
781F
F81E
F83E
F83C
FC7C
FFF8
7FE0
1F80
ENDCHAR
STARTCHAR Obreve
ENCODING 334
SWIDTH 855 0
DWIDTH 22 0
BBX 21 23 3 0
BITMAP
00E380
00FF00
007C00
000000
007F00
01FFC0
07FFE0
0FC3F0
1F01F8
3E01F8
3E01F8
7C01F8
7C01F8
FC01F8
F801F0
F801F0
F803E0
FC07E0
FC07C0
7E1F80
3FFF00
1FFC00
07F000
ENDCHAR
STARTCHAR obreve
ENCODING 335
SWIDTH 663 0
DWIDTH 17 0
BBX 16 18 2 0
BITMAP
071C
07F8
03E0
0000
01F8
07FE
1FFF
3E3F
3C1F
7C1F
781F
F81E
F83E
F83C
FC7C
FFF8
7FE0
1F80
ENDCHAR
STARTCHAR Ohungarumlaut
ENCODING 336
SWIDTH 855 0
DWIDTH 22 0
BBX 21 23 3 0
BITMAP
003FC0
007700
01DC00
000000
007F00
01FFC0
07FFE0
0FC3F0
1F01F8
3E01F8
3E01F8
7C01F8
7C01F8
FC01F8
F801F0
F801F0
F803E0
FC07E0
FC07C0
7E1F80
3FFF00
1FFC00
07F000
ENDCHAR
STARTCHAR ohungarumlaut
ENCODING 337
SWIDTH 663 0
DWIDTH 17 0
BBX 16 18 2 0
BITMAP
00FF
01DC
0770
0000
01F8
07FE
1FFF
3E3F
3C1F
7C1F
781F
F81E
F83E
F83C
FC7C
FFF8
7FE0
1F80
ENDCHAR
STARTCHAR OE
ENCODING 338
SWIDTH 1103 0
DWIDTH 29 0
BBX 28 19 3 0
BITMAP
007FFFF0
01FFFFF0
07FFFFE0
0FC7F000
1F03E000
3E03E000
3E03E000
7C03E000
7C03FF80
FC07FF80
F807FF00
F807C000
F807C000
FC07C000
FC0F8000
7E1F8000
7FFFFFC0
1FFFFF80
07FFFF80
ENDCHAR
STARTCHAR oe
ENCODING 339
SWIDTH 1004 0
DWIDTH 26 0
BBX 24 14 2 0
BITMAP
01F87C
07FDFE
1FFFFF
3E3F9F
3C1F1F
7C1F3E
781FFC
F83FF8
F83FE0
F83E01
FC7F07
FFFFFF
7FEFFE
1F07F0
ENDCHAR
STARTCHAR Racute
ENCODING 340
SWIDTH 708 0
DWIDTH 18 0
BBX 17 23 2 0
BITMAP
003E00
007000
01E000
000000
0FFE00
1FFF00
1FFF80
1F0F80
1F0F80
1E0F80
3E1F00
3E3F00
3EFE00
3FF800
3FF000
7CF800
7CF800
7C7800
7C7C00
787C00
F83E00
F83E00
F83F00
ENDCHAR
STARTCHAR racute
ENCODING 341
SWIDTH 542 0
DWIDTH 14 0
BBX 14 18 2 0
BITMAP
00F8
01C0
0780
0000
1F1C
3E3C
3E78
3EF8
3FC0
3D80
7F00
7E00
7C00
7C00
7C00
F800
F800
F800
ENDCHAR
STARTCHAR Rcommaaccent
ENCODING 342
SWIDTH 708 0
DWIDTH 18 0
BBX 17 29 2 -10
BITMAP
0FFE00
1FFF00
1FFF80
1F0F80
1F0F80
1E0F80
3E1F00
3E3F00
3EFE00
3FF800
3FF000
7CF800
7CF800
7C7800
7C7C00
787C00
F83E00
F83E00
F83F00
000000
03E000
07E000
07E000
07C000
07C000
01C000
038000
0F8000
0E0000
ENDCHAR
STARTCHAR rcommaaccent
ENCODING 343
SWIDTH 542 0
DWIDTH 14 0
BBX 14 24 2 -10
BITMAP
1F1C
3E3C
3E78
3EF8
3FC0
3D80
7F00
7E00
7C00
7C00
7C00
F800
F800
F800
0000
3E00
7E00
7E00
7C00
7C00
1C00
3800
F800
E000
ENDCHAR
STARTCHAR Rcaron
ENCODING 344
SWIDTH 708 0
DWIDTH 18 0
BBX 17 23 2 0
BITMAP
071C00
03F000
01E000
000000
0FFE00
1FFF00
1FFF80
1F0F80
1F0F80
1E0F80
3E1F00
3E3F00
3EFE00
3FF800
3FF000
7CF800
7CF800
7C7800
7C7C00
787C00
F83E00
F83E00
F83F00
ENDCHAR
STARTCHAR rcaron
ENCODING 345
SWIDTH 542 0
DWIDTH 14 0
BBX 14 18 2 0
BITMAP
1C70
0FC0
0780
0000
1F1C
3E3C
3E78
3EF8
3FC0
3D80
7F00
7E00
7C00
7C00
7C00
F800
F800
F800
ENDCHAR
STARTCHAR Sacute
ENCODING 346
SWIDTH 639 0
DWIDTH 17 0
BBX 16 23 2 0
BITMAP
007C
00E0
03C0
0000
01FE
07FF
0FFF
1F02
1F00
1F00
1F80
1FC0
1FF0
07F8
03FC
00FC
007E
007E
007C
607C
FFF8
FFF0
FF80
ENDCHAR
STARTCHAR sacute
ENCODING 347
SWIDTH 527 0
DWIDTH 14 0
BBX 13 18 1 0
BITMAP
00F8
01C0
0780
0000
03F8
0FF8
1FF0
1F00
1E00
1F00
0FC0
07E0
03E0
01F0
43F0
FFE0
FFC0
7F80
ENDCHAR
STARTCHAR Scircumflex
ENCODING 348
SWIDTH 639 0
DWIDTH 17 0
BBX 16 23 2 0
BITMAP
01E0
03F0
0E38
0000
01FE
07FF
0FFF
1F02
1F00
1F00
1F80
1FC0
1FF0
07F8
03FC
00FC
007E
007E
007C
607C
FFF8
FFF0
FF80
ENDCHAR
STARTCHAR scircumflex
ENCODING 349
SWIDTH 527 0
DWIDTH 14 0
BBX 13 18 1 0
BITMAP
03C0
07E0
1C70
0000
03F8
0FF8
1FF0
1F00
1E00
1F00
0FC0
07E0
03E0
01F0
43F0
FFE0
FFC0
7F80
ENDCHAR
STARTCHAR Scedilla
ENCODING 350
SWIDTH 639 0
DWIDTH 17 0
BBX 16 24 2 -5
BITMAP
01FE
07FF
0FFF
1F02
1F00
1F00
1F80
1FC0
1FF0
07F8
03FC
00FC
007E
007E
007C
607C
FFF8
FFF0
FF80
0380
0700
0380
0380
0F00
ENDCHAR
STARTCHAR scedilla
ENCODING 351
SWIDTH 527 0
DWIDTH 14 0
BBX 13 19 1 -5
BITMAP
03F8
0FF8
1FF0
1F00
1E00
1F00
0FC0
07E0
03E0
01F0
43F0
FFE0
FFC0
7F80
0700
0E00
0700
0700
1E00
ENDCHAR
STARTCHAR Scaron
ENCODING 352
SWIDTH 639 0
DWIDTH 17 0
BBX 16 23 2 0
BITMAP
038E
01F8
00F0
0000
01FE
07FF
0FFF
1F02
1F00
1F00
1F80
1FC0
1FF0
07F8
03FC
00FC
007E
007E
007C
607C
FFF8
FFF0
FF80
ENDCHAR
STARTCHAR scaron
ENCODING 353
SWIDTH 527 0
DWIDTH 14 0
BBX 14 18 1 0
BITMAP
071C
03F0
01E0
0000
03F8
0FF8
1FF0
1F00
1E00
1F00
0FC0
07E0
03E0
01F0
43F0
FFE0
FFC0
7F80
ENDCHAR
STARTCHAR Tcommaaccent
ENCODING 354
SWIDTH 747 0
DWIDTH 19 0
BBX 19 24 4 -5
BITMAP
FFFFE0
FFFFE0
FFFFE0
01F000
03E000
03E000
03E000
03E000
03E000
03C000
07C000
07C000
07C000
07C000
078000
0F8000
0F8000
0F8000
0F8000
01C000
038000
01C000
01C000
078000
ENDCHAR
STARTCHAR tcommaaccent
ENCODING 355
SWIDTH 437 0
DWIDTH 11 0
BBX 10 23 3 -5
BITMAP
0700
1F00
1F00
3F00
FFC0
FFC0
FFC0
3E00
7E00
7C00
7C00
7C00
7C00
F800
FC00
FF00
FF00
3F00
1C00
3800
1C00
1C00
7800
ENDCHAR
STARTCHAR Tcaron
ENCODING 356
SWIDTH 747 0
DWIDTH 19 0
BBX 19 23 4 0
BITMAP
071C00
03F000
01E000
000000
FFFFE0
FFFFE0
FFFFE0
01F000
03E000
03E000
03E000
03E000
03E000
03C000
07C000
07C000
07C000
07C000
078000
0F8000
0F8000
0F8000
0F8000
ENDCHAR
STARTCHAR tcaron
ENCODING 357
SWIDTH 680 0
DWIDTH 17 0
BBX 17 20 3 0
BITMAP
000F80
001F80
071F80
1F1F00
1F1F00
3F0700
FFCE00
FFFE00
FFF800
3E0000
7E0000
7C0000
7C0000
7C0000
7C0000
F80000
FC0000
FF0000
FF0000
3F0000
ENDCHAR
STARTCHAR Tbar
ENCODING 358
SWIDTH 747 0
DWIDTH 19 0
BBX 19 19 4 0
BITMAP
FFFFE0
FFFFE0
FFFFE0
01F000
03E000
03E000
03E000
03E000
07FC00
07FC00
07FC00
07C000
07C000
07C000
078000
0F8000
0F8000
0F8000
0F8000
ENDCHAR
STARTCHAR tbar
ENCODING 359
SWIDTH 437 0
DWIDTH 11 0
BBX 10 18 3 0
BITMAP
0700
1F00
1F00
3F00
FFC0
FFC0
FFC0
3E00
7E00
7FC0
7FC0
7FC0
7C00
F800
FC00
FF00
FF00
3F00
ENDCHAR
STARTCHAR Utilde
ENCODING 360
SWIDTH 759 0
DWIDTH 20 0
BBX 18 23 3 0
BITMAP
01EE00
03FC00
077800
000000
3E03C0
3E07C0
3E07C0
3E0780
3C0780
7C0780
7C0F80
7C0F80
7C0F00
7C0F00
F80F00
F80F00
F81F00
F81E00
F81E00
FC3C00
7FFC00
3FF000
0FE000
ENDCHAR
STARTCHAR utilde
ENCODING 361
SWIDTH 675 0
DWIDTH 18 0
BBX 16 18 2 0
BITMAP
03DC
07F8
0EF0
0000
3E1F
3E1F
3E3E
7C3E
7C3E
7C3E
7C7E
7CFC
F9BC
FB7C
FF7C
FE7C
FC78
78F8
ENDCHAR
STARTCHAR Umacron
ENCODING 362
SWIDTH 759 0
DWIDTH 20 0
BBX 18 23 3 0
BITMAP
07FC00
07FC00
07FC00
000000
3E03C0
3E07C0
3E07C0
3E0780
3C0780
7C0780
7C0F80
7C0F80
7C0F00
7C0F00
F80F00
F80F00
F81F00
F81E00
F81E00
FC3C00
7FFC00
3FF000
0FE000
ENDCHAR
STARTCHAR umacron
ENCODING 363
SWIDTH 675 0
DWIDTH 18 0
BBX 16 18 2 0
BITMAP
0FF8
0FF8
0FF8
0000
3E1F
3E1F
3E3E
7C3E
7C3E
7C3E
7C7E
7CFC
F9BC
FB7C
FF7C
FE7C
FC78
78F8
ENDCHAR
STARTCHAR Ubreve
ENCODING 364
SWIDTH 759 0
DWIDTH 20 0
BBX 18 23 3 0
BITMAP
038E00
03FC00
01F000
000000
3E03C0
3E07C0
3E07C0
3E0780
3C0780
7C0780
7C0F80
7C0F80
7C0F00
7C0F00
F80F00
F80F00
F81F00
F81E00
F81E00
FC3C00
7FFC00
3FF000
0FE000
ENDCHAR
STARTCHAR ubreve
ENCODING 365
SWIDTH 675 0
DWIDTH 18 0
BBX 16 18 2 0
BITMAP
071C
07F8
03E0
0000
3E1F
3E1F
3E3E
7C3E
7C3E
7C3E
7C7E
7CFC
F9BC
FB7C
FF7C
FE7C
FC78
78F8
ENDCHAR
STARTCHAR Uring
ENCODING 366
SWIDTH 759 0
DWIDTH 20 0
BBX 18 24 3 0
BITMAP
00C000
012000
012000
00C000
000000
3E03C0
3E07C0
3E07C0
3E0780
3C0780
7C0780
7C0F80
7C0F80
7C0F00
7C0F00
F80F00
F80F00
F81F00
F81E00
F81E00
FC3C00
7FFC00
3FF000
0FE000
ENDCHAR
STARTCHAR uring
ENCODING 367
SWIDTH 675 0
DWIDTH 18 0
BBX 16 19 2 0
BITMAP
0180
0240
0240
0180
0000
3E1F
3E1F
3E3E
7C3E
7C3E
7C3E
7C7E
7CFC
F9BC
FB7C
FF7C
FE7C
FC78
78F8
ENDCHAR
STARTCHAR Uhungarumlaut
ENCODING 368
SWIDTH 759 0
DWIDTH 20 0
BBX 18 23 3 0
BITMAP
00FF00
01DC00
077000
000000
3E03C0
3E07C0
3E07C0
3E0780
3C0780
7C0780
7C0F80
7C0F80
7C0F00
7C0F00
F80F00
F80F00
F81F00
F81E00
F81E00
FC3C00
7FFC00
3FF000
0FE000
ENDCHAR
STARTCHAR uhungarumlaut
ENCODING 369
SWIDTH 675 0
DWIDTH 18 0
BBX 16 18 2 0
BITMAP
01FE
03B8
0EE0
0000
3E1F
3E1F
3E3E
7C3E
7C3E
7C3E
7C7E
7CFC
F9BC
FB7C
FF7C
FE7C
FC78
78F8
ENDCHAR
STARTCHAR Uogonek
ENCODING 370
SWIDTH 759 0
DWIDTH 20 0
BBX 18 23 3 -4
BITMAP
3E03C0
3E07C0
3E07C0
3E0780
3C0780
7C0780
7C0F80
7C0F80
7C0F00
7C0F00
F80F00
F80F00
F81F00
F81E00
F81E00
FC3C00
7FFC00
3FF000
0FE000
000000
038000
070000
07C000
ENDCHAR
STARTCHAR uogonek
ENCODING 371
SWIDTH 675 0
DWIDTH 18 0
BBX 16 18 2 -4
BITMAP
3E1F
3E1F
3E3E
7C3E
7C3E
7C3E
7C7E
7CFC
F9BC
FB7C
FF7C
FE7C
FC78
78F8
0000
0380
0700
07C0
ENDCHAR
STARTCHAR Wcircumflex
ENCODING 372
SWIDTH 991 0
DWIDTH 26 0
BBX 24 23 4 0
BITMAP
003C00
007E00
01C700
000000
F83C0F
F83C0E
F87C1E
F87C1C
F87C3C
F8FC38
F8FE78
F9FE70
F9FE70
FBFEF0
FBBEE0
7BBFE0
7F3FC0
7F3FC0
7E3F80
7E3F80
7E3F00
7C3F00
7C3E00
ENDCHAR
STARTCHAR wcircumflex
ENCODING 373
SWIDTH 878 0
DWIDTH 23 0
BBX 22 18 3 0
BITMAP
007800
00FC00
038E00
000000
F07C3C
F07C38
F0FC78
F8FC70
F9FCF0
F9FCE0
FBBDE0
FBBDC0
FF3FC0
FF3F80
FE3F80
FE3F00
7C3F00
7C3E00
ENDCHAR
STARTCHAR Ycircumflex
ENCODING 374
SWIDTH 681 0
DWIDTH 18 0
BBX 17 23 4 0
BITMAP
03C000
07E000
1C7000
000000
F80780
7C0F00
7C1E00
7C3C00
3E3800
3E7800
3EF000
1FE000
1FC000
1FC000
0F8000
0F8000
1F8000
1F0000
1F0000
1F0000
1F0000
3F0000
3E0000
ENDCHAR
STARTCHAR ycircumflex
ENCODING 375
SWIDTH 633 0
DWIDTH 16 0
BBX 18 23 1 -5
BITMAP
00F000
01F800
071C00
000000
3E03C0
3E0780
1F0700
1F0F00
1F1E00
1F1C00
1F3C00
1FF800
0FF000
0FF000
0FE000
0FC000
0FC000
078000
0F0000
1F0000
3E0000
7C0000
FC0000
ENDCHAR
STARTCHAR Ydieresis
ENCODING 376
SWIDTH 681 0
DWIDTH 18 0
BBX 17 23 4 0
BITMAP
039C00
071C00
073800
000000
F80780
7C0F00
7C1E00
7C3C00
3E3800
3E7800
3EF000
1FE000
1FC000
1FC000
0F8000
0F8000
1F8000
1F0000
1F0000
1F0000
1F0000
3F0000
3E0000
ENDCHAR
STARTCHAR Zacute
ENCODING 377
SWIDTH 687 0
DWIDTH 18 0
BBX 18 23 2 0
BITMAP
001F00
003800
00F000
000000
0FFFC0
0FFFC0
0FFFC0
001F80
003F00
007E00
00FE00
00FC00
01F800
03F000
07E000
0FC000
1FC000
1F8000
3F0000
7E0000
7FFE00
FFFE00
FFFE00
ENDCHAR
STARTCHAR zacute
ENCODING 378
SWIDTH 630 0
DWIDTH 16 0
BBX 16 18 1 0
BITMAP
007C
00E0
03C0
0000
1FFF
1FFF
1FFE
007E
00FC
01F0
03E0
07C0
0F80
3F00
7E00
7FFC
FFFC
FFFC
ENDCHAR
STARTCHAR Zdotaccent
ENCODING 379
SWIDTH 687 0
DWIDTH 18 0
BBX 18 23 2 0
BITMAP
003800
007800
007000
000000
0FFFC0
0FFFC0
0FFFC0
001F80
003F00
007E00
00FE00
00FC00
01F800
03F000
07E000
0FC000
1FC000
1F8000
3F0000
7E0000
7FFE00
FFFE00
FFFE00
ENDCHAR
STARTCHAR zdotaccent
ENCODING 380
SWIDTH 630 0
DWIDTH 16 0
BBX 16 18 1 0
BITMAP
00E0
01E0
01C0
0000
1FFF
1FFF
1FFE
007E
00FC
01F0
03E0
07C0
0F80
3F00
7E00
7FFC
FFFC
FFFC
ENDCHAR
STARTCHAR Zcaron
ENCODING 381
SWIDTH 687 0
DWIDTH 18 0
BBX 18 23 2 0
BITMAP
01C700
00FC00
007800
000000
0FFFC0
0FFFC0
0FFFC0
001F80
003F00
007E00
00FE00
00FC00
01F800
03F000
07E000
0FC000
1FC000
1F8000
3F0000
7E0000
7FFE00
FFFE00
FFFE00
ENDCHAR
STARTCHAR zcaron
ENCODING 382
SWIDTH 630 0
DWIDTH 16 0
BBX 16 18 1 0
BITMAP
01C7
00FC
0078
0000
1FFF
1FFF
1FFE
007E
00FC
01F0
03E0
07C0
0F80
3F00
7E00
7FFC
FFFC
FFFC
ENDCHAR
STARTCHAR uni0186
ENCODING 390
SWIDTH 737 0
DWIDTH 19 0
BBX 19 19 2 0
BITMAP
03FC00
1FFF80
1FFFC0
181FC0
0007E0
0007E0
0003E0
0003E0
0003E0
0003E0
0007C0
0007C0
000F80
001F80
003F00
407E00
FFFC00
FFF000
7FC000
ENDCHAR
STARTCHAR uni0189
ENCODING 393
SWIDTH 822 0
DWIDTH 21 0
BBX 21 19 1 0
BITMAP
0FFF80
0FFFE0
0FFFF0
0F83F8
0F81F8
1F00F8
1F00F8
1F00F8
FFF0F8
FFE1F8
FFE1F0
3E01F0
3E03F0
3E07E0
3E0FE0
3E1FC0
7FFF80
7FFE00
7FF800
ENDCHAR
STARTCHAR uni018E
ENCODING 398
SWIDTH 642 0
DWIDTH 17 0
BBX 17 19 2 0
BITMAP
1FFF80
1FFF80
1FFF00
001F00
001F00
001F00
003F00
003E00
0FFE00
1FFE00
1FFE00
007E00
007C00
007C00
007C00
007C00
7FFC00
FFF800
FFF800
ENDCHAR
STARTCHAR florin
ENCODING 402
SWIDTH 687 0
DWIDTH 18 0
BBX 15 23 5 -4
BITMAP
00FE
03FE
07FE
07C6
0F80
0F80
1F00
1F00
7FE0
7FC0
7FC0
3E00
3E00
3E00
3E00
3E00
7C00
7C00
7C00
7C00
7C00
F800
F800
ENDCHAR
STARTCHAR uni0197
ENCODING 407
SWIDTH 361 0
DWIDTH 9 0
BBX 9 19 2 0
BITMAP
0F80
0F80
1F00
1F00
1F00
1F00
1F00
3E00
FF80
FF80
FF80
3E00
7C00
7C00
7C00
7C00
7C00
F800
F800
ENDCHAR
STARTCHAR uni019A
ENCODING 410
SWIDTH 343 0
DWIDTH 9 0
BBX 9 20 2 0
BITMAP
0F80
0F80
1F80
1F00
1F00
1F00
1F00
3F00
FF80
FF80
FF80
3E00
7E00
7C00
7C00
7C00
7C00
FC00
F800
F800
ENDCHAR
STARTCHAR uni019D
ENCODING 413
SWIDTH 789 0
DWIDTH 20 0
BBX 26 24 -4 -5
BITMAP
003C03C0
007E03C0
007E03C0
007F0780
007F0780
007F8780
00FF8780
00FFC780
00F7CF00
00F7EF00
00F3EF00
01E3FF00
01E1FF00
01F1FE00
01F07E00
01F07E00
03F07E00
03E07E00
03E03C00
03E00000
C7C00000
FF800000
FF000000
7C000000
ENDCHAR
STARTCHAR uni019F
ENCODING 415
SWIDTH 855 0
DWIDTH 22 0
BBX 21 19 3 0
BITMAP
007F00
01FFC0
07FFE0
0FC3F0
1F01F8
3E01F8
3E01F8
7C01F8
FFFFF8
FFFFF8
FFFFF8
F801F0
F803E0
FC07E0
FC07C0
7E1F80
3FFF00
1FFC00
07F000
ENDCHAR
STARTCHAR Ohorn
ENCODING 416
SWIDTH 855 0
DWIDTH 22 0
BBX 26 19 3 0
BITMAP
007F07C0
01FFCFC0
07FFEFC0
0FC3FF80
1F01FF80
3E01FB80
3E01FF00
7C01FF00
7C01FC00
FC01F800
F801F000
F801F000
F803E000
FC07E000
FC07C000
7E1F8000
3FFF0000
1FFC0000
07F00000
ENDCHAR
STARTCHAR ohorn
ENCODING 417
SWIDTH 663 0
DWIDTH 17 0
BBX 22 14 2 0
BITMAP
01F87C
07FEFC
1FFFFC
3E3FF8
3C1FF8
7C1F38
781F70
F81FF0
F83FC0
F83C00
FC7C00
FFF800
7FE000
1F8000
ENDCHAR
STARTCHAR Uhorn
ENCODING 431
SWIDTH 759 0
DWIDTH 20 0
BBX 23 19 3 0
BITMAP
3E03FE
3E07FE
3E07FE
3E07FC
3C07FC
7C079C
7C0FB8
7C0FF8
7C0FE0
7C0F00
F80F00
F80F00
F81F00
F81E00
F81E00
FC3C00
7FFC00
3FF000
0FE000
ENDCHAR
STARTCHAR uhorn
ENCODING 432
SWIDTH 675 0
DWIDTH 18 0
BBX 22 14 2 0
BITMAP
3E1F7C
3E1FFC
3E3EFC
7C3EF8
7C3EF8
7C3E38
7C7E70
7CFDF0
F9BDC0
FB7C00
FF7C00
FE7C00
FC7800
78F800
ENDCHAR
STARTCHAR uni01B5
ENCODING 437
SWIDTH 687 0
DWIDTH 18 0
BBX 18 19 2 0
BITMAP
0FFFC0
0FFFC0
0FFFC0
001F80
003F00
007E00
00FE00
00FC00
07FC00
07FC00
07FC00
0FC000
1FC000
1F8000
3F0000
7E0000
7FFE00
FFFE00
FFFE00
ENDCHAR
STARTCHAR uni01B6
ENCODING 438
SWIDTH 630 0
DWIDTH 16 0
BBX 16 14 1 0
BITMAP
1FFF
1FFF
1FFE
007E
00FC
0FF8
0FF8
0FF8
0F80
3F00
7E00
7FFC
FFFC
FFFC
ENDCHAR
STARTCHAR uni01BB
ENCODING 443
SWIDTH 687 0
DWIDTH 18 0
BBX 17 19 2 0
BITMAP
03FC00
0FFF00
0FFF00
181F80
000F80
000F80
001F80
001F00
FFFF80
FFFF80
FFFF80
07E000
0F8000
1F0000
3E0000
7C0000
7FFE00
FFFC00
FFFC00
ENDCHAR
STARTCHAR uni01BC
ENCODING 444
SWIDTH 687 0
DWIDTH 18 0
BBX 16 19 3 0
BITMAP
0FFF
0FFF
1FFE
1C00
1C00
1800
1F80
3FE0
3FF0
03F8
00FC
00FC
007C
007C
00FC
41F8
FFF0
FFE0
FF80
ENDCHAR
STARTCHAR uni01C0
ENCODING 448
SWIDTH 259 0
DWIDTH 7 0
BBX 8 24 1 -4
BITMAP
07
07
06
0E
0E
0E
0E
0C
1C
1C
1C
1C
38
38
38
38
30
70
70
70
70
60
E0
E0
ENDCHAR
STARTCHAR uni01C2
ENCODING 450
SWIDTH 687 0
DWIDTH 18 0
BBX 17 24 2 -4
BITMAP
003800
003800
003000
007000
007000
007000
007000
006000
3FFF80
7FFF80
7FFF00
00E000
01C000
01C000
7FFF00
FFFF00
FFFE00
038000
038000
038000
038000
030000
070000
070000
ENDCHAR
STARTCHAR uni01C3
ENCODING 451
SWIDTH 343 0
DWIDTH 9 0
BBX 9 19 2 0
BITMAP
0F80
0F80
1F80
1F00
1F00
1F00
1E00
1E00
1E00
3E00
3C00
3C00
3C00
0000
0000
0000
7C00
FC00
F800
ENDCHAR
STARTCHAR uni01CD
ENCODING 461
SWIDTH 771 0
DWIDTH 20 0
BBX 19 23 0 0
BITMAP
01C700
00FC00
007800
000000
003E00
007F00
007F00
00FF00
00FF00
01EF00
01CF80
03CF80
038F80
078F80
070780
0FFFC0
1FFFC0
1FFFC0
3C07C0
3803C0
7803E0
7003E0
F003E0
ENDCHAR
STARTCHAR uni01CE
ENCODING 462
SWIDTH 681 0
DWIDTH 18 0
BBX 16 18 2 0
BITMAP
071C
03F0
01E0
0000
01FF
07FF
0FFF
1F1E
3E3E
7C3E
7C7E
787E
F8BC
F9BC
FF7C
FE7C
FC7C
78F8
ENDCHAR
STARTCHAR uni01CF
ENCODING 463
SWIDTH 361 0
DWIDTH 9 0
BBX 10 23 2 0
BITMAP
71C0
3F00
1E00
0000
0F80
0F80
1F00
1F00
1F00
1F00
1F00
3E00
3E00
3E00
3E00
3E00
7C00
7C00
7C00
7C00
7C00
F800
F800
ENDCHAR
STARTCHAR uni01D0
ENCODING 464
SWIDTH 343 0
DWIDTH 9 0
BBX 10 18 2 0
BITMAP
71C0
3F00
1E00
0000
1F00
1F00
3E00
3E00
3E00
3E00
3E00
7C00
7C00
7C00
7C00
7C00
F800
F800
ENDCHAR
STARTCHAR uni01D1
ENCODING 465
SWIDTH 855 0
DWIDTH 22 0
BBX 21 23 3 0
BITMAP
01C700
00FC00
007800
000000
007F00
01FFC0
07FFE0
0FC3F0
1F01F8
3E01F8
3E01F8
7C01F8
7C01F8
FC01F8
F801F0
F801F0
F803E0
FC07E0
FC07C0
7E1F80
3FFF00
1FFC00
07F000
ENDCHAR
STARTCHAR uni01D2
ENCODING 466
SWIDTH 663 0
DWIDTH 17 0
BBX 16 18 2 0
BITMAP
071C
03F0
01E0
0000
01F8
07FE
1FFF
3E3F
3C1F
7C1F
781F
F81E
F83E
F83C
FC7C
FFF8
7FE0
1F80
ENDCHAR
STARTCHAR uni01D3
ENCODING 467
SWIDTH 759 0
DWIDTH 20 0
BBX 18 23 3 0
BITMAP
071C00
03F000
01E000
000000
3E03C0
3E07C0
3E07C0
3E0780
3C0780
7C0780
7C0F80
7C0F80
7C0F00
7C0F00
F80F00
F80F00
F81F00
F81E00
F81E00
FC3C00
7FFC00
3FF000
0FE000
ENDCHAR
STARTCHAR uni01D4
ENCODING 468
SWIDTH 675 0
DWIDTH 18 0
BBX 16 18 2 0
BITMAP
0E38
07E0
03C0
0000
3E1F
3E1F
3E3E
7C3E
7C3E
7C3E
7C7E
7CFC
F9BC
FB7C
FF7C
FE7C
FC78
78F8
ENDCHAR
STARTCHAR uni01D5
ENCODING 469
SWIDTH 759 0
DWIDTH 20 0
BBX 18 27 3 0
BITMAP
07FC00
07FC00
07FC00
000000
01CE00
038E00
039C00
000000
3E03C0
3E07C0
3E07C0
3E0780
3C0780
7C0780
7C0F80
7C0F80
7C0F00
7C0F00
F80F00
F80F00
F81F00
F81E00
F81E00
FC3C00
7FFC00
3FF000
0FE000
ENDCHAR
STARTCHAR uni01D6
ENCODING 470
SWIDTH 675 0
DWIDTH 18 0
BBX 16 22 2 0
BITMAP
07FC
07FC
07FC
0000
01CE
038E
039C
0000
3E1F
3E1F
3E3E
7C3E
7C3E
7C3E
7C7E
7CFC
F9BC
FB7C
FF7C
FE7C
FC78
78F8
ENDCHAR
STARTCHAR uni01D7
ENCODING 471
SWIDTH 759 0
DWIDTH 20 0
BBX 18 27 3 0
BITMAP
003E00
007000
01E000
000000
01CE00
038E00
039C00
000000
3E03C0
3E07C0
3E07C0
3E0780
3C0780
7C0780
7C0F80
7C0F80
7C0F00
7C0F00
F80F00
F80F00
F81F00
F81E00
F81E00
FC3C00
7FFC00
3FF000
0FE000
ENDCHAR
STARTCHAR uni01D8
ENCODING 472
SWIDTH 675 0
DWIDTH 18 0
BBX 16 22 2 0
BITMAP
003E
0070
01E0
0000
01CE
038E
039C
0000
3E1F
3E1F
3E3E
7C3E
7C3E
7C3E
7C7E
7CFC
F9BC
FB7C
FF7C
FE7C
FC78
78F8
ENDCHAR
STARTCHAR uni01D9
ENCODING 473
SWIDTH 759 0
DWIDTH 20 0
BBX 18 27 3 0
BITMAP
038E00
01F800
00F000
000000
01CE00
038E00
039C00
000000
3E03C0
3E07C0
3E07C0
3E0780
3C0780
7C0780
7C0F80
7C0F80
7C0F00
7C0F00
F80F00
F80F00
F81F00
F81E00
F81E00
FC3C00
7FFC00
3FF000
0FE000
ENDCHAR
STARTCHAR uni01DA
ENCODING 474
SWIDTH 675 0
DWIDTH 18 0
BBX 16 22 2 0
BITMAP
071C
03F0
01E0
0000
01CE
038E
039C
0000
3E1F
3E1F
3E3E
7C3E
7C3E
7C3E
7C7E
7CFC
F9BC
FB7C
FF7C
FE7C
FC78
78F8
ENDCHAR
STARTCHAR uni01DB
ENCODING 475
SWIDTH 759 0
DWIDTH 20 0
BBX 18 27 3 0
BITMAP
03C000
00E000
007000
000000
01CE00
038E00
039C00
000000
3E03C0
3E07C0
3E07C0
3E0780
3C0780
7C0780
7C0F80
7C0F80
7C0F00
7C0F00
F80F00
F80F00
F81F00
F81E00
F81E00
FC3C00
7FFC00
3FF000
0FE000
ENDCHAR
STARTCHAR uni01DC
ENCODING 476
SWIDTH 675 0
DWIDTH 18 0
BBX 16 22 2 0
BITMAP
0780
01C0
00E0
0000
01CE
038E
039C
0000
3E1F
3E1F
3E3E
7C3E
7C3E
7C3E
7C7E
7CFC
F9BC
FB7C
FF7C
FE7C
FC78
78F8
ENDCHAR
STARTCHAR uni01DD
ENCODING 477
SWIDTH 612 0
DWIDTH 16 0
BBX 14 14 2 0
BITMAP
0FE0
7FF8
FFFC
E0FC
807C
07FC
1FFC
3FF8
7CF8
F8F0
F9F0
FFE0
7F80
3E00
ENDCHAR
STARTCHAR uni01DE
ENCODING 478
SWIDTH 771 0
DWIDTH 20 0
BBX 19 27 0 0
BITMAP
01FF00
01FF00
01FF00
000000
0039C0
0071C0
007380
000000
003E00
007F00
007F00
00FF00
00FF00
01EF00
01CF80
03CF80
038F80
078F80
070780
0FFFC0
1FFFC0
1FFFC0
3C07C0
3803C0
7803E0
7003E0
F003E0
ENDCHAR
STARTCHAR uni01DF
ENCODING 479
SWIDTH 681 0
DWIDTH 18 0
BBX 16 22 2 0
BITMAP
07FC
07FC
07FC
0000
01CE
038E
039C
0000
01FF
07FF
0FFF
1F1E
3E3E
7C3E
7C7E
787E
F8BC
F9BC
FF7C
FE7C
FC7C
78F8
ENDCHAR
STARTCHAR uni01E0
ENCODING 480
SWIDTH 771 0
DWIDTH 20 0
BBX 19 27 0 0
BITMAP
01FF00
01FF00
01FF00
000000
001C00
003C00
003800
000000
003E00
007F00
007F00
00FF00
00FF00
01EF00
01CF80
03CF80
038F80
078F80
070780
0FFFC0
1FFFC0
1FFFC0
3C07C0
3803C0
7803E0
7003E0
F003E0
ENDCHAR
STARTCHAR uni01E1
ENCODING 481
SWIDTH 681 0
DWIDTH 18 0
BBX 16 22 2 0
BITMAP
07FC
07FC
07FC
0000
0070
00F0
00E0
0000
01FF
07FF
0FFF
1F1E
3E3E
7C3E
7C7E
787E
F8BC
F9BC
FF7C
FE7C
FC7C
78F8
ENDCHAR
STARTCHAR uni01E2
ENCODING 482
SWIDTH 1004 0
DWIDTH 26 0
BBX 28 23 0 0
BITMAP
0007FC00
0007FC00
0007FC00
00000000
0003FFF0
0003FFF0
0007FFE0
000FF000
001FE000
001FE000
003FE000
007BE000
00F3FF80
00E7FF80
01E7FF00
03C7C000
07FFC000
0FFFC000
0FFF8000
1E0F8000
3C0FFFC0
780FFF80
F01FFF80
ENDCHAR
STARTCHAR uni01E3
ENCODING 483
SWIDTH 987 0
DWIDTH 26 0
BBX 24 18 2 0
BITMAP
007FC0
007FC0
007FC0
000000
01FFFC
07FFFE
0FFFFF
1F1F9F
3E1F1F
3C3E3E
7C3FFC
787FF8
F8FFE0
F9BE01
FF3F07
FF3FFF
7E1FFE
380FF0
ENDCHAR
STARTCHAR uni01E4
ENCODING 484
SWIDTH 755 0
DWIDTH 20 0
BBX 21 19 2 0
BITMAP
007FC0
01FFE0
07FFE0
0FC040
1F8000
3F0000
3E0000
7C0000
7C0000
F80000
F80F80
F80F80
F80FF8
FC0FF8
FC0FF8
7F1F00
7FFF00
3FFF00
07FC00
ENDCHAR
STARTCHAR uni01E5
ENCODING 485
SWIDTH 674 0
DWIDTH 17 0
BBX 17 19 1 -5
BITMAP
00FF80
03FF80
07FF80
0F1F00
1E1F00
3E1F00
3C3F00
7C7F00
7CDE00
7DDE00
7FBE00
7F3E00
FFFF80
FFFF80
FFFF80
E0FC00
FFF800
7FF000
7F8000
ENDCHAR
STARTCHAR Gcaron
ENCODING 486
SWIDTH 755 0
DWIDTH 20 0
BBX 19 23 2 0
BITMAP
01C700
00FC00
007800
000000
007FC0
01FFE0
07FFE0
0FC040
1F8000
3F0000
3E0000
7C0000
7C0000
F80000
F80F80
F80F80
F80F80
FC0F00
FC0F00
7F1F00
7FFF00
3FFF00
07FC00
ENDCHAR
STARTCHAR gcaron
ENCODING 487
SWIDTH 674 0
DWIDTH 17 0
BBX 17 23 1 -5
BITMAP
038E00
01F800
00F000
000000
00FF80
03FF80
07FF80
0F1F00
1E1F00
3E1F00
3C3F00
7C7F00
7CDE00
7DDE00
7FBE00
7F3E00
7E3E00
3C7C00
807C00
E0FC00
FFF800
7FF000
7F8000
ENDCHAR
STARTCHAR uni01E8
ENCODING 488
SWIDTH 753 0
DWIDTH 20 0
BBX 18 23 2 0
BITMAP
071C00
03F000
01E000
000000
0F83C0
1F8780
1F0F00
1F1E00
1F1C00
1F3C00
3F7800
3EF000
3EE000
3FF000
3FF800
7EF800
7CFC00
7C7C00
7C7E00
7C3E00
FC3F00
F81F80
F81F80
ENDCHAR
STARTCHAR uni01E9
ENCODING 489
SWIDTH 666 0
DWIDTH 17 0
BBX 17 24 2 0
BITMAP
1C7000
0FC000
078000
000000
0F8000
0F8000
0F8000
1F0000
1F0000
1F0000
1F0780
1F0F00
3E1E00
3E3C00
3E7800
3EF000
3FF000
7DF000
7CF800
7CF800
7CFC00
7C7C00
F87E00
F83E00
ENDCHAR
STARTCHAR uni01EA
ENCODING 490
SWIDTH 855 0
DWIDTH 22 0
BBX 21 23 3 -4
BITMAP
007F00
01FFC0
07FFE0
0FC3F0
1F01F8
3E01F8
3E01F8
7C01F8
7C01F8
FC01F8
F801F0
F801F0
F803E0
FC07E0
FC07C0
7E1F80
3FFF00
1FFC00
07F000
000000
00E000
01C000
01F000
ENDCHAR
STARTCHAR uni01EB
ENCODING 491
SWIDTH 663 0
DWIDTH 17 0
BBX 16 18 2 -4
BITMAP
01F8
07FE
1FFF
3E3F
3C1F
7C1F
781F
F81E
F83E
F83C
FC7C
FFF8
7FE0
1F80
0000
0700
0E00
0F80
ENDCHAR
STARTCHAR uni01EC
ENCODING 492
SWIDTH 855 0
DWIDTH 22 0
BBX 21 27 3 -4
BITMAP
01FF00
01FF00
01FF00
000000
007F00
01FFC0
07FFE0
0FC3F0
1F01F8
3E01F8
3E01F8
7C01F8
7C01F8
FC01F8
F801F0
F801F0
F803E0
FC07E0
FC07C0
7E1F80
3FFF00
1FFC00
07F000
000000
00E000
01C000
01F000
ENDCHAR
STARTCHAR uni01ED
ENCODING 493
SWIDTH 663 0
DWIDTH 17 0
BBX 16 22 2 -4
BITMAP
07FC
07FC
07FC
0000
01F8
07FE
1FFF
3E3F
3C1F
7C1F
781F
F81E
F83E
F83C
FC7C
FFF8
7FE0
1F80
0000
0700
0E00
0F80
ENDCHAR
STARTCHAR uni01F0
ENCODING 496
SWIDTH 407 0
DWIDTH 11 0
BBX 15 23 -1 -5
BITMAP
038E
01F8
00F0
0000
007C
007C
00F8
00F8
00F8
00F8
01F8
01F0
01F0
01F0
01F0
03F0
03E0
03E0
03E0
C7C0
FF80
FF00
7C00
ENDCHAR
STARTCHAR uni01F4
ENCODING 500
SWIDTH 755 0
DWIDTH 20 0
BBX 19 23 2 0
BITMAP
001F00
003800
00F000
000000
007FC0
01FFE0
07FFE0
0FC040
1F8000
3F0000
3E0000
7C0000
7C0000
F80000
F80F80
F80F80
F80F80
FC0F00
FC0F00
7F1F00
7FFF00
3FFF00
07FC00
ENDCHAR
STARTCHAR uni01F5
ENCODING 501
SWIDTH 674 0
DWIDTH 17 0
BBX 17 23 1 -5
BITMAP
001F00
003800
00F000
000000
00FF80
03FF80
07FF80
0F1F00
1E1F00
3E1F00
3C3F00
7C7F00
7CDE00
7DDE00
7FBE00
7F3E00
7E3E00
3C7C00
807C00
E0FC00
FFF800
7FF000
7F8000
ENDCHAR
STARTCHAR uni01F8
ENCODING 504
SWIDTH 789 0
DWIDTH 20 0
BBX 20 23 2 0
BITMAP
01E000
007000
003800
000000
0F00F0
1F80F0
1F80F0
1FC1E0
1FC1E0
1FE1E0
3FE1E0
3FF1E0
3DF3C0
3DFBC0
3CFBC0
78FFC0
787FC0
787F80
783F80
783F80
F01F80
F01F80
F00F00
ENDCHAR
STARTCHAR uni01F9
ENCODING 505
SWIDTH 675 0
DWIDTH 18 0
BBX 16 18 2 0
BITMAP
0780
01C0
00E0
0000
1F1E
1E3F
3E7F
3EFF
3EDF
3D9F
3F3E
7E3E
7C3E
7C3E
7C3E
787C
F87C
F87C
ENDCHAR
STARTCHAR Aringacute
ENCODING 506
SWIDTH 771 0
DWIDTH 20 0
BBX 19 28 0 0
BITMAP
000F80
001C00
007800
000000
000600
000900
000900
000600
000000
003E00
007F00
007F00
00FF00
00FF00
01EF00
01CF80
03CF80
038F80
078F80
070780
0FFFC0
1FFFC0
1FFFC0
3C07C0
3803C0
7803E0
7003E0
F003E0
ENDCHAR
STARTCHAR aringacute
ENCODING 507
SWIDTH 681 0
DWIDTH 18 0
BBX 16 23 2 0
BITMAP
003E
0070
01E0
0000
0030
0048
0048
0030
0000
01FF
07FF
0FFF
1F1E
3E3E
7C3E
7C7E
787E
F8BC
F9BC
FF7C
FE7C
FC7C
78F8
ENDCHAR
STARTCHAR AEacute
ENCODING 508
SWIDTH 1004 0
DWIDTH 26 0
BBX 28 23 0 0
BITMAP
00003E00
00007000
0001E000
00000000
0003FFF0
0003FFF0
0007FFE0
000FF000
001FE000
001FE000
003FE000
007BE000
00F3FF80
00E7FF80
01E7FF00
03C7C000
07FFC000
0FFFC000
0FFF8000
1E0F8000
3C0FFFC0
780FFF80
F01FFF80
ENDCHAR
STARTCHAR aeacute
ENCODING 509
SWIDTH 987 0
DWIDTH 26 0
BBX 24 18 2 0
BITMAP
0003E0
000700
001E00
000000
01FFFC
07FFFE
0FFFFF
1F1F9F
3E1F1F
3C3E3E
7C3FFC
787FF8
F8FFE0
F9BE01
FF3F07
FF3FFF
7E1FFE
380FF0
ENDCHAR
STARTCHAR Oslashacute
ENCODING 510
SWIDTH 855 0
DWIDTH 22 0
BBX 24 23 4 0
BITMAP
0003E0
000700
001E00
000000
003F9F
00FFFE
03FFFC
07E1F8
0F81FC
1F03FC
1F07FC
3E0FFC
3E1EFC
7E3CFC
7C78F8
7CF0F8
7DE1F0
7FC3F0
7F83E0
3F0FC0
3FFF80
7FFE00
FBF800
ENDCHAR
STARTCHAR oslashacute
ENCODING 511
SWIDTH 663 0
DWIDTH 17 0
BBX 18 18 3 0
BITMAP
001F00
003800
00F000
000000
00FFC0
03FF00
0FFF80
1F3F80
1E7F80
3EFF80
3DEF80
7FCF00
7F9F00
7F1E00
7E3E00
7FFC00
7FF000
FFC000
ENDCHAR
STARTCHAR Scommaaccent
ENCODING 536
SWIDTH 639 0
DWIDTH 17 0
BBX 16 29 2 -10
BITMAP
01FE
07FF
0FFF
1F02
1F00
1F00
1F80
1FC0
1FF0
07F8
03FC
00FC
007E
007E
007C
607C
FFF8
FFF0
FF80
0000
07C0
0FC0
0FC0
0F80
0F80
0380
0700
1F00
1C00
ENDCHAR
STARTCHAR scommaaccent
ENCODING 537
SWIDTH 527 0
DWIDTH 14 0
BBX 13 24 1 -10
BITMAP
03F8
0FF8
1FF0
1F00
1E00
1F00
0FC0
07E0
03E0
01F0
43F0
FFE0
FFC0
7F80
0000
0F80
1F80
1F80
1F00
1F00
0700
0E00
3E00
3800
ENDCHAR
STARTCHAR Tcommaaccent
ENCODING 538
SWIDTH 747 0
DWIDTH 19 0
BBX 19 29 4 -10
BITMAP
FFFFE0
FFFFE0
FFFFE0
01F000
03E000
03E000
03E000
03E000
03E000
03C000
07C000
07C000
07C000
07C000
078000
0F8000
0F8000
0F8000
0F8000
000000
03E000
07E000
07E000
07C000
07C000
01C000
038000
0F8000
0E0000
ENDCHAR
STARTCHAR tcommaaccent
ENCODING 539
SWIDTH 437 0
DWIDTH 11 0
BBX 10 28 3 -10
BITMAP
0700
1F00
1F00
3F00
FFC0
FFC0
FFC0
3E00
7E00
7C00
7C00
7C00
7C00
F800
FC00
FF00
FF00
3F00
0000
3E00
7E00
7E00
7C00
7C00
1C00
3800
F800
E000
ENDCHAR
STARTCHAR uni021E
ENCODING 542
SWIDTH 813 0
DWIDTH 21 0
BBX 20 23 2 0
BITMAP
01C700
00FC00
007800
000000
0F81F0
1F01F0
1F01F0
1F03E0
1F03E0
1F03E0
3E03E0
3E03E0
3FFFC0
3FFFC0
3FFFC0
7C07C0
7C07C0
7C0780
7C0F80
7C0F80
F80F80
F80F80
F81F00
ENDCHAR
STARTCHAR uni021F
ENCODING 543
SWIDTH 675 0
DWIDTH 18 0
BBX 16 24 2 0
BITMAP
38E0
1F80
0F00
0000
0F80
0F80
1F80
1F00
1F00
1F00
1F1E
3E3F
3E7F
3EFF
3EDF
3D9F
7F3E
7E3E
7C3E
7C3E
7C3E
FC7C
F87C
F87C
ENDCHAR
STARTCHAR uni0226
ENCODING 550
SWIDTH 771 0
DWIDTH 20 0
BBX 19 23 0 0
BITMAP
001C00
003C00
003800
000000
003E00
007F00
007F00
00FF00
00FF00
01EF00
01CF80
03CF80
038F80
078F80
070780
0FFFC0
1FFFC0
1FFFC0
3C07C0
3803C0
7803E0
7003E0
F003E0
ENDCHAR
STARTCHAR uni0227
ENCODING 551
SWIDTH 681 0
DWIDTH 18 0
BBX 16 18 2 0
BITMAP
0070
00F0
00E0
0000
01FF
07FF
0FFF
1F1E
3E3E
7C3E
7C7E
787E
F8BC
F9BC
FF7C
FE7C
FC7C
78F8
ENDCHAR
STARTCHAR uni0228
ENCODING 552
SWIDTH 642 0
DWIDTH 17 0
BBX 17 24 2 -5
BITMAP
0FFF80
0FFF80
1FFF00
1F0000
1F0000
1F0000
1F0000
3F0000
3FFC00
3FFC00
3FF800
3E0000
7E0000
7C0000
7C0000
7C0000
7FFC00
FFFC00
FFFC00
038000
070000
038000
038000
0F0000
ENDCHAR
STARTCHAR uni0229
ENCODING 553
SWIDTH 612 0
DWIDTH 16 0
BBX 14 19 2 -5
BITMAP
01F0
07F8
1FFC
3E7C
3C7C
7CF8
7FF0
FFE0
FF80
F804
FC1C
FFFC
7FF8
1FC0
0380
0700
0380
0380
0F00
ENDCHAR
STARTCHAR uni022A
ENCODING 554
SWIDTH 855 0
DWIDTH 22 0
BBX 21 27 3 0
BITMAP
01FF00
01FF00
01FF00
000000
007380
00E380
00E700
000000
007F00
01FFC0
07FFE0
0FC3F0
1F01F8
3E01F8
3E01F8
7C01F8
7C01F8
FC01F8
F801F0
F801F0
F803E0
FC07E0
FC07C0
7E1F80
3FFF00
1FFC00
07F000
ENDCHAR
STARTCHAR uni022B
ENCODING 555
SWIDTH 663 0
DWIDTH 17 0
BBX 16 22 2 0
BITMAP
07FC
07FC
07FC
0000
01CE
038E
039C
0000
01F8
07FE
1FFF
3E3F
3C1F
7C1F
781F
F81E
F83E
F83C
FC7C
FFF8
7FE0
1F80
ENDCHAR
STARTCHAR uni022C
ENCODING 556
SWIDTH 855 0
DWIDTH 22 0
BBX 21 27 3 0
BITMAP
00FF80
00FF80
00FF80
000000
003DC0
007F80
00EF00
000000
007F00
01FFC0
07FFE0
0FC3F0
1F01F8
3E01F8
3E01F8
7C01F8
7C01F8
FC01F8
F801F0
F801F0
F803E0
FC07E0
FC07C0
7E1F80
3FFF00
1FFC00
07F000
ENDCHAR
STARTCHAR uni022D
ENCODING 557
SWIDTH 663 0
DWIDTH 17 0
BBX 16 22 2 0
BITMAP
07FC
07FC
07FC
0000
00F7
01FE
03BC
0000
01F8
07FE
1FFF
3E3F
3C1F
7C1F
781F
F81E
F83E
F83C
FC7C
FFF8
7FE0
1F80
ENDCHAR
STARTCHAR uni022E
ENCODING 558
SWIDTH 855 0
DWIDTH 22 0
BBX 21 23 3 0
BITMAP
001C00
003C00
003800
000000
007F00
01FFC0
07FFE0
0FC3F0
1F01F8
3E01F8
3E01F8
7C01F8
7C01F8
FC01F8
F801F0
F801F0
F803E0
FC07E0
FC07C0
7E1F80
3FFF00
1FFC00
07F000
ENDCHAR
STARTCHAR uni022F
ENCODING 559
SWIDTH 663 0
DWIDTH 17 0
BBX 16 18 2 0
BITMAP
00E0
01E0
01C0
0000
01F8
07FE
1FFF
3E3F
3C1F
7C1F
781F
F81E
F83E
F83C
FC7C
FFF8
7FE0
1F80
ENDCHAR
STARTCHAR uni0230
ENCODING 560
SWIDTH 855 0
DWIDTH 22 0
BBX 21 27 3 0
BITMAP
01FF00
01FF00
01FF00
000000
001C00
003C00
003800
000000
007F00
01FFC0
07FFE0
0FC3F0
1F01F8
3E01F8
3E01F8
7C01F8
7C01F8
FC01F8
F801F0
F801F0
F803E0
FC07E0
FC07C0
7E1F80
3FFF00
1FFC00
07F000
ENDCHAR
STARTCHAR uni0231
ENCODING 561
SWIDTH 663 0
DWIDTH 17 0
BBX 16 22 2 0
BITMAP
0FF8
0FF8
0FF8
0000
00E0
01E0
01C0
0000
01F8
07FE
1FFF
3E3F
3C1F
7C1F
781F
F81E
F83E
F83C
FC7C
FFF8
7FE0
1F80
ENDCHAR
STARTCHAR uni0232
ENCODING 562
SWIDTH 681 0
DWIDTH 18 0
BBX 17 23 4 0
BITMAP
1FF000
1FF000
1FF000
000000
F80780
7C0F00
7C1E00
7C3C00
3E3800
3E7800
3EF000
1FE000
1FC000
1FC000
0F8000
0F8000
1F8000
1F0000
1F0000
1F0000
1F0000
3F0000
3E0000
ENDCHAR
STARTCHAR uni0233
ENCODING 563
SWIDTH 633 0
DWIDTH 16 0
BBX 18 23 1 -5
BITMAP
07FC00
07FC00
07FC00
000000
3E03C0
3E0780
1F0700
1F0F00
1F1E00
1F1C00
1F3C00
1FF800
0FF000
0FF000
0FE000
0FC000
0FC000
078000
0F0000
1F0000
3E0000
7C0000
FC0000
ENDCHAR
STARTCHAR uni0250
ENCODING 592
SWIDTH 681 0
DWIDTH 18 0
BBX 16 14 2 0
BITMAP
1F1E
3E3F
3E7F
3EFF
3D9F
3D1F
7E1E
7E3E
7C3E
7C7C
78F8
FFF0
FFE0
FF80
ENDCHAR
STARTCHAR uni0259
ENCODING 601
SWIDTH 612 0
DWIDTH 16 0
BBX 14 14 2 0
BITMAP
0FE0
7FF8
FFFC
E0FC
807C
07FC
1FFC
3FF8
7CF8
F8F0
F9F0
FFE0
7F80
3E00
ENDCHAR
STARTCHAR uni025F
ENCODING 607
SWIDTH 464 0
DWIDTH 12 0
BBX 15 25 1 -11
BITMAP
003E
003E
003E
007C
007C
007C
007C
007C
00F8
00F8
00F8
00F8
00F8
01F0
01F0
01F0
1FFC
1FF8
1FF8
03E0
03E0
C7C0
FF80
FF00
7E00
ENDCHAR
STARTCHAR uni0265
ENCODING 613
SWIDTH 675 0
DWIDTH 18 0
BBX 16 20 2 -6
BITMAP
3E1F
3E1F
3E3F
7C3E
7C3E
7C3E
7C7E
7CFE
F9BC
FB7C
FF7C
FE7C
FC7C
78F8
00F8
00F8
00F8
01F8
01F0
01F0
ENDCHAR
STARTCHAR uni0275
ENCODING 629
SWIDTH 663 0
DWIDTH 17 0
BBX 16 14 2 0
BITMAP
01F8
07FE
1FFF
3E3F
3C1F
FFFF
FFFF
FFFF
F83E
F83C
FC7C
FFF8
7FE0
1F80
ENDCHAR
STARTCHAR uni0279
ENCODING 633
SWIDTH 542 0
DWIDTH 14 0
BBX 14 14 2 0
BITMAP
007C
007C
007C
00F8
00F8
00F8
01F8
03F8
06F0
0FF0
7DF0
79F0
F1F0
E3E0
ENDCHAR
STARTCHAR uni0287
ENCODING 647
SWIDTH 437 0
DWIDTH 11 0
BBX 10 18 3 0
BITMAP
3F00
3FC0
3FC0
0FC0
07C0
0F80
0F80
0F80
0F80
1F80
1F00
FFC0
FFC0
FFC0
3F00
3E00
3E00
3800
ENDCHAR
STARTCHAR uni0289
ENCODING 649
SWIDTH 675 0
DWIDTH 18 0
BBX 16 14 2 0
BITMAP
3E1F
3E1F
3E3E
7C3E
7C3E
FFFF
FFFF
FFFF
F9BC
FB7C
FF7C
FE7C
FC78
78F8
ENDCHAR
STARTCHAR uni028C
ENCODING 652
SWIDTH 630 0
DWIDTH 16 0
BBX 16 14 3 0
BITMAP
00FC
01FC
01FC
03FC
03FC
07FC
073E
0E3E
1E3E
1C3E
3C3E
383F
701F
F01F
ENDCHAR
STARTCHAR uni028D
ENCODING 653
SWIDTH 878 0
DWIDTH 23 0
BBX 22 14 3 0
BITMAP
01F0F8
03F0F8
03F1FC
07F1FC
07F3FC
0FF3FC
0EF77C
1EF77C
1CFE7C
3CFE7C
38FC7C
78FC3C
70F83C
F0F83C
ENDCHAR
STARTCHAR uni028E
ENCODING 654
SWIDTH 633 0
DWIDTH 16 0
BBX 18 19 1 0
BITMAP
000FC0
000F80
001F00
003E00
003C00
007800
00FC00
00FC00
01FC00
03FC00
03FC00
07FE00
0F3E00
0E3E00
1E3E00
3C3E00
383E00
781F00
F01F00
ENDCHAR
STARTCHAR uni029E
ENCODING 670
SWIDTH 666 0
DWIDTH 17 0
BBX 17 20 2 -6
BITMAP
3E0F80
3F0F80
1F1F00
1F9F00
0F9F00
0F9F00
07DF00
07FE00
07BE00
0F3E00
1E3E00
3C3E00
787C00
F07C00
007C00
007C00
007C00
00F800
00F800
00F800
ENDCHAR
STARTCHAR uni02BB
ENCODING 699
SWIDTH 265 0
DWIDTH 7 0
BBX 7 9 3 11
BITMAP
06
1E
3E
78
7C
7C
7C
FC
F8
ENDCHAR
STARTCHAR afii57929
ENCODING 700
SWIDTH 265 0
DWIDTH 7 0
BBX 7 9 3 11
BITMAP
3E
7E
7E
7C
7C
1C
38
F8
E0
ENDCHAR
STARTCHAR afii64937
ENCODING 701
SWIDTH 265 0
DWIDTH 7 0
BBX 7 9 3 11
BITMAP
F8
FC
FC
7C
7C
70
38
3E
0E
ENDCHAR
STARTCHAR circumflex
ENCODING 710
SWIDTH 663 0
DWIDTH 17 0
BBX 9 3 8 17
BITMAP
1E00
3F00
E380
ENDCHAR
STARTCHAR caron
ENCODING 711
SWIDTH 663 0
DWIDTH 17 0
BBX 9 3 8 17
BITMAP
E380
7E00
3C00
ENDCHAR
STARTCHAR uni02C8
ENCODING 712
SWIDTH 265 0
DWIDTH 7 0
BBX 5 9 4 11
BITMAP
F8
F8
F8
F8
70
70
70
70
70
ENDCHAR
STARTCHAR macron
ENCODING 713
SWIDTH 663 0
DWIDTH 17 0
BBX 9 3 8 16
BITMAP
FF80
FF80
FF80
ENDCHAR
STARTCHAR uni02CA
ENCODING 714
SWIDTH 663 0
DWIDTH 17 0
BBX 8 3 9 17
BITMAP
1F
38
F0
ENDCHAR
STARTCHAR uni02CB
ENCODING 715
SWIDTH 663 0
DWIDTH 17 0
BBX 6 3 9 17
BITMAP
F0
38
1C
ENDCHAR
STARTCHAR uni02CD
ENCODING 717
SWIDTH 663 0
DWIDTH 17 0
BBX 9 3 8 -4
BITMAP
FF80
FF80
FF80
ENDCHAR
STARTCHAR uni02CE
ENCODING 718
SWIDTH 663 0
DWIDTH 17 0
BBX 6 3 9 -4
BITMAP
F0
38
1C
ENDCHAR
STARTCHAR uni02CF
ENCODING 719
SWIDTH 663 0
DWIDTH 17 0
BBX 8 3 9 -4
BITMAP
1F
38
F0
ENDCHAR
STARTCHAR breve
ENCODING 728
SWIDTH 663 0
DWIDTH 17 0
BBX 9 3 8 17
BITMAP
E380
FF00
7C00
ENDCHAR
STARTCHAR dotaccent
ENCODING 729
SWIDTH 663 0
DWIDTH 17 0
BBX 4 3 11 17
BITMAP
70
F0
E0
ENDCHAR
STARTCHAR ring
ENCODING 730
SWIDTH 663 0
DWIDTH 17 0
BBX 4 4 11 16
BITMAP
60
90
90
60
ENDCHAR
STARTCHAR ogonek
ENCODING 731
SWIDTH 663 0
DWIDTH 17 0
BBX 5 3 6 -4
BITMAP
70
E0
F8
ENDCHAR
STARTCHAR tilde
ENCODING 732
SWIDTH 663 0
DWIDTH 17 0
BBX 10 3 8 17
BITMAP
3DC0
7F80
EF00
ENDCHAR
STARTCHAR hungarumlaut
ENCODING 733
SWIDTH 663 0
DWIDTH 17 0
BBX 11 3 8 17
BITMAP
1FE0
3B80
EE00
ENDCHAR
STARTCHAR uni02EE
ENCODING 750
SWIDTH 530 0
DWIDTH 14 0
BBX 14 9 3 11
BITMAP
3E7C
7E7C
7CFC
7CF8
7CF8
1C38
3870
F9F0
E1C0
ENDCHAR
STARTCHAR uni037E
ENCODING 894
SWIDTH 343 0
DWIDTH 9 0
BBX 9 18 1 -4
BITMAP
0F80
1F80
1F00
1F00
1F00
0000
0000
0000
0000
3E00
3E00
7E00
7C00
7C00
1C00
3800
F800
E000
ENDCHAR
STARTCHAR tonos
ENCODING 900
SWIDTH 663 0
DWIDTH 17 0
BBX 8 3 9 17
BITMAP
1F
38
F0
ENDCHAR
STARTCHAR dieresistonos
ENCODING 901
SWIDTH 663 0
DWIDTH 17 0
BBX 10 7 8 16
BITMAP
07C0
0E00
3C00
0000
7380
E380
E700
ENDCHAR
STARTCHAR anoteleia
ENCODING 903
SWIDTH 343 0
DWIDTH 18 0
BBX 4 3 8 7
BITMAP
70
F0
E0
ENDCHAR
STARTCHAR mu
ENCODING 956
SWIDTH 681 0
DWIDTH 18 0
BBX 17 18 1 -4
BITMAP
1F0F80
1F0F80
1F0F80
1F1F00
1E1F00
3E3F00
3E3F00
3E7F00
3EDE00
3FFE00
7FBE00
7FBE00
7F3E00
7E7C00
7C0000
F80000
F80000
F80000
ENDCHAR
STARTCHAR uni1E00
ENCODING 7680
SWIDTH 771 0
DWIDTH 20 0
BBX 19 24 0 -5
BITMAP
003E00
007F00
007F00
00FF00
00FF00
01EF00
01CF80
03CF80
038F80
078F80
070780
0FFFC0
1FFFC0
1FFFC0
3C07C0
3803C0
7803E0
7003E0
F003E0
000000
006000
009000
009000
006000
ENDCHAR
STARTCHAR uni1E01
ENCODING 7681
SWIDTH 681 0
DWIDTH 18 0
BBX 16 19 2 -5
BITMAP
01FF
07FF
0FFF
1F1E
3E3E
7C3E
7C7E
787E
F8BC
F9BC
FF7C
FE7C
FC7C
78F8
0000
0300
0480
0480
0300
ENDCHAR
STARTCHAR uni1E02
ENCODING 7682
SWIDTH 660 0
DWIDTH 17 0
BBX 16 23 2 0
BITMAP
00E0
01E0
01C0
0000
0FFC
1FFE
1FFF
1F1F
1E1F
1E1F
3E3E
3E7C
3FF0
3FF0
3FFC
7C7E
7C3E
7C3E
783E
787E
FFFC
FFF8
FFE0
ENDCHAR
STARTCHAR uni1E03
ENCODING 7683
SWIDTH 681 0
DWIDTH 18 0
BBX 16 24 2 0
BITMAP
0380
0780
0700
0000
0F80
0F00
1F00
1F00
1F00
1F00
1E1E
3E3E
3E7F
3EFF
3D9F
3D1F
7E1E
7E3E
7C3E
7C7C
78F8
FFF0
FFE0
FF80
ENDCHAR
STARTCHAR uni1E04
ENCODING 7684
SWIDTH 660 0
DWIDTH 17 0
BBX 16 23 2 -4
BITMAP
0FFC
1FFE
1FFF
1F1F
1E1F
1E1F
3E3E
3E7C
3FF0
3FF0
3FFC
7C7E
7C3E
7C3E
783E
787E
FFFC
FFF8
FFE0
0000
0380
0780
0700
ENDCHAR
STARTCHAR uni1E05
ENCODING 7685
SWIDTH 681 0
DWIDTH 18 0
BBX 16 24 2 -4
BITMAP
0F80
0F00
1F00
1F00
1F00
1F00
1E1E
3E3E
3E7F
3EFF
3D9F
3D1F
7E1E
7E3E
7C3E
7C7C
78F8
FFF0
FFE0
FF80
0000
0380
0780
0700
ENDCHAR
STARTCHAR uni1E06
ENCODING 7686
SWIDTH 660 0
DWIDTH 17 0
BBX 16 23 2 -4
BITMAP
0FFC
1FFE
1FFF
1F1F
1E1F
1E1F
3E3E
3E7C
3FF0
3FF0
3FFC
7C7E
7C3E
7C3E
783E
787E
FFFC
FFF8
FFE0
0000
1FF0
1FF0
1FF0
ENDCHAR
STARTCHAR uni1E07
ENCODING 7687
SWIDTH 681 0
DWIDTH 18 0
BBX 16 24 2 -4
BITMAP
0F80
0F00
1F00
1F00
1F00
1F00
1E1E
3E3E
3E7F
3EFF
3D9F
3D1F
7E1E
7E3E
7C3E
7C7C
78F8
FFF0
FFE0
FF80
0000
3FE0
3FE0
3FE0
ENDCHAR
STARTCHAR uni1E08
ENCODING 7688
SWIDTH 737 0
DWIDTH 19 0
BBX 19 28 2 -5
BITMAP
003E00
007000
01E000
000000
007FC0
01FFE0
07FFE0
0FC040
1F8000
3F0000
3E0000
7C0000
7C0000
F80000
F80000
F80000
F80000
FC0000
FC0000
7F0300
7FFF00
3FFF00
07F800
030000
070000
038000
038000
0F0000
ENDCHAR
STARTCHAR uni1E09
ENCODING 7689
SWIDTH 548 0
DWIDTH 14 0
BBX 14 23 2 -5
BITMAP
00F8
01C0
0780
0000
01F8
07FC
0FF8
3F08
3E00
7C00
7C00
F800
F800
F800
FC30
FFF0
7FE0
1F80
0C00
1C00
0E00
0E00
3C00
ENDCHAR
STARTCHAR uni1E0A
ENCODING 7690
SWIDTH 822 0
DWIDTH 21 0
BBX 20 23 2 0
BITMAP
003800
007800
007000
000000
0FFF00
1FFFC0
1FFFE0
1F07F0
1F03F0
1E01F0
3E01F0
3E01F0
3E01F0
3E03F0
3E03E0
7C03E0
7C07E0
7C0FC0
7C1FC0
7C3F80
FFFF00
FFFC00
FFF000
ENDCHAR
STARTCHAR uni1E0B
ENCODING 7691
SWIDTH 681 0
DWIDTH 18 0
BBX 18 24 2 0
BITMAP
000E00
001E00
001C00
000000
0007C0
0007C0
000F80
000F80
000F80
000F80
01FF80
07FF00
0FFF00
1F1F00
3E1F00
3C1F00
7C3E00
787E00
F8FE00
F9BE00
FFBE00
FF7C00
7E7C00
387C00
ENDCHAR
STARTCHAR uni1E0C
ENCODING 7692
SWIDTH 822 0
DWIDTH 21 0
BBX 20 23 2 -4
BITMAP
0FFF00
1FFFC0
1FFFE0
1F07F0
1F03F0
1E01F0
3E01F0
3E01F0
3E01F0
3E03F0
3E03E0
7C03E0
7C07E0
7C0FC0
7C1FC0
7C3F80
FFFF00
FFFC00
FFF000
000000
01C000
03C000
038000
ENDCHAR
STARTCHAR uni1E0D
ENCODING 7693
SWIDTH 681 0
DWIDTH 18 0
BBX 18 24 2 -4
BITMAP
0007C0
0007C0
000F80
000F80
000F80
000F80
01FF80
07FF00
0FFF00
1F1F00
3E1F00
3C1F00
7C3E00
787E00
F8FE00
F9BE00
FFBE00
FF7C00
7E7C00
387C00
000000
01C000
03C000
038000
ENDCHAR
STARTCHAR uni1E0E
ENCODING 7694
SWIDTH 822 0
DWIDTH 21 0
BBX 20 23 2 -4
BITMAP
0FFF00
1FFFC0
1FFFE0
1F07F0
1F03F0
1E01F0
3E01F0
3E01F0
3E01F0
3E03F0
3E03E0
7C03E0
7C07E0
7C0FC0
7C1FC0
7C3F80
FFFF00
FFFC00
FFF000
000000
0FF800
0FF800
0FF800
ENDCHAR
STARTCHAR uni1E0F
ENCODING 7695
SWIDTH 681 0
DWIDTH 18 0
BBX 18 24 2 -4
BITMAP
0007C0
0007C0
000F80
000F80
000F80
000F80
01FF80
07FF00
0FFF00
1F1F00
3E1F00
3C1F00
7C3E00
787E00
F8FE00
F9BE00
FFBE00
FF7C00
7E7C00
387C00
000000
0FF800
0FF800
0FF800
ENDCHAR
STARTCHAR uni1E10
ENCODING 7696
SWIDTH 822 0
DWIDTH 21 0
BBX 20 24 2 -5
BITMAP
0FFF00
1FFFC0
1FFFE0
1F07F0
1F03F0
1E01F0
3E01F0
3E01F0
3E01F0
3E03F0
3E03E0
7C03E0
7C07E0
7C0FC0
7C1FC0
7C3F80
FFFF00
FFFC00
FFF000
00E000
01C000
00E000
00E000
03C000
ENDCHAR
STARTCHAR uni1E11
ENCODING 7697
SWIDTH 681 0
DWIDTH 18 0
BBX 18 25 2 -5
BITMAP
0007C0
0007C0
000F80
000F80
000F80
000F80
01FF80
07FF00
0FFF00
1F1F00
3E1F00
3C1F00
7C3E00
787E00
F8FE00
F9BE00
FFBE00
FF7C00
7E7C00
387C00
01C000
038000
01C000
01C000
078000
ENDCHAR
STARTCHAR uni1E12
ENCODING 7698
SWIDTH 822 0
DWIDTH 21 0
BBX 20 23 2 -4
BITMAP
0FFF00
1FFFC0
1FFFE0
1F07F0
1F03F0
1E01F0
3E01F0
3E01F0
3E01F0
3E03F0
3E03E0
7C03E0
7C07E0
7C0FC0
7C1FC0
7C3F80
FFFF00
FFFC00
FFF000
000000
01E000
03F000
0E3800
ENDCHAR
STARTCHAR uni1E13
ENCODING 7699
SWIDTH 681 0
DWIDTH 18 0
BBX 18 24 2 -4
BITMAP
0007C0
0007C0
000F80
000F80
000F80
000F80
01FF80
07FF00
0FFF00
1F1F00
3E1F00
3C1F00
7C3E00
787E00
F8FE00
F9BE00
FFBE00
FF7C00
7E7C00
387C00
000000
03C000
07E000
1C7000
ENDCHAR
STARTCHAR uni1E14
ENCODING 7700
SWIDTH 642 0
DWIDTH 17 0
BBX 17 27 2 0
BITMAP
078000
01C000
00E000
000000
0FF800
0FF800
0FF800
000000
0FFF80
0FFF80
1FFF00
1F0000
1F0000
1F0000
1F0000
3F0000
3FFC00
3FFC00
3FF800
3E0000
7E0000
7C0000
7C0000
7C0000
7FFC00
FFFC00
FFFC00
ENDCHAR
STARTCHAR uni1E15
ENCODING 7701
SWIDTH 612 0
DWIDTH 16 0
BBX 14 22 2 0
BITMAP
0F00
0380
01C0
0000
0FF8
0FF8
0FF8
0000
01F0
07F8
1FFC
3E7C
3C7C
7CF8
7FF0
FFE0
FF80
F804
FC1C
FFFC
7FF8
1FC0
ENDCHAR
STARTCHAR uni1E16
ENCODING 7702
SWIDTH 642 0
DWIDTH 17 0
BBX 17 27 2 0
BITMAP
007C00
00E000
03C000
000000
0FF800
0FF800
0FF800
000000
0FFF80
0FFF80
1FFF00
1F0000
1F0000
1F0000
1F0000
3F0000
3FFC00
3FFC00
3FF800
3E0000
7E0000
7C0000
7C0000
7C0000
7FFC00
FFFC00
FFFC00
ENDCHAR
STARTCHAR uni1E17
ENCODING 7703
SWIDTH 612 0
DWIDTH 16 0
BBX 14 22 2 0
BITMAP
00F8
01C0
0780
0000
0FF8
0FF8
0FF8
0000
01F0
07F8
1FFC
3E7C
3C7C
7CF8
7FF0
FFE0
FF80
F804
FC1C
FFFC
7FF8
1FC0
ENDCHAR
STARTCHAR uni1E18
ENCODING 7704
SWIDTH 642 0
DWIDTH 17 0
BBX 17 23 2 -4
BITMAP
0FFF80
0FFF80
1FFF00
1F0000
1F0000
1F0000
1F0000
3F0000
3FFC00
3FFC00
3FF800
3E0000
7E0000
7C0000
7C0000
7C0000
7FFC00
FFFC00
FFFC00
000000
078000
0FC000
38E000
ENDCHAR
STARTCHAR uni1E19
ENCODING 7705
SWIDTH 612 0
DWIDTH 16 0
BBX 14 18 2 -4
BITMAP
01F0
07F8
1FFC
3E7C
3C7C
7CF8
7FF0
FFE0
FF80
F804
FC1C
FFFC
7FF8
1FC0
0000
0780
0FC0
38E0
ENDCHAR
STARTCHAR uni1E1A
ENCODING 7706
SWIDTH 642 0
DWIDTH 17 0
BBX 17 23 2 -4
BITMAP
0FFF80
0FFF80
1FFF00
1F0000
1F0000
1F0000
1F0000
3F0000
3FFC00
3FFC00
3FF800
3E0000
7E0000
7C0000
7C0000
7C0000
7FFC00
FFFC00
FFFC00
000000
0F7000
1FE000
3BC000
ENDCHAR
STARTCHAR uni1E1B
ENCODING 7707
SWIDTH 612 0
DWIDTH 16 0
BBX 14 18 2 -4
BITMAP
01F0
07F8
1FFC
3E7C
3C7C
7CF8
7FF0
FFE0
FF80
F804
FC1C
FFFC
7FF8
1FC0
0000
1EE0
3FC0
7780
ENDCHAR
STARTCHAR uni1E1C
ENCODING 7708
SWIDTH 642 0
DWIDTH 17 0
BBX 17 28 2 -5
BITMAP
071C00
07F800
03E000
000000
0FFF80
0FFF80
1FFF00
1F0000
1F0000
1F0000
1F0000
3F0000
3FFC00
3FFC00
3FF800
3E0000
7E0000
7C0000
7C0000
7C0000
7FFC00
FFFC00
FFFC00
038000
070000
038000
038000
0F0000
ENDCHAR
STARTCHAR uni1E1D
ENCODING 7709
SWIDTH 612 0
DWIDTH 16 0
BBX 14 23 2 -5
BITMAP
0E38
0FF0
07C0
0000
01F0
07F8
1FFC
3E7C
3C7C
7CF8
7FF0
FFE0
FF80
F804
FC1C
FFFC
7FF8
1FC0
0380
0700
0380
0380
0F00
ENDCHAR
STARTCHAR uni1E1E
ENCODING 7710
SWIDTH 614 0
DWIDTH 16 0
BBX 17 23 2 0
BITMAP
00E000
01E000
01C000
000000
0FFF80
0FFF80
1FFF00
1F0000
1F0000
1F0000
1F0000
3E0000
3FFC00
3FF800
3FF800
3E0000
7C0000
7C0000
7C0000
7C0000
7C0000
F80000
F80000
ENDCHAR
STARTCHAR uni1E1F
ENCODING 7711
SWIDTH 464 0
DWIDTH 12 0
BBX 15 29 1 -5
BITMAP
00E0
01E0
01C0
0000
00FC
01FE
03FE
07C6
0F80
0F80
3FF0
3FF0
7FF0
1F00
1F00
1F00
3E00
3E00
3E00
3E00
3E00
7C00
7C00
7C00
7C00
7C00
F800
F800
F800
ENDCHAR
STARTCHAR uni1E20
ENCODING 7712
SWIDTH 755 0
DWIDTH 20 0
BBX 19 23 2 0
BITMAP
03FE00
03FE00
03FE00
000000
007FC0
01FFE0
07FFE0
0FC040
1F8000
3F0000
3E0000
7C0000
7C0000
F80000
F80F80
F80F80
F80F80
FC0F00
FC0F00
7F1F00
7FFF00
3FFF00
07FC00
ENDCHAR
STARTCHAR uni1E21
ENCODING 7713
SWIDTH 674 0
DWIDTH 17 0
BBX 17 23 1 -5
BITMAP
03FE00
03FE00
03FE00
000000
00FF80
03FF80
07FF80
0F1F00
1E1F00
3E1F00
3C3F00
7C7F00
7CDE00
7DDE00
7FBE00
7F3E00
7E3E00
3C7C00
807C00
E0FC00
FFF800
7FF000
7F8000
ENDCHAR
STARTCHAR uni1E22
ENCODING 7714
SWIDTH 813 0
DWIDTH 21 0
BBX 20 23 2 0
BITMAP
003800
007800
007000
000000
0F81F0
1F01F0
1F01F0
1F03E0
1F03E0
1F03E0
3E03E0
3E03E0
3FFFC0
3FFFC0
3FFFC0
7C07C0
7C07C0
7C0780
7C0F80
7C0F80
F80F80
F80F80
F81F00
ENDCHAR
STARTCHAR uni1E23
ENCODING 7715
SWIDTH 675 0
DWIDTH 18 0
BBX 16 24 2 0
BITMAP
0380
0780
0700
0000
0F80
0F80
1F80
1F00
1F00
1F00
1F1E
3E3F
3E7F
3EFF
3EDF
3D9F
7F3E
7E3E
7C3E
7C3E
7C3E
FC7C
F87C
F87C
ENDCHAR
STARTCHAR uni1E24
ENCODING 7716
SWIDTH 813 0
DWIDTH 21 0
BBX 20 23 2 -4
BITMAP
0F81F0
1F01F0
1F01F0
1F03E0
1F03E0
1F03E0
3E03E0
3E03E0
3FFFC0
3FFFC0
3FFFC0
7C07C0
7C07C0
7C0780
7C0F80
7C0F80
F80F80
F80F80
F81F00
000000
00E000
01E000
01C000
ENDCHAR
STARTCHAR uni1E25
ENCODING 7717
SWIDTH 675 0
DWIDTH 18 0
BBX 16 24 2 -4
BITMAP
0F80
0F80
1F80
1F00
1F00
1F00
1F1E
3E3F
3E7F
3EFF
3EDF
3D9F
7F3E
7E3E
7C3E
7C3E
7C3E
FC7C
F87C
F87C
0000
0380
0780
0700
ENDCHAR
STARTCHAR uni1E26
ENCODING 7718
SWIDTH 813 0
DWIDTH 21 0
BBX 20 23 2 0
BITMAP
00E700
01C700
01CE00
000000
0F81F0
1F01F0
1F01F0
1F03E0
1F03E0
1F03E0
3E03E0
3E03E0
3FFFC0
3FFFC0
3FFFC0
7C07C0
7C07C0
7C0780
7C0F80
7C0F80
F80F80
F80F80
F81F00
ENDCHAR
STARTCHAR uni1E27
ENCODING 7719
SWIDTH 675 0
DWIDTH 18 0
BBX 16 24 2 0
BITMAP
1CE0
38E0
39C0
0000
0F80
0F80
1F80
1F00
1F00
1F00
1F1E
3E3F
3E7F
3EFF
3EDF
3D9F
7F3E
7E3E
7C3E
7C3E
7C3E
FC7C
F87C
F87C
ENDCHAR
STARTCHAR uni1E28
ENCODING 7720
SWIDTH 813 0
DWIDTH 21 0
BBX 20 24 2 -5
BITMAP
0F81F0
1F01F0
1F01F0
1F03E0
1F03E0
1F03E0
3E03E0
3E03E0
3FFFC0
3FFFC0
3FFFC0
7C07C0
7C07C0
7C0780
7C0F80
7C0F80
F80F80
F80F80
F81F00
00E000
01C000
00E000
00E000
03C000
ENDCHAR
STARTCHAR uni1E29
ENCODING 7721
SWIDTH 675 0
DWIDTH 18 0
BBX 16 25 2 -5
BITMAP
0F80
0F80
1F80
1F00
1F00
1F00
1F1E
3E3F
3E7F
3EFF
3EDF
3D9F
7F3E
7E3E
7C3E
7C3E
7C3E
FC7C
F87C
F87C
01C0
0380
01C0
01C0
0780
ENDCHAR
STARTCHAR uni1E2A
ENCODING 7722
SWIDTH 813 0
DWIDTH 21 0
BBX 20 23 2 -4
BITMAP
0F81F0
1F01F0
1F01F0
1F03E0
1F03E0
1F03E0
3E03E0
3E03E0
3FFFC0
3FFFC0
3FFFC0
7C07C0
7C07C0
7C0780
7C0F80
7C0F80
F80F80
F80F80
F81F00
000000
071C00
07F800
03E000
ENDCHAR
STARTCHAR uni1E2B
ENCODING 7723
SWIDTH 675 0
DWIDTH 18 0
BBX 16 24 2 -4
BITMAP
0F80
0F80
1F80
1F00
1F00
1F00
1F1E
3E3F
3E7F
3EFF
3EDF
3D9F
7F3E
7E3E
7C3E
7C3E
7C3E
FC7C
F87C
F87C
0000
1C70
1FE0
0F80
ENDCHAR
STARTCHAR uni1E2C
ENCODING 7724
SWIDTH 361 0
DWIDTH 9 0
BBX 11 23 0 -4
BITMAP
03E0
03E0
07C0
07C0
07C0
07C0
07C0
0F80
0F80
0F80
0F80
0F80
1F00
1F00
1F00
1F00
1F00
3E00
3E00
0000
3DC0
7F80
EF00
ENDCHAR
STARTCHAR uni1E2D
ENCODING 7725
SWIDTH 343 0
DWIDTH 9 0
BBX 11 24 0 -4
BITMAP
03E0
03E0
07C0
07C0
0000
0000
07C0
0F80
0F80
0F80
0F80
0F80
1F00
1F00
1F00
1F00
1F00
3E00
3E00
3E00
0000
3DC0
7F80
EF00
ENDCHAR
STARTCHAR uni1E2E
ENCODING 7726
SWIDTH 361 0
DWIDTH 9 0
BBX 12 27 2 0
BITMAP
01F0
0380
0F00
0000
1CE0
38E0
39C0
0000
0F80
0F80
1F00
1F00
1F00
1F00
1F00
3E00
3E00
3E00
3E00
3E00
7C00
7C00
7C00
7C00
7C00
F800
F800
ENDCHAR
STARTCHAR uni1E2F
ENCODING 7727
SWIDTH 343 0
DWIDTH 9 0
BBX 11 22 2 0
BITMAP
03E0
0700
1E00
0000
1CE0
38E0
39C0
0000
1F00
1F00
3E00
3E00
3E00
3E00
3E00
7C00
7C00
7C00
7C00
7C00
F800
F800
ENDCHAR
STARTCHAR uni1E30
ENCODING 7728
SWIDTH 753 0
DWIDTH 20 0
BBX 18 23 2 0
BITMAP
003E00
007000
01E000
000000
0F83C0
1F8780
1F0F00
1F1E00
1F1C00
1F3C00
3F7800
3EF000
3EE000
3FF000
3FF800
7EF800
7CFC00
7C7C00
7C7E00
7C3E00
FC3F00
F81F80
F81F80
ENDCHAR
STARTCHAR uni1E31
ENCODING 7729
SWIDTH 666 0
DWIDTH 17 0
BBX 17 24 2 0
BITMAP
01F000
038000
0F0000
000000
0F8000
0F8000
0F8000
1F0000
1F0000
1F0000
1F0780
1F0F00
3E1E00
3E3C00
3E7800
3EF000
3FF000
7DF000
7CF800
7CF800
7CFC00
7C7C00
F87E00
F83E00
ENDCHAR
STARTCHAR uni1E32
ENCODING 7730
SWIDTH 753 0
DWIDTH 20 0
BBX 18 23 2 -4
BITMAP
0F83C0
1F8780
1F0F00
1F1E00
1F1C00
1F3C00
3F7800
3EF000
3EE000
3FF000
3FF800
7EF800
7CFC00
7C7C00
7C7E00
7C3E00
FC3F00
F81F80
F81F80
000000
01C000
03C000
038000
ENDCHAR
STARTCHAR uni1E33
ENCODING 7731
SWIDTH 666 0
DWIDTH 17 0
BBX 17 24 2 -4
BITMAP
0F8000
0F8000
0F8000
1F0000
1F0000
1F0000
1F0780
1F0F00
3E1E00
3E3C00
3E7800
3EF000
3FF000
7DF000
7CF800
7CF800
7CFC00
7C7C00
F87E00
F83E00
000000
038000
078000
070000
ENDCHAR
STARTCHAR uni1E34
ENCODING 7732
SWIDTH 753 0
DWIDTH 20 0
BBX 18 23 2 -4
BITMAP
0F83C0
1F8780
1F0F00
1F1E00
1F1C00
1F3C00
3F7800
3EF000
3EE000
3FF000
3FF800
7EF800
7CFC00
7C7C00
7C7E00
7C3E00
FC3F00
F81F80
F81F80
000000
0FF800
0FF800
0FF800
ENDCHAR
STARTCHAR uni1E35
ENCODING 7733
SWIDTH 666 0
DWIDTH 17 0
BBX 17 24 2 -4
BITMAP
0F8000
0F8000
0F8000
1F0000
1F0000
1F0000
1F0780
1F0F00
3E1E00
3E3C00
3E7800
3EF000
3FF000
7DF000
7CF800
7CF800
7CFC00
7C7C00
F87E00
F83E00
000000
1FF000
1FF000
1FF000
ENDCHAR
STARTCHAR uni1E36
ENCODING 7734
SWIDTH 623 0
DWIDTH 16 0
BBX 14 23 2 -4
BITMAP
0F80
1F00
1F00
1F00
1F00
1F00
3E00
3E00
3E00
3E00
3E00
7C00
7C00
7C00
7C00
7C00
FFFC
FFFC
FFFC
0000
0700
0F00
0E00
ENDCHAR
STARTCHAR uni1E37
ENCODING 7735
SWIDTH 343 0
DWIDTH 9 0
BBX 9 24 2 -4
BITMAP
0F80
0F80
1F80
1F00
1F00
1F00
1F00
3F00
3E00
3E00
3E00
3E00
7E00
7C00
7C00
7C00
7C00
FC00
F800
F800
0000
3800
7800
7000
ENDCHAR
STARTCHAR uni1E38
ENCODING 7736
SWIDTH 623 0
DWIDTH 16 0
BBX 14 27 2 -4
BITMAP
3FE0
3FE0
3FE0
0000
0F80
1F00
1F00
1F00
1F00
1F00
3E00
3E00
3E00
3E00
3E00
7C00
7C00
7C00
7C00
7C00
FFFC
FFFC
FFFC
0000
0700
0F00
0E00
ENDCHAR
STARTCHAR uni1E39
ENCODING 7737
SWIDTH 343 0
DWIDTH 9 0
BBX 10 28 2 -4
BITMAP
7FC0
7FC0
7FC0
0000
0F80
0F80
1F80
1F00
1F00
1F00
1F00
3F00
3E00
3E00
3E00
3E00
7E00
7C00
7C00
7C00
7C00
FC00
F800
F800
0000
3800
7800
7000
ENDCHAR
STARTCHAR uni1E3A
ENCODING 7738
SWIDTH 623 0
DWIDTH 16 0
BBX 14 23 2 -4
BITMAP
0F80
1F00
1F00
1F00
1F00
1F00
3E00
3E00
3E00
3E00
3E00
7C00
7C00
7C00
7C00
7C00
FFFC
FFFC
FFFC
0000
3FE0
3FE0
3FE0
ENDCHAR
STARTCHAR uni1E3B
ENCODING 7739
SWIDTH 343 0
DWIDTH 9 0
BBX 10 24 1 -4
BITMAP
07C0
07C0
0FC0
0F80
0F80
0F80
0F80
1F80
1F00
1F00
1F00
1F00
3F00
3E00
3E00
3E00
3E00
7E00
7C00
7C00
0000
FF80
FF80
FF80
ENDCHAR
STARTCHAR uni1E3C
ENCODING 7740
SWIDTH 623 0
DWIDTH 16 0
BBX 14 23 2 -4
BITMAP
0F80
1F00
1F00
1F00
1F00
1F00
3E00
3E00
3E00
3E00
3E00
7C00
7C00
7C00
7C00
7C00
FFFC
FFFC
FFFC
0000
0780
0FC0
38E0
ENDCHAR
STARTCHAR uni1E3D
ENCODING 7741
SWIDTH 343 0
DWIDTH 9 0
BBX 10 24 1 -4
BITMAP
07C0
07C0
0FC0
0F80
0F80
0F80
0F80
1F80
1F00
1F00
1F00
1F00
3F00
3E00
3E00
3E00
3E00
7E00
7C00
7C00
0000
1E00
3F00
E380
ENDCHAR
STARTCHAR uni1E3E
ENCODING 7742
SWIDTH 940 0
DWIDTH 24 0
BBX 24 23 2 0
BITMAP
0007C0
000E00
003C00
000000
0FC03F
1FC07F
1FE07E
1FE0FE
1FE0FE
1DE1FE
3DE1FE
3DE3BC
3DE7BC
3DE73C
39EF7C
79FE7C
79FE78
79FC78
78F878
70F8F8
F0F0F8
F0F0F0
F000F0
ENDCHAR
STARTCHAR uni1E3F
ENCODING 7743
SWIDTH 991 0
DWIDTH 26 0
BBX 24 18 2 0
BITMAP
0007C0
000E00
003C00
000000
1E1C1E
3E7E3F
3EFE7F
3FFEFF
3DBFDF
3FBF9F
7F3F1E
7E3F3E
7E3E3E
7C7C3E
787C3E
F87C3C
F87C7C
F8787C
ENDCHAR
STARTCHAR uni1E40
ENCODING 7744
SWIDTH 940 0
DWIDTH 24 0
BBX 24 23 2 0
BITMAP
000E00
001E00
001C00
000000
0FC03F
1FC07F
1FE07E
1FE0FE
1FE0FE
1DE1FE
3DE1FE
3DE3BC
3DE7BC
3DE73C
39EF7C
79FE7C
79FE78
79FC78
78F878
70F8F8
F0F0F8
F0F0F0
F000F0
ENDCHAR
STARTCHAR uni1E41
ENCODING 7745
SWIDTH 991 0
DWIDTH 26 0
BBX 24 18 2 0
BITMAP
000E00
001E00
001C00
000000
1E1C1E
3E7E3F
3EFE7F
3FFEFF
3DBFDF
3FBF9F
7F3F1E
7E3F3E
7E3E3E
7C7C3E
787C3E
F87C3C
F87C7C
F8787C
ENDCHAR
STARTCHAR uni1E42
ENCODING 7746
SWIDTH 940 0
DWIDTH 24 0
BBX 24 23 2 -4
BITMAP
0FC03F
1FC07F
1FE07E
1FE0FE
1FE0FE
1DE1FE
3DE1FE
3DE3BC
3DE7BC
3DE73C
39EF7C
79FE7C
79FE78
79FC78
78F878
70F8F8
F0F0F8
F0F0F0
F000F0
000000
003800
007800
007000
ENDCHAR
STARTCHAR uni1E43
ENCODING 7747
SWIDTH 991 0
DWIDTH 26 0
BBX 24 18 2 -4
BITMAP
1E1C1E
3E7E3F
3EFE7F
3FFEFF
3DBFDF
3FBF9F
7F3F1E
7E3F3E
7E3E3E
7C7C3E
787C3E
F87C3C
F87C7C
F8787C
000000
003800
007800
007000
ENDCHAR
STARTCHAR uni1E44
ENCODING 7748
SWIDTH 789 0
DWIDTH 20 0
BBX 20 23 2 0
BITMAP
003800
007800
007000
000000
0F00F0
1F80F0
1F80F0
1FC1E0
1FC1E0
1FE1E0
3FE1E0
3FF1E0
3DF3C0
3DFBC0
3CFBC0
78FFC0
787FC0
787F80
783F80
783F80
F01F80
F01F80
F00F00
ENDCHAR
STARTCHAR uni1E45
ENCODING 7749
SWIDTH 675 0
DWIDTH 18 0
BBX 16 18 2 0
BITMAP
00E0
01E0
01C0
0000
1F1E
1E3F
3E7F
3EFF
3EDF
3D9F
3F3E
7E3E
7C3E
7C3E
7C3E
787C
F87C
F87C
ENDCHAR
STARTCHAR uni1E46
ENCODING 7750
SWIDTH 789 0
DWIDTH 20 0
BBX 20 23 2 -4
BITMAP
0F00F0
1F80F0
1F80F0
1FC1E0
1FC1E0
1FE1E0
3FE1E0
3FF1E0
3DF3C0
3DFBC0
3CFBC0
78FFC0
787FC0
787F80
783F80
783F80
F01F80
F01F80
F00F00
000000
00E000
01E000
01C000
ENDCHAR
STARTCHAR uni1E47
ENCODING 7751
SWIDTH 675 0
DWIDTH 18 0
BBX 16 18 2 -4
BITMAP
1F1E
1E3F
3E7F
3EFF
3EDF
3D9F
3F3E
7E3E
7C3E
7C3E
7C3E
787C
F87C
F87C
0000
0380
0780
0700
ENDCHAR
STARTCHAR uni1E48
ENCODING 7752
SWIDTH 789 0
DWIDTH 20 0
BBX 20 23 2 -4
BITMAP
0F00F0
1F80F0
1F80F0
1FC1E0
1FC1E0
1FE1E0
3FE1E0
3FF1E0
3DF3C0
3DFBC0
3CFBC0
78FFC0
787FC0
787F80
783F80
783F80
F01F80
F01F80
F00F00
000000
07FC00
07FC00
07FC00
ENDCHAR
STARTCHAR uni1E49
ENCODING 7753
SWIDTH 675 0
DWIDTH 18 0
BBX 16 18 2 -4
BITMAP
1F1E
1E3F
3E7F
3EFF
3EDF
3D9F
3F3E
7E3E
7C3E
7C3E
7C3E
787C
F87C
F87C
0000
1FF0
1FF0
1FF0
ENDCHAR
STARTCHAR uni1E4A
ENCODING 7754
SWIDTH 789 0
DWIDTH 20 0
BBX 20 23 2 -4
BITMAP
0F00F0
1F80F0
1F80F0
1FC1E0
1FC1E0
1FE1E0
3FE1E0
3FF1E0
3DF3C0
3DFBC0
3CFBC0
78FFC0
787FC0
787F80
783F80
783F80
F01F80
F01F80
F00F00
000000
00F000
01F800
071C00
ENDCHAR
STARTCHAR uni1E4B
ENCODING 7755
SWIDTH 675 0
DWIDTH 18 0
BBX 16 18 2 -4
BITMAP
1F1E
1E3F
3E7F
3EFF
3EDF
3D9F
3F3E
7E3E
7C3E
7C3E
7C3E
787C
F87C
F87C
0000
03C0
07E0
1C70
ENDCHAR
STARTCHAR uni1E4C
ENCODING 7756
SWIDTH 855 0
DWIDTH 22 0
BBX 21 27 3 0
BITMAP
000F80
001C00
007800
000000
003DC0
007F80
00EF00
000000
007F00
01FFC0
07FFE0
0FC3F0
1F01F8
3E01F8
3E01F8
7C01F8
7C01F8
FC01F8
F801F0
F801F0
F803E0
FC07E0
FC07C0
7E1F80
3FFF00
1FFC00
07F000
ENDCHAR
STARTCHAR uni1E4D
ENCODING 7757
SWIDTH 663 0
DWIDTH 17 0
BBX 16 22 2 0
BITMAP
003E
0070
01E0
0000
00F7
01FE
03BC
0000
01F8
07FE
1FFF
3E3F
3C1F
7C1F
781F
F81E
F83E
F83C
FC7C
FFF8
7FE0
1F80
ENDCHAR
STARTCHAR uni1E4E
ENCODING 7758
SWIDTH 855 0
DWIDTH 22 0
BBX 21 27 3 0
BITMAP
007380
00E380
00E700
000000
003DC0
007F80
00EF00
000000
007F00
01FFC0
07FFE0
0FC3F0
1F01F8
3E01F8
3E01F8
7C01F8
7C01F8
FC01F8
F801F0
F801F0
F803E0
FC07E0
FC07C0
7E1F80
3FFF00
1FFC00
07F000
ENDCHAR
STARTCHAR uni1E4F
ENCODING 7759
SWIDTH 663 0
DWIDTH 17 0
BBX 16 22 2 0
BITMAP
01CE
038E
039C
0000
00F7
01FE
03BC
0000
01F8
07FE
1FFF
3E3F
3C1F
7C1F
781F
F81E
F83E
F83C
FC7C
FFF8
7FE0
1F80
ENDCHAR
STARTCHAR uni1E50
ENCODING 7760
SWIDTH 855 0
DWIDTH 22 0
BBX 21 27 3 0
BITMAP
01E000
007000
003800
000000
01FF00
01FF00
01FF00
000000
007F00
01FFC0
07FFE0
0FC3F0
1F01F8
3E01F8
3E01F8
7C01F8
7C01F8
FC01F8
F801F0
F801F0
F803E0
FC07E0
FC07C0
7E1F80
3FFF00
1FFC00
07F000
ENDCHAR
STARTCHAR uni1E51
ENCODING 7761
SWIDTH 663 0
DWIDTH 17 0
BBX 16 22 2 0
BITMAP
0780
01C0
00E0
0000
07FC
07FC
07FC
0000
01F8
07FE
1FFF
3E3F
3C1F
7C1F
781F
F81E
F83E
F83C
FC7C
FFF8
7FE0
1F80
ENDCHAR
STARTCHAR uni1E52
ENCODING 7762
SWIDTH 855 0
DWIDTH 22 0
BBX 21 27 3 0
BITMAP
000F80
001C00
007800
000000
01FF00
01FF00
01FF00
000000
007F00
01FFC0
07FFE0
0FC3F0
1F01F8
3E01F8
3E01F8
7C01F8
7C01F8
FC01F8
F801F0
F801F0
F803E0
FC07E0
FC07C0
7E1F80
3FFF00
1FFC00
07F000
ENDCHAR
STARTCHAR uni1E53
ENCODING 7763
SWIDTH 663 0
DWIDTH 17 0
BBX 16 22 2 0
BITMAP
007C
00E0
03C0
0000
07FC
07FC
07FC
0000
01F8
07FE
1FFF
3E3F
3C1F
7C1F
781F
F81E
F83E
F83C
FC7C
FFF8
7FE0
1F80
ENDCHAR
STARTCHAR uni1E54
ENCODING 7764
SWIDTH 645 0
DWIDTH 17 0
BBX 17 23 2 0
BITMAP
003E00
007000
01E000
000000
0FFE00
1FFF00
1FFF80
1F1F80
1F0F80
1E0F80
3E0F00
3E1F00
3E3E00
3FFE00
3FF800
7FE000
7C0000
7C0000
7C0000
7C0000
F80000
F80000
F80000
ENDCHAR
STARTCHAR uni1E55
ENCODING 7765
SWIDTH 681 0
DWIDTH 18 0
BBX 17 23 1 -5
BITMAP
003E00
007000
01E000
000000
0F8F00
1F1F80
1F3F80
1F7F80
1ECF80
1E8F80
3F0F00
3F1F00
3E1F00
3E3E00
3C7C00
7FF800
7FF000
7FC000
7C0000
7C0000
F80000
F80000
F80000
ENDCHAR
STARTCHAR uni1E56
ENCODING 7766
SWIDTH 645 0
DWIDTH 17 0
BBX 17 23 2 0
BITMAP
007000
00F000
00E000
000000
0FFE00
1FFF00
1FFF80
1F1F80
1F0F80
1E0F80
3E0F00
3E1F00
3E3E00
3FFE00
3FF800
7FE000
7C0000
7C0000
7C0000
7C0000
F80000
F80000
F80000
ENDCHAR
STARTCHAR uni1E57
ENCODING 7767
SWIDTH 681 0
DWIDTH 18 0
BBX 17 23 1 -5
BITMAP
007000
00F000
00E000
000000
0F8F00
1F1F80
1F3F80
1F7F80
1ECF80
1E8F80
3F0F00
3F1F00
3E1F00
3E3E00
3C7C00
7FF800
7FF000
7FC000
7C0000
7C0000
F80000
F80000
F80000
ENDCHAR
STARTCHAR uni1E58
ENCODING 7768
SWIDTH 708 0
DWIDTH 18 0
BBX 17 23 2 0
BITMAP
007000
00F000
00E000
000000
0FFE00
1FFF00
1FFF80
1F0F80
1F0F80
1E0F80
3E1F00
3E3F00
3EFE00
3FF800
3FF000
7CF800
7CF800
7C7800
7C7C00
787C00
F83E00
F83E00
F83F00
ENDCHAR
STARTCHAR uni1E59
ENCODING 7769
SWIDTH 542 0
DWIDTH 14 0
BBX 14 18 2 0
BITMAP
01C0
03C0
0380
0000
1F1C
3E3C
3E78
3EF8
3FC0
3D80
7F00
7E00
7C00
7C00
7C00
F800
F800
F800
ENDCHAR
STARTCHAR uni1E5A
ENCODING 7770
SWIDTH 708 0
DWIDTH 18 0
BBX 17 23 2 -4
BITMAP
0FFE00
1FFF00
1FFF80
1F0F80
1F0F80
1E0F80
3E1F00
3E3F00
3EFE00
3FF800
3FF000
7CF800
7CF800
7C7800
7C7C00
787C00
F83E00
F83E00
F83F00
000000
01C000
03C000
038000
ENDCHAR
STARTCHAR uni1E5B
ENCODING 7771
SWIDTH 542 0
DWIDTH 14 0
BBX 14 18 2 -4
BITMAP
1F1C
3E3C
3E78
3EF8
3FC0
3D80
7F00
7E00
7C00
7C00
7C00
F800
F800
F800
0000
1C00
3C00
3800
ENDCHAR
STARTCHAR uni1E5C
ENCODING 7772
SWIDTH 708 0
DWIDTH 18 0
BBX 17 27 2 -4
BITMAP
07FC00
07FC00
07FC00
000000
0FFE00
1FFF00
1FFF80
1F0F80
1F0F80
1E0F80
3E1F00
3E3F00
3EFE00
3FF800
3FF000
7CF800
7CF800
7C7800
7C7C00
787C00
F83E00
F83E00
F83F00
000000
01C000
03C000
038000
ENDCHAR
STARTCHAR uni1E5D
ENCODING 7773
SWIDTH 542 0
DWIDTH 14 0
BBX 14 22 2 -4
BITMAP
1FF0
1FF0
1FF0
0000
1F1C
3E3C
3E78
3EF8
3FC0
3D80
7F00
7E00
7C00
7C00
7C00
F800
F800
F800
0000
1C00
3C00
3800
ENDCHAR
STARTCHAR uni1E5E
ENCODING 7774
SWIDTH 708 0
DWIDTH 18 0
BBX 17 23 2 -4
BITMAP
0FFE00
1FFF00
1FFF80
1F0F80
1F0F80
1E0F80
3E1F00
3E3F00
3EFE00
3FF800
3FF000
7CF800
7CF800
7C7800
7C7C00
787C00
F83E00
F83E00
F83F00
000000
1FF000
1FF000
1FF000
ENDCHAR
STARTCHAR uni1E5F
ENCODING 7775
SWIDTH 542 0
DWIDTH 14 0
BBX 14 18 2 -4
BITMAP
1F1C
3E3C
3E78
3EF8
3FC0
3D80
7F00
7E00
7C00
7C00
7C00
F800
F800
F800
0000
FF80
FF80
FF80
ENDCHAR
STARTCHAR uni1E60
ENCODING 7776
SWIDTH 639 0
DWIDTH 17 0
BBX 16 23 2 0
BITMAP
00E0
01E0
01C0
0000
01FE
07FF
0FFF
1F02
1F00
1F00
1F80
1FC0
1FF0
07F8
03FC
00FC
007E
007E
007C
607C
FFF8
FFF0
FF80
ENDCHAR
STARTCHAR uni1E61
ENCODING 7777
SWIDTH 527 0
DWIDTH 14 0
BBX 13 18 1 0
BITMAP
01C0
03C0
0380
0000
03F8
0FF8
1FF0
1F00
1E00
1F00
0FC0
07E0
03E0
01F0
43F0
FFE0
FFC0
7F80
ENDCHAR
STARTCHAR uni1E62
ENCODING 7778
SWIDTH 639 0
DWIDTH 17 0
BBX 16 23 2 -4
BITMAP
01FE
07FF
0FFF
1F02
1F00
1F00
1F80
1FC0
1FF0
07F8
03FC
00FC
007E
007E
007C
607C
FFF8
FFF0
FF80
0000
0380
0780
0700
ENDCHAR
STARTCHAR uni1E63
ENCODING 7779
SWIDTH 527 0
DWIDTH 14 0
BBX 13 18 1 -4
BITMAP
03F8
0FF8
1FF0
1F00
1E00
1F00
0FC0
07E0
03E0
01F0
43F0
FFE0
FFC0
7F80
0000
0700
0F00
0E00
ENDCHAR
STARTCHAR uni1E64
ENCODING 7780
SWIDTH 639 0
DWIDTH 17 0
BBX 16 27 2 0
BITMAP
0070
00F0
00E0
0000
007C
00E0
03C0
0000
01FE
07FF
0FFF
1F02
1F00
1F00
1F80
1FC0
1FF0
07F8
03FC
00FC
007E
007E
007C
607C
FFF8
FFF0
FF80
ENDCHAR
STARTCHAR uni1E65
ENCODING 7781
SWIDTH 527 0
DWIDTH 14 0
BBX 13 22 1 0
BITMAP
00E0
01E0
01C0
0000
00F8
01C0
0780
0000
03F8
0FF8
1FF0
1F00
1E00
1F00
0FC0
07E0
03E0
01F0
43F0
FFE0
FFC0
7F80
ENDCHAR
STARTCHAR uni1E66
ENCODING 7782
SWIDTH 639 0
DWIDTH 17 0
BBX 16 27 2 0
BITMAP
0070
00F0
00E0
0000
038E
01F8
00F0
0000
01FE
07FF
0FFF
1F02
1F00
1F00
1F80
1FC0
1FF0
07F8
03FC
00FC
007E
007E
007C
607C
FFF8
FFF0
FF80
ENDCHAR
STARTCHAR uni1E67
ENCODING 7783
SWIDTH 527 0
DWIDTH 14 0
BBX 14 22 1 0
BITMAP
00E0
01E0
01C0
0000
071C
03F0
01E0
0000
03F8
0FF8
1FF0
1F00
1E00
1F00
0FC0
07E0
03E0
01F0
43F0
FFE0
FFC0
7F80
ENDCHAR
STARTCHAR uni1E68
ENCODING 7784
SWIDTH 639 0
DWIDTH 17 0
BBX 16 27 2 -4
BITMAP
00E0
01E0
01C0
0000
01FE
07FF
0FFF
1F02
1F00
1F00
1F80
1FC0
1FF0
07F8
03FC
00FC
007E
007E
007C
607C
FFF8
FFF0
FF80
0000
0380
0780
0700
ENDCHAR
STARTCHAR uni1E69
ENCODING 7785
SWIDTH 527 0
DWIDTH 14 0
BBX 13 22 1 -4
BITMAP
01C0
03C0
0380
0000
03F8
0FF8
1FF0
1F00
1E00
1F00
0FC0
07E0
03E0
01F0
43F0
FFE0
FFC0
7F80
0000
0700
0F00
0E00
ENDCHAR
STARTCHAR uni1E6A
ENCODING 7786
SWIDTH 747 0
DWIDTH 19 0
BBX 19 23 4 0
BITMAP
007000
00F000
00E000
000000
FFFFE0
FFFFE0
FFFFE0
01F000
03E000
03E000
03E000
03E000
03E000
03C000
07C000
07C000
07C000
07C000
078000
0F8000
0F8000
0F8000
0F8000
ENDCHAR
STARTCHAR uni1E6B
ENCODING 7787
SWIDTH 437 0
DWIDTH 11 0
BBX 10 22 3 0
BITMAP
0700
0F00
0E00
0000
0700
1F00
1F00
3F00
FFC0
FFC0
FFC0
3E00
7E00
7C00
7C00
7C00
7C00
F800
FC00
FF00
FF00
3F00
ENDCHAR
STARTCHAR uni1E6C
ENCODING 7788
SWIDTH 747 0
DWIDTH 19 0
BBX 19 23 4 -4
BITMAP
FFFFE0
FFFFE0
FFFFE0
01F000
03E000
03E000
03E000
03E000
03E000
03C000
07C000
07C000
07C000
07C000
078000
0F8000
0F8000
0F8000
0F8000
000000
038000
078000
070000
ENDCHAR
STARTCHAR uni1E6D
ENCODING 7789
SWIDTH 437 0
DWIDTH 11 0
BBX 10 22 3 -4
BITMAP
0700
1F00
1F00
3F00
FFC0
FFC0
FFC0
3E00
7E00
7C00
7C00
7C00
7C00
F800
FC00
FF00
FF00
3F00
0000
1C00
3C00
3800
ENDCHAR
STARTCHAR uni1E6E
ENCODING 7790
SWIDTH 747 0
DWIDTH 19 0
BBX 19 23 4 -4
BITMAP
FFFFE0
FFFFE0
FFFFE0
01F000
03E000
03E000
03E000
03E000
03E000
03C000
07C000
07C000
07C000
07C000
078000
0F8000
0F8000
0F8000
0F8000
000000
1FF000
1FF000
1FF000
ENDCHAR
STARTCHAR uni1E6F
ENCODING 7791
SWIDTH 437 0
DWIDTH 11 0
BBX 10 22 3 -4
BITMAP
0700
1F00
1F00
3F00
FFC0
FFC0
FFC0
3E00
7E00
7C00
7C00
7C00
7C00
F800
FC00
FF00
FF00
3F00
0000
FF80
FF80
FF80
ENDCHAR
STARTCHAR uni1E70
ENCODING 7792
SWIDTH 747 0
DWIDTH 19 0
BBX 19 23 4 -4
BITMAP
FFFFE0
FFFFE0
FFFFE0
01F000
03E000
03E000
03E000
03E000
03E000
03C000
07C000
07C000
07C000
07C000
078000
0F8000
0F8000
0F8000
0F8000
000000
03C000
07E000
1C7000
ENDCHAR
STARTCHAR uni1E71
ENCODING 7793
SWIDTH 437 0
DWIDTH 11 0
BBX 11 22 2 -4
BITMAP
0380
0F80
0F80
1F80
7FE0
7FE0
7FE0
1F00
3F00
3E00
3E00
3E00
3E00
7C00
7E00
7F80
7F80
1F80
0000
1E00
3F00
E380
ENDCHAR
STARTCHAR uni1E72
ENCODING 7794
SWIDTH 759 0
DWIDTH 20 0
BBX 18 23 3 -4
BITMAP
3E03C0
3E07C0
3E07C0
3E0780
3C0780
7C0780
7C0F80
7C0F80
7C0F00
7C0F00
F80F00
F80F00
F81F00
F81E00
F81E00
FC3C00
7FFC00
3FF000
0FE000
000000
0E7000
1C7000
1CE000
ENDCHAR
STARTCHAR uni1E73
ENCODING 7795
SWIDTH 675 0
DWIDTH 18 0
BBX 16 18 2 -4
BITMAP
3E1F
3E1F
3E3E
7C3E
7C3E
7C3E
7C7E
7CFC
F9BC
FB7C
FF7C
FE7C
FC78
78F8
0000
1CE0
38E0
39C0
ENDCHAR
STARTCHAR uni1E74
ENCODING 7796
SWIDTH 759 0
DWIDTH 20 0
BBX 18 23 3 -4
BITMAP
3E03C0
3E07C0
3E07C0
3E0780
3C0780
7C0780
7C0F80
7C0F80
7C0F00
7C0F00
F80F00
F80F00
F81F00
F81E00
F81E00
FC3C00
7FFC00
3FF000
0FE000
000000
0F7000
1FE000
3BC000
ENDCHAR
STARTCHAR uni1E75
ENCODING 7797
SWIDTH 675 0
DWIDTH 18 0
BBX 16 18 2 -4
BITMAP
3E1F
3E1F
3E3E
7C3E
7C3E
7C3E
7C7E
7CFC
F9BC
FB7C
FF7C
FE7C
FC78
78F8
0000
0F70
1FE0
3BC0
ENDCHAR
STARTCHAR uni1E76
ENCODING 7798
SWIDTH 759 0
DWIDTH 20 0
BBX 18 23 3 -4
BITMAP
3E03C0
3E07C0
3E07C0
3E0780
3C0780
7C0780
7C0F80
7C0F80
7C0F00
7C0F00
F80F00
F80F00
F81F00
F81E00
F81E00
FC3C00
7FFC00
3FF000
0FE000
000000
03C000
07E000
1C7000
ENDCHAR
STARTCHAR uni1E77
ENCODING 7799
SWIDTH 675 0
DWIDTH 18 0
BBX 16 18 2 -4
BITMAP
3E1F
3E1F
3E3E
7C3E
7C3E
7C3E
7C7E
7CFC
F9BC
FB7C
FF7C
FE7C
FC78
78F8
0000
0780
0FC0
38E0
ENDCHAR
STARTCHAR uni1E78
ENCODING 7800
SWIDTH 759 0
DWIDTH 20 0
BBX 18 27 3 0
BITMAP
003E00
007000
01E000
000000
01EE00
03FC00
077800
000000
3E03C0
3E07C0
3E07C0
3E0780
3C0780
7C0780
7C0F80
7C0F80
7C0F00
7C0F00
F80F00
F80F00
F81F00
F81E00
F81E00
FC3C00
7FFC00
3FF000
0FE000
ENDCHAR
STARTCHAR uni1E79
ENCODING 7801
SWIDTH 675 0
DWIDTH 18 0
BBX 16 22 2 0
BITMAP
007C
00E0
03C0
0000
03DC
07F8
0EF0
0000
3E1F
3E1F
3E3E
7C3E
7C3E
7C3E
7C7E
7CFC
F9BC
FB7C
FF7C
FE7C
FC78
78F8
ENDCHAR
STARTCHAR uni1E7A
ENCODING 7802
SWIDTH 759 0
DWIDTH 20 0
BBX 18 27 3 0
BITMAP
039C00
071C00
073800
000000
07FC00
07FC00
07FC00
000000
3E03C0
3E07C0
3E07C0
3E0780
3C0780
7C0780
7C0F80
7C0F80
7C0F00
7C0F00
F80F00
F80F00
F81F00
F81E00
F81E00
FC3C00
7FFC00
3FF000
0FE000
ENDCHAR
STARTCHAR uni1E7B
ENCODING 7803
SWIDTH 675 0
DWIDTH 18 0
BBX 16 22 2 0
BITMAP
0738
0E38
0E70
0000
0FF8
0FF8
0FF8
0000
3E1F
3E1F
3E3E
7C3E
7C3E
7C3E
7C7E
7CFC
F9BC
FB7C
FF7C
FE7C
FC78
78F8
ENDCHAR
STARTCHAR uni1E7C
ENCODING 7804
SWIDTH 765 0
DWIDTH 20 0
BBX 18 23 4 0
BITMAP
03DC00
07F800
0EF000
000000
F803C0
F80380
F80780
7C0700
7C0F00
7C0E00
7C1E00
7C1C00
7C3800
3E3800
3E7000
3E7000
3EE000
3FE000
3FC000
1FC000
1F8000
1F8000
1F0000
ENDCHAR
STARTCHAR uni1E7D
ENCODING 7805
SWIDTH 630 0
DWIDTH 16 0
BBX 16 18 3 0
BITMAP
07B8
0FF0
1DE0
0000
F80F
F80E
FC1C
7C3C
7C38
7C78
7C70
7CE0
3FE0
3FC0
3FC0
3F80
3F80
3F00
ENDCHAR
STARTCHAR uni1E7E
ENCODING 7806
SWIDTH 765 0
DWIDTH 20 0
BBX 18 23 4 -4
BITMAP
F803C0
F80380
F80780
7C0700
7C0F00
7C0E00
7C1E00
7C1C00
7C3800
3E3800
3E7000
3E7000
3EE000
3FE000
3FC000
1FC000
1F8000
1F8000
1F0000
000000
038000
078000
070000
ENDCHAR
STARTCHAR uni1E7F
ENCODING 7807
SWIDTH 630 0
DWIDTH 16 0
BBX 16 18 3 -4
BITMAP
F80F
F80E
FC1C
7C3C
7C38
7C78
7C70
7CE0
3FE0
3FC0
3FC0
3F80
3F80
3F00
0000
0700
0F00
0E00
ENDCHAR
STARTCHAR Wgrave
ENCODING 7808
SWIDTH 991 0
DWIDTH 26 0
BBX 24 23 4 0
BITMAP
01E000
007000
003800
000000
F83C0F
F83C0E
F87C1E
F87C1C
F87C3C
F8FC38
F8FE78
F9FE70
F9FE70
FBFEF0
FBBEE0
7BBFE0
7F3FC0
7F3FC0
7E3F80
7E3F80
7E3F00
7C3F00
7C3E00
ENDCHAR
STARTCHAR wgrave
ENCODING 7809
SWIDTH 878 0
DWIDTH 23 0
BBX 22 18 3 0
BITMAP
01E000
007000
003800
000000
F07C3C
F07C38
F0FC78
F8FC70
F9FCF0
F9FCE0
FBBDE0
FBBDC0
FF3FC0
FF3F80
FE3F80
FE3F00
7C3F00
7C3E00
ENDCHAR
STARTCHAR Wacute
ENCODING 7810
SWIDTH 991 0
DWIDTH 26 0
BBX 24 23 4 0
BITMAP
001F00
003800
00F000
000000
F83C0F
F83C0E
F87C1E
F87C1C
F87C3C
F8FC38
F8FE78
F9FE70
F9FE70
FBFEF0
FBBEE0
7BBFE0
7F3FC0
7F3FC0
7E3F80
7E3F80
7E3F00
7C3F00
7C3E00
ENDCHAR
STARTCHAR wacute
ENCODING 7811
SWIDTH 878 0
DWIDTH 23 0
BBX 22 18 3 0
BITMAP
001F00
003800
00F000
000000
F07C3C
F07C38
F0FC78
F8FC70
F9FCF0
F9FCE0
FBBDE0
FBBDC0
FF3FC0
FF3F80
FE3F80
FE3F00
7C3F00
7C3E00
ENDCHAR
STARTCHAR Wdieresis
ENCODING 7812
SWIDTH 991 0
DWIDTH 26 0
BBX 24 23 4 0
BITMAP
00E700
01C700
01CE00
000000
F83C0F
F83C0E
F87C1E
F87C1C
F87C3C
F8FC38
F8FE78
F9FE70
F9FE70
FBFEF0
FBBEE0
7BBFE0
7F3FC0
7F3FC0
7E3F80
7E3F80
7E3F00
7C3F00
7C3E00
ENDCHAR
STARTCHAR wdieresis
ENCODING 7813
SWIDTH 878 0
DWIDTH 23 0
BBX 22 18 3 0
BITMAP
01CE00
038E00
039C00
000000
F07C3C
F07C38
F0FC78
F8FC70
F9FCF0
F9FCE0
FBBDE0
FBBDC0
FF3FC0
FF3F80
FE3F80
FE3F00
7C3F00
7C3E00
ENDCHAR
STARTCHAR uni1E86
ENCODING 7814
SWIDTH 991 0
DWIDTH 26 0
BBX 24 23 4 0
BITMAP
003800
007800
007000
000000
F83C0F
F83C0E
F87C1E
F87C1C
F87C3C
F8FC38
F8FE78
F9FE70
F9FE70
FBFEF0
FBBEE0
7BBFE0
7F3FC0
7F3FC0
7E3F80
7E3F80
7E3F00
7C3F00
7C3E00
ENDCHAR
STARTCHAR uni1E87
ENCODING 7815
SWIDTH 878 0
DWIDTH 23 0
BBX 22 18 3 0
BITMAP
003800
007800
007000
000000
F07C3C
F07C38
F0FC78
F8FC70
F9FCF0
F9FCE0
FBBDE0
FBBDC0
FF3FC0
FF3F80
FE3F80
FE3F00
7C3F00
7C3E00
ENDCHAR
STARTCHAR uni1E88
ENCODING 7816
SWIDTH 991 0
DWIDTH 26 0
BBX 24 23 4 -4
BITMAP
F83C0F
F83C0E
F87C1E
F87C1C
F87C3C
F8FC38
F8FE78
F9FE70
F9FE70
FBFEF0
FBBEE0
7BBFE0
7F3FC0
7F3FC0
7E3F80
7E3F80
7E3F00
7C3F00
7C3E00
000000
00E000
01E000
01C000
ENDCHAR
STARTCHAR uni1E89
ENCODING 7817
SWIDTH 878 0
DWIDTH 23 0
BBX 22 18 3 -4
BITMAP
F07C3C
F07C38
F0FC78
F8FC70
F9FCF0
F9FCE0
FBBDE0
FBBDC0
FF3FC0
FF3F80
FE3F80
FE3F00
7C3F00
7C3E00
000000
00E000
01E000
01C000
ENDCHAR
STARTCHAR uni1E8A
ENCODING 7818
SWIDTH 696 0
DWIDTH 18 0
BBX 21 23 0 0
BITMAP
001C00
003C00
003800
000000
0FC078
07C0F0
07E1E0
03E3C0
03E780
03FF00
01FE00
01FC00
00FC00
00F800
01FC00
03FC00
03FE00
07BE00
0F3E00
1E3F00
3C1F00
781F80
F80F80
ENDCHAR
STARTCHAR uni1E8B
ENCODING 7819
SWIDTH 563 0
DWIDTH 15 0
BBX 16 18 0 0
BITMAP
00E0
01E0
01C0
0000
1F0F
0F1E
0FBC
0FF8
07F0
07F0
03E0
07E0
07E0
0FF0
1FF0
3DF0
78F8
F0F8
ENDCHAR
STARTCHAR uni1E8C
ENCODING 7820
SWIDTH 696 0
DWIDTH 18 0
BBX 21 23 0 0
BITMAP
00E700
01C700
01CE00
000000
0FC078
07C0F0
07E1E0
03E3C0
03E780
03FF00
01FE00
01FC00
00FC00
00F800
01FC00
03FC00
03FE00
07BE00
0F3E00
1E3F00
3C1F00
781F80
F80F80
ENDCHAR
STARTCHAR uni1E8D
ENCODING 7821
SWIDTH 563 0
DWIDTH 15 0
BBX 16 18 0 0
BITMAP
039C
071C
0738
0000
1F0F
0F1E
0FBC
0FF8
07F0
07F0
03E0
07E0
07E0
0FF0
1FF0
3DF0
78F8
F0F8
ENDCHAR
STARTCHAR uni1E8E
ENCODING 7822
SWIDTH 681 0
DWIDTH 18 0
BBX 17 23 4 0
BITMAP
01C000
03C000
038000
000000
F80780
7C0F00
7C1E00
7C3C00
3E3800
3E7800
3EF000
1FE000
1FC000
1FC000
0F8000
0F8000
1F8000
1F0000
1F0000
1F0000
1F0000
3F0000
3E0000
ENDCHAR
STARTCHAR uni1E8F
ENCODING 7823
SWIDTH 633 0
DWIDTH 16 0
BBX 18 23 1 -5
BITMAP
00E000
01E000
01C000
000000
3E03C0
3E0780
1F0700
1F0F00
1F1E00
1F1C00
1F3C00
1FF800
0FF000
0FF000
0FE000
0FC000
0FC000
078000
0F0000
1F0000
3E0000
7C0000
FC0000
ENDCHAR
STARTCHAR uni1E90
ENCODING 7824
SWIDTH 687 0
DWIDTH 18 0
BBX 18 23 2 0
BITMAP
007800
00FC00
038E00
000000
0FFFC0
0FFFC0
0FFFC0
001F80
003F00
007E00
00FE00
00FC00
01F800
03F000
07E000
0FC000
1FC000
1F8000
3F0000
7E0000
7FFE00
FFFE00
FFFE00
ENDCHAR
STARTCHAR uni1E91
ENCODING 7825
SWIDTH 630 0
DWIDTH 16 0
BBX 16 18 1 0
BITMAP
00F0
01F8
071C
0000
1FFF
1FFF
1FFE
007E
00FC
01F0
03E0
07C0
0F80
3F00
7E00
7FFC
FFFC
FFFC
ENDCHAR
STARTCHAR uni1E92
ENCODING 7826
SWIDTH 687 0
DWIDTH 18 0
BBX 18 23 2 -4
BITMAP
0FFFC0
0FFFC0
0FFFC0
001F80
003F00
007E00
00FE00
00FC00
01F800
03F000
07E000
0FC000
1FC000
1F8000
3F0000
7E0000
7FFE00
FFFE00
FFFE00
000000
038000
078000
070000
ENDCHAR
STARTCHAR uni1E93
ENCODING 7827
SWIDTH 630 0
DWIDTH 16 0
BBX 16 18 1 -4
BITMAP
1FFF
1FFF
1FFE
007E
00FC
01F0
03E0
07C0
0F80
3F00
7E00
7FFC
FFFC
FFFC
0000
0380
0780
0700
ENDCHAR
STARTCHAR uni1E94
ENCODING 7828
SWIDTH 687 0
DWIDTH 18 0
BBX 18 23 2 -4
BITMAP
0FFFC0
0FFFC0
0FFFC0
001F80
003F00
007E00
00FE00
00FC00
01F800
03F000
07E000
0FC000
1FC000
1F8000
3F0000
7E0000
7FFE00
FFFE00
FFFE00
000000
1FF000
1FF000
1FF000
ENDCHAR
STARTCHAR uni1E95
ENCODING 7829
SWIDTH 630 0
DWIDTH 16 0
BBX 16 18 1 -4
BITMAP
1FFF
1FFF
1FFE
007E
00FC
01F0
03E0
07C0
0F80
3F00
7E00
7FFC
FFFC
FFFC
0000
1FF0
1FF0
1FF0
ENDCHAR
STARTCHAR uni1E96
ENCODING 7830
SWIDTH 675 0
DWIDTH 18 0
BBX 16 24 2 -4
BITMAP
0F80
0F80
1F80
1F00
1F00
1F00
1F1E
3E3F
3E7F
3EFF
3EDF
3D9F
7F3E
7E3E
7C3E
7C3E
7C3E
FC7C
F87C
F87C
0000
1FF0
1FF0
1FF0
ENDCHAR
STARTCHAR uni1E97
ENCODING 7831
SWIDTH 437 0
DWIDTH 11 0
BBX 10 22 3 0
BITMAP
39C0
71C0
7380
0000
0700
1F00
1F00
3F00
FFC0
FFC0
FFC0
3E00
7E00
7C00
7C00
7C00
7C00
F800
FC00
FF00
FF00
3F00
ENDCHAR
STARTCHAR uni1E98
ENCODING 7832
SWIDTH 878 0
DWIDTH 23 0
BBX 22 19 3 0
BITMAP
003000
004800
004800
003000
000000
F07C3C
F07C38
F0FC78
F8FC70
F9FCF0
F9FCE0
FBBDE0
FBBDC0
FF3FC0
FF3F80
FE3F80
FE3F00
7C3F00
7C3E00
ENDCHAR
STARTCHAR uni1E99
ENCODING 7833
SWIDTH 633 0
DWIDTH 16 0
BBX 18 24 1 -5
BITMAP
00C000
012000
012000
00C000
000000
3E03C0
3E0780
1F0700
1F0F00
1F1E00
1F1C00
1F3C00
1FF800
0FF000
0FF000
0FE000
0FC000
0FC000
078000
0F0000
1F0000
3E0000
7C0000
FC0000
ENDCHAR
STARTCHAR uni1EA0
ENCODING 7840
SWIDTH 771 0
DWIDTH 20 0
BBX 19 23 0 -4
BITMAP
003E00
007F00
007F00
00FF00
00FF00
01EF00
01CF80
03CF80
038F80
078F80
070780
0FFFC0
1FFFC0
1FFFC0
3C07C0
3803C0
7803E0
7003E0
F003E0
000000
007000
00F000
00E000
ENDCHAR
STARTCHAR uni1EA1
ENCODING 7841
SWIDTH 681 0
DWIDTH 18 0
BBX 16 18 2 -4
BITMAP
01FF
07FF
0FFF
1F1E
3E3E
7C3E
7C7E
787E
F8BC
F9BC
FF7C
FE7C
FC7C
78F8
0000
0380
0780
0700
ENDCHAR
STARTCHAR uni1EA4
ENCODING 7844
SWIDTH 771 0
DWIDTH 20 0
BBX 19 27 0 0
BITMAP
000F80
001C00
007800
000000
000F00
001F80
0071C0
000000
003E00
007F00
007F00
00FF00
00FF00
01EF00
01CF80
03CF80
038F80
078F80
070780
0FFFC0
1FFFC0
1FFFC0
3C07C0
3803C0
7803E0
7003E0
F003E0
ENDCHAR
STARTCHAR uni1EA5
ENCODING 7845
SWIDTH 681 0
DWIDTH 18 0
BBX 16 22 2 0
BITMAP
003E
0070
01E0
0000
0078
00FC
038E
0000
01FF
07FF
0FFF
1F1E
3E3E
7C3E
7C7E
787E
F8BC
F9BC
FF7C
FE7C
FC7C
78F8
ENDCHAR
STARTCHAR uni1EA6
ENCODING 7846
SWIDTH 771 0
DWIDTH 20 0
BBX 19 27 0 0
BITMAP
00F000
003800
001C00
000000
000F00
001F80
0071C0
000000
003E00
007F00
007F00
00FF00
00FF00
01EF00
01CF80
03CF80
038F80
078F80
070780
0FFFC0
1FFFC0
1FFFC0
3C07C0
3803C0
7803E0
7003E0
F003E0
ENDCHAR
STARTCHAR uni1EA7
ENCODING 7847
SWIDTH 681 0
DWIDTH 18 0
BBX 16 22 2 0
BITMAP
03C0
00E0
0070
0000
0078
00FC
038E
0000
01FF
07FF
0FFF
1F1E
3E3E
7C3E
7C7E
787E
F8BC
F9BC
FF7C
FE7C
FC7C
78F8
ENDCHAR
STARTCHAR uni1EAA
ENCODING 7850
SWIDTH 771 0
DWIDTH 20 0
BBX 19 27 0 0
BITMAP
003DC0
007F80
00EF00
000000
000F00
001F80
0071C0
000000
003E00
007F00
007F00
00FF00
00FF00
01EF00
01CF80
03CF80
038F80
078F80
070780
0FFFC0
1FFFC0
1FFFC0
3C07C0
3803C0
7803E0
7003E0
F003E0
ENDCHAR
STARTCHAR uni1EAB
ENCODING 7851
SWIDTH 681 0
DWIDTH 18 0
BBX 16 22 2 0
BITMAP
00F7
01FE
03BC
0000
0078
00FC
038E
0000
01FF
07FF
0FFF
1F1E
3E3E
7C3E
7C7E
787E
F8BC
F9BC
FF7C
FE7C
FC7C
78F8
ENDCHAR
STARTCHAR uni1EAC
ENCODING 7852
SWIDTH 771 0
DWIDTH 20 0
BBX 19 27 0 -4
BITMAP
003C00
007E00
01C700
000000
003E00
007F00
007F00
00FF00
00FF00
01EF00
01CF80
03CF80
038F80
078F80
070780
0FFFC0
1FFFC0
1FFFC0
3C07C0
3803C0
7803E0
7003E0
F003E0
000000
007000
00F000
00E000
ENDCHAR
STARTCHAR uni1EAD
ENCODING 7853
SWIDTH 681 0
DWIDTH 18 0
BBX 16 22 2 -4
BITMAP
00F0
01F8
071C
0000
01FF
07FF
0FFF
1F1E
3E3E
7C3E
7C7E
787E
F8BC
F9BC
FF7C
FE7C
FC7C
78F8
0000
0380
0780
0700
ENDCHAR
STARTCHAR uni1EAE
ENCODING 7854
SWIDTH 771 0
DWIDTH 20 0
BBX 19 27 0 0
BITMAP
000F80
001C00
007800
000000
00E380
00FF00
007C00
000000
003E00
007F00
007F00
00FF00
00FF00
01EF00
01CF80
03CF80
038F80
078F80
070780
0FFFC0
1FFFC0
1FFFC0
3C07C0
3803C0
7803E0
7003E0
F003E0
ENDCHAR
STARTCHAR uni1EAF
ENCODING 7855
SWIDTH 681 0
DWIDTH 18 0
BBX 16 22 2 0
BITMAP
003E
0070
01E0
0000
038E
03FC
01F0
0000
01FF
07FF
0FFF
1F1E
3E3E
7C3E
7C7E
787E
F8BC
F9BC
FF7C
FE7C
FC7C
78F8
ENDCHAR
STARTCHAR uni1EB0
ENCODING 7856
SWIDTH 771 0
DWIDTH 20 0
BBX 19 27 0 0
BITMAP
01E000
007000
003800
000000
00E380
00FF00
007C00
000000
003E00
007F00
007F00
00FF00
00FF00
01EF00
01CF80
03CF80
038F80
078F80
070780
0FFFC0
1FFFC0
1FFFC0
3C07C0
3803C0
7803E0
7003E0
F003E0
ENDCHAR
STARTCHAR uni1EB1
ENCODING 7857
SWIDTH 681 0
DWIDTH 18 0
BBX 16 22 2 0
BITMAP
03C0
00E0
0070
0000
038E
03FC
01F0
0000
01FF
07FF
0FFF
1F1E
3E3E
7C3E
7C7E
787E
F8BC
F9BC
FF7C
FE7C
FC7C
78F8
ENDCHAR
STARTCHAR uni1EB4
ENCODING 7860
SWIDTH 771 0
DWIDTH 20 0
BBX 19 27 0 0
BITMAP
007B80
00FF00
01DE00
000000
00E380
00FF00
007C00
000000
003E00
007F00
007F00
00FF00
00FF00
01EF00
01CF80
03CF80
038F80
078F80
070780
0FFFC0
1FFFC0
1FFFC0
3C07C0
3803C0
7803E0
7003E0
F003E0
ENDCHAR
STARTCHAR uni1EB5
ENCODING 7861
SWIDTH 681 0
DWIDTH 18 0
BBX 16 22 2 0
BITMAP
01EE
03FC
0778
0000
038E
03FC
01F0
0000
01FF
07FF
0FFF
1F1E
3E3E
7C3E
7C7E
787E
F8BC
F9BC
FF7C
FE7C
FC7C
78F8
ENDCHAR
STARTCHAR uni1EB6
ENCODING 7862
SWIDTH 771 0
DWIDTH 20 0
BBX 19 27 0 -4
BITMAP
01C700
01FE00
00F800
000000
003E00
007F00
007F00
00FF00
00FF00
01EF00
01CF80
03CF80
038F80
078F80
070780
0FFFC0
1FFFC0
1FFFC0
3C07C0
3803C0
7803E0
7003E0
F003E0
000000
007000
00F000
00E000
ENDCHAR
STARTCHAR uni1EB7
ENCODING 7863
SWIDTH 681 0
DWIDTH 18 0
BBX 16 22 2 -4
BITMAP
071C
07F8
03E0
0000
01FF
07FF
0FFF
1F1E
3E3E
7C3E
7C7E
787E
F8BC
F9BC
FF7C
FE7C
FC7C
78F8
0000
0380
0780
0700
ENDCHAR
STARTCHAR uni1EB8
ENCODING 7864
SWIDTH 642 0
DWIDTH 17 0
BBX 17 23 2 -4
BITMAP
0FFF80
0FFF80
1FFF00
1F0000
1F0000
1F0000
1F0000
3F0000
3FFC00
3FFC00
3FF800
3E0000
7E0000
7C0000
7C0000
7C0000
7FFC00
FFFC00
FFFC00
000000
038000
078000
070000
ENDCHAR
STARTCHAR uni1EB9
ENCODING 7865
SWIDTH 612 0
DWIDTH 16 0
BBX 14 18 2 -4
BITMAP
01F0
07F8
1FFC
3E7C
3C7C
7CF8
7FF0
FFE0
FF80
F804
FC1C
FFFC
7FF8
1FC0
0000
0700
0F00
0E00
ENDCHAR
STARTCHAR uni1EBC
ENCODING 7868
SWIDTH 642 0
DWIDTH 17 0
BBX 17 23 2 0
BITMAP
01EE00
03FC00
077800
000000
0FFF80
0FFF80
1FFF00
1F0000
1F0000
1F0000
1F0000
3F0000
3FFC00
3FFC00
3FF800
3E0000
7E0000
7C0000
7C0000
7C0000
7FFC00
FFFC00
FFFC00
ENDCHAR
STARTCHAR uni1EBD
ENCODING 7869
SWIDTH 612 0
DWIDTH 16 0
BBX 14 18 2 0
BITMAP
03DC
07F8
0EF0
0000
01F0
07F8
1FFC
3E7C
3C7C
7CF8
7FF0
FFE0
FF80
F804
FC1C
FFFC
7FF8
1FC0
ENDCHAR
STARTCHAR uni1EBE
ENCODING 7870
SWIDTH 642 0
DWIDTH 17 0
BBX 17 27 2 0
BITMAP
003E00
007000
01E000
000000
007800
00FC00
038E00
000000
0FFF80
0FFF80
1FFF00
1F0000
1F0000
1F0000
1F0000
3F0000
3FFC00
3FFC00
3FF800
3E0000
7E0000
7C0000
7C0000
7C0000
7FFC00
FFFC00
FFFC00
ENDCHAR
STARTCHAR uni1EBF
ENCODING 7871
SWIDTH 612 0
DWIDTH 16 0
BBX 14 22 2 0
BITMAP
007C
00E0
03C0
0000
00F0
01F8
071C
0000
01F0
07F8
1FFC
3E7C
3C7C
7CF8
7FF0
FFE0
FF80
F804
FC1C
FFFC
7FF8
1FC0
ENDCHAR
STARTCHAR uni1EC0
ENCODING 7872
SWIDTH 642 0
DWIDTH 17 0
BBX 17 27 2 0
BITMAP
03C000
00E000
007000
000000
007800
00FC00
038E00
000000
0FFF80
0FFF80
1FFF00
1F0000
1F0000
1F0000
1F0000
3F0000
3FFC00
3FFC00
3FF800
3E0000
7E0000
7C0000
7C0000
7C0000
7FFC00
FFFC00
FFFC00
ENDCHAR
STARTCHAR uni1EC1
ENCODING 7873
SWIDTH 612 0
DWIDTH 16 0
BBX 14 22 2 0
BITMAP
0780
01C0
00E0
0000
00F0
01F8
071C
0000
01F0
07F8
1FFC
3E7C
3C7C
7CF8
7FF0
FFE0
FF80
F804
FC1C
FFFC
7FF8
1FC0
ENDCHAR
STARTCHAR uni1EC4
ENCODING 7876
SWIDTH 642 0
DWIDTH 17 0
BBX 17 27 2 0
BITMAP
00F700
01FE00
03BC00
000000
007800
00FC00
038E00
000000
0FFF80
0FFF80
1FFF00
1F0000
1F0000
1F0000
1F0000
3F0000
3FFC00
3FFC00
3FF800
3E0000
7E0000
7C0000
7C0000
7C0000
7FFC00
FFFC00
FFFC00
ENDCHAR
STARTCHAR uni1EC5
ENCODING 7877
SWIDTH 612 0
DWIDTH 16 0
BBX 14 22 2 0
BITMAP
03DC
07F8
0EF0
0000
00F0
01F8
071C
0000
01F0
07F8
1FFC
3E7C
3C7C
7CF8
7FF0
FFE0
FF80
F804
FC1C
FFFC
7FF8
1FC0
ENDCHAR
STARTCHAR uni1EC6
ENCODING 7878
SWIDTH 642 0
DWIDTH 17 0
BBX 17 27 2 -4
BITMAP
01E000
03F000
0E3800
000000
0FFF80
0FFF80
1FFF00
1F0000
1F0000
1F0000
1F0000
3F0000
3FFC00
3FFC00
3FF800
3E0000
7E0000
7C0000
7C0000
7C0000
7FFC00
FFFC00
FFFC00
000000
038000
078000
070000
ENDCHAR
STARTCHAR uni1EC7
ENCODING 7879
SWIDTH 612 0
DWIDTH 16 0
BBX 14 22 2 -4
BITMAP
01E0
03F0
0E38
0000
01F0
07F8
1FFC
3E7C
3C7C
7CF8
7FF0
FFE0
FF80
F804
FC1C
FFFC
7FF8
1FC0
0000
0700
0F00
0E00
ENDCHAR
STARTCHAR uni1ECA
ENCODING 7882
SWIDTH 361 0
DWIDTH 9 0
BBX 9 23 2 -4
BITMAP
0F80
0F80
1F00
1F00
1F00
1F00
1F00
3E00
3E00
3E00
3E00
3E00
7C00
7C00
7C00
7C00
7C00
F800
F800
0000
3800
7800
7000
ENDCHAR
STARTCHAR uni1ECB
ENCODING 7883
SWIDTH 343 0
DWIDTH 9 0
BBX 9 24 2 -4
BITMAP
0F80
0F80
1F00
1F00
0000
0000
1F00
3E00
3E00
3E00
3E00
3E00
7C00
7C00
7C00
7C00
7C00
F800
F800
F800
0000
3800
7800
7000
ENDCHAR
STARTCHAR uni1ECC
ENCODING 7884
SWIDTH 855 0
DWIDTH 22 0
BBX 21 23 3 -4
BITMAP
007F00
01FFC0
07FFE0
0FC3F0
1F01F8
3E01F8
3E01F8
7C01F8
7C01F8
FC01F8
F801F0
F801F0
F803E0
FC07E0
FC07C0
7E1F80
3FFF00
1FFC00
07F000
000000
00E000
01E000
01C000
ENDCHAR
STARTCHAR uni1ECD
ENCODING 7885
SWIDTH 663 0
DWIDTH 17 0
BBX 16 18 2 -4
BITMAP
01F8
07FE
1FFF
3E3F
3C1F
7C1F
781F
F81E
F83E
F83C
FC7C
FFF8
7FE0
1F80
0000
0380
0780
0700
ENDCHAR
STARTCHAR uni1ED0
ENCODING 7888
SWIDTH 855 0
DWIDTH 22 0
BBX 21 27 3 0
BITMAP
000F80
001C00
007800
000000
001E00
003F00
00E380
000000
007F00
01FFC0
07FFE0
0FC3F0
1F01F8
3E01F8
3E01F8
7C01F8
7C01F8
FC01F8
F801F0
F801F0
F803E0
FC07E0
FC07C0
7E1F80
3FFF00
1FFC00
07F000
ENDCHAR
STARTCHAR uni1ED1
ENCODING 7889
SWIDTH 663 0
DWIDTH 17 0
BBX 16 22 2 0
BITMAP
003E
0070
01E0
0000
0078
00FC
038E
0000
01F8
07FE
1FFF
3E3F
3C1F
7C1F
781F
F81E
F83E
F83C
FC7C
FFF8
7FE0
1F80
ENDCHAR
STARTCHAR uni1ED2
ENCODING 7890
SWIDTH 855 0
DWIDTH 22 0
BBX 21 27 3 0
BITMAP
00F000
003800
001C00
000000
001E00
003F00
00E380
000000
007F00
01FFC0
07FFE0
0FC3F0
1F01F8
3E01F8
3E01F8
7C01F8
7C01F8
FC01F8
F801F0
F801F0
F803E0
FC07E0
FC07C0
7E1F80
3FFF00
1FFC00
07F000
ENDCHAR
STARTCHAR uni1ED3
ENCODING 7891
SWIDTH 663 0
DWIDTH 17 0
BBX 16 22 2 0
BITMAP
03C0
00E0
0070
0000
0078
00FC
038E
0000
01F8
07FE
1FFF
3E3F
3C1F
7C1F
781F
F81E
F83E
F83C
FC7C
FFF8
7FE0
1F80
ENDCHAR
STARTCHAR uni1ED6
ENCODING 7894
SWIDTH 855 0
DWIDTH 22 0
BBX 21 27 3 0
BITMAP
003DC0
007F80
00EF00
000000
001E00
003F00
00E380
000000
007F00
01FFC0
07FFE0
0FC3F0
1F01F8
3E01F8
3E01F8
7C01F8
7C01F8
FC01F8
F801F0
F801F0
F803E0
FC07E0
FC07C0
7E1F80
3FFF00
1FFC00
07F000
ENDCHAR
STARTCHAR uni1ED7
ENCODING 7895
SWIDTH 663 0
DWIDTH 17 0
BBX 16 22 2 0
BITMAP
01EE
03FC
0778
0000
0078
00FC
038E
0000
01F8
07FE
1FFF
3E3F
3C1F
7C1F
781F
F81E
F83E
F83C
FC7C
FFF8
7FE0
1F80
ENDCHAR
STARTCHAR uni1ED8
ENCODING 7896
SWIDTH 855 0
DWIDTH 22 0
BBX 21 27 3 -4
BITMAP
003C00
007E00
01C700
000000
007F00
01FFC0
07FFE0
0FC3F0
1F01F8
3E01F8
3E01F8
7C01F8
7C01F8
FC01F8
F801F0
F801F0
F803E0
FC07E0
FC07C0
7E1F80
3FFF00
1FFC00
07F000
000000
00E000
01E000
01C000
ENDCHAR
STARTCHAR uni1ED9
ENCODING 7897
SWIDTH 663 0
DWIDTH 17 0
BBX 16 22 2 -4
BITMAP
00F0
01F8
071C
0000
01F8
07FE
1FFF
3E3F
3C1F
7C1F
781F
F81E
F83E
F83C
FC7C
FFF8
7FE0
1F80
0000
0380
0780
0700
ENDCHAR
STARTCHAR uni1EDA
ENCODING 7898
SWIDTH 855 0
DWIDTH 22 0
BBX 26 23 3 0
BITMAP
0001F000
00038000
000F0000
00000000
007F07C0
01FFCFC0
07FFEFC0
0FC3FF80
1F01FF80
3E01FB80
3E01FF00
7C01FF00
7C01FC00
FC01F800
F801F000
F801F000
F803E000
FC07E000
FC07C000
7E1F8000
3FFF0000
1FFC0000
07F00000
ENDCHAR
STARTCHAR uni1EDB
ENCODING 7899
SWIDTH 663 0
DWIDTH 17 0
BBX 22 18 2 0
BITMAP
0007C0
000E00
003C00
000000
01F87C
07FEFC
1FFFFC
3E3FF8
3C1FF8
7C1F38
781F70
F81FF0
F83FC0
F83C00
FC7C00
FFF800
7FE000
1F8000
ENDCHAR
STARTCHAR uni1EDC
ENCODING 7900
SWIDTH 855 0
DWIDTH 22 0
BBX 26 23 3 0
BITMAP
001E0000
00070000
00038000
00000000
007F07C0
01FFCFC0
07FFEFC0
0FC3FF80
1F01FF80
3E01FB80
3E01FF00
7C01FF00
7C01FC00
FC01F800
F801F000
F801F000
F803E000
FC07E000
FC07C000
7E1F8000
3FFF0000
1FFC0000
07F00000
ENDCHAR
STARTCHAR uni1EDD
ENCODING 7901
SWIDTH 663 0
DWIDTH 17 0
BBX 22 18 2 0
BITMAP
00F000
003800
001C00
000000
01F87C
07FEFC
1FFFFC
3E3FF8
3C1FF8
7C1F38
781F70
F81FF0
F83FC0
F83C00
FC7C00
FFF800
7FE000
1F8000
ENDCHAR
STARTCHAR uni1EE0
ENCODING 7904
SWIDTH 855 0
DWIDTH 22 0
BBX 26 23 3 0
BITMAP
000F7000
001FE000
003BC000
00000000
007F07C0
01FFCFC0
07FFEFC0
0FC3FF80
1F01FF80
3E01FB80
3E01FF00
7C01FF00
7C01FC00
FC01F800
F801F000
F801F000
F803E000
FC07E000
FC07C000
7E1F8000
3FFF0000
1FFC0000
07F00000
ENDCHAR
STARTCHAR uni1EE1
ENCODING 7905
SWIDTH 663 0
DWIDTH 17 0
BBX 22 18 2 0
BITMAP
003DC0
007F80
00EF00
000000
01F87C
07FEFC
1FFFFC
3E3FF8
3C1FF8
7C1F38
781F70
F81FF0
F83FC0
F83C00
FC7C00
FFF800
7FE000
1F8000
ENDCHAR
STARTCHAR uni1EE2
ENCODING 7906
SWIDTH 855 0
DWIDTH 22 0
BBX 26 23 3 -4
BITMAP
007F07C0
01FFCFC0
07FFEFC0
0FC3FF80
1F01FF80
3E01FB80
3E01FF00
7C01FF00
7C01FC00
FC01F800
F801F000
F801F000
F803E000
FC07E000
FC07C000
7E1F8000
3FFF0000
1FFC0000
07F00000
00000000
00700000
00F00000
00E00000
ENDCHAR
STARTCHAR uni1EE3
ENCODING 7907
SWIDTH 663 0
DWIDTH 17 0
BBX 22 18 2 -4
BITMAP
01F87C
07FEFC
1FFFFC
3E3FF8
3C1FF8
7C1F38
781F70
F81FF0
F83FC0
F83C00
FC7C00
FFF800
7FE000
1F8000
000000
01C000
03C000
038000
ENDCHAR
STARTCHAR uni1EE4
ENCODING 7908
SWIDTH 759 0
DWIDTH 20 0
BBX 18 23 3 -4
BITMAP
3E03C0
3E07C0
3E07C0
3E0780
3C0780
7C0780
7C0F80
7C0F80
7C0F00
7C0F00
F80F00
F80F00
F81F00
F81E00
F81E00
FC3C00
7FFC00
3FF000
0FE000
000000
038000
078000
070000
ENDCHAR
STARTCHAR uni1EE5
ENCODING 7909
SWIDTH 675 0
DWIDTH 18 0
BBX 16 18 2 -4
BITMAP
3E1F
3E1F
3E3E
7C3E
7C3E
7C3E
7C7E
7CFC
F9BC
FB7C
FF7C
FE7C
FC78
78F8
0000
0380
0780
0700
ENDCHAR
STARTCHAR uni1EE8
ENCODING 7912
SWIDTH 759 0
DWIDTH 20 0
BBX 23 23 3 0
BITMAP
0007C0
000E00
003C00
000000
3E03FE
3E07FE
3E07FE
3E07FC
3C07FC
7C079C
7C0FB8
7C0FF8
7C0FE0
7C0F00
F80F00
F80F00
F81F00
F81E00
F81E00
FC3C00
7FFC00
3FF000
0FE000
ENDCHAR
STARTCHAR uni1EE9
ENCODING 7913
SWIDTH 675 0
DWIDTH 18 0
BBX 22 18 2 0
BITMAP
000F80
001C00
007800
000000
3E1F7C
3E1FFC
3E3EFC
7C3EF8
7C3EF8
7C3E38
7C7E70
7CFDF0
F9BDC0
FB7C00
FF7C00
FE7C00
FC7800
78F800
ENDCHAR
STARTCHAR uni1EEA
ENCODING 7914
SWIDTH 759 0
DWIDTH 20 0
BBX 23 23 3 0
BITMAP
007800
001C00
000E00
000000
3E03FE
3E07FE
3E07FE
3E07FC
3C07FC
7C079C
7C0FB8
7C0FF8
7C0FE0
7C0F00
F80F00
F80F00
F81F00
F81E00
F81E00
FC3C00
7FFC00
3FF000
0FE000
ENDCHAR
STARTCHAR uni1EEB
ENCODING 7915
SWIDTH 675 0
DWIDTH 18 0
BBX 22 18 2 0
BITMAP
00F000
003800
001C00
000000
3E1F7C
3E1FFC
3E3EFC
7C3EF8
7C3EF8
7C3E38
7C7E70
7CFDF0
F9BDC0
FB7C00
FF7C00
FE7C00
FC7800
78F800
ENDCHAR
STARTCHAR uni1EEE
ENCODING 7918
SWIDTH 759 0
DWIDTH 20 0
BBX 23 23 3 0
BITMAP
003DC0
007F80
00EF00
000000
3E03FE
3E07FE
3E07FE
3E07FC
3C07FC
7C079C
7C0FB8
7C0FF8
7C0FE0
7C0F00
F80F00
F80F00
F81F00
F81E00
F81E00
FC3C00
7FFC00
3FF000
0FE000
ENDCHAR
STARTCHAR uni1EEF
ENCODING 7919
SWIDTH 675 0
DWIDTH 18 0
BBX 22 18 2 0
BITMAP
007B80
00FF00
01DE00
000000
3E1F7C
3E1FFC
3E3EFC
7C3EF8
7C3EF8
7C3E38
7C7E70
7CFDF0
F9BDC0
FB7C00
FF7C00
FE7C00
FC7800
78F800
ENDCHAR
STARTCHAR uni1EF0
ENCODING 7920
SWIDTH 759 0
DWIDTH 20 0
BBX 23 23 3 -4
BITMAP
3E03FE
3E07FE
3E07FE
3E07FC
3C07FC
7C079C
7C0FB8
7C0FF8
7C0FE0
7C0F00
F80F00
F80F00
F81F00
F81E00
F81E00
FC3C00
7FFC00
3FF000
0FE000
000000
01C000
03C000
038000
ENDCHAR
STARTCHAR uni1EF1
ENCODING 7921
SWIDTH 675 0
DWIDTH 18 0
BBX 22 18 2 -4
BITMAP
3E1F7C
3E1FFC
3E3EFC
7C3EF8
7C3EF8
7C3E38
7C7E70
7CFDF0
F9BDC0
FB7C00
FF7C00
FE7C00
FC7800
78F800
000000
01C000
03C000
038000
ENDCHAR
STARTCHAR Ygrave
ENCODING 7922
SWIDTH 681 0
DWIDTH 18 0
BBX 17 23 4 0
BITMAP
0F0000
038000
01C000
000000
F80780
7C0F00
7C1E00
7C3C00
3E3800
3E7800
3EF000
1FE000
1FC000
1FC000
0F8000
0F8000
1F8000
1F0000
1F0000
1F0000
1F0000
3F0000
3E0000
ENDCHAR
STARTCHAR ygrave
ENCODING 7923
SWIDTH 633 0
DWIDTH 16 0
BBX 18 23 1 -5
BITMAP
078000
01C000
00E000
000000
3E03C0
3E0780
1F0700
1F0F00
1F1E00
1F1C00
1F3C00
1FF800
0FF000
0FF000
0FE000
0FC000
0FC000
078000
0F0000
1F0000
3E0000
7C0000
FC0000
ENDCHAR
STARTCHAR uni1EF4
ENCODING 7924
SWIDTH 681 0
DWIDTH 18 0
BBX 17 23 4 -4
BITMAP
F80780
7C0F00
7C1E00
7C3C00
3E3800
3E7800
3EF000
1FE000
1FC000
1FC000
0F8000
0F8000
1F8000
1F0000
1F0000
1F0000
1F0000
3F0000
3E0000
000000
070000
0F0000
0E0000
ENDCHAR
STARTCHAR uni1EF5
ENCODING 7925
SWIDTH 633 0
DWIDTH 16 0
BBX 18 23 1 -9
BITMAP
3E03C0
3E0780
1F0700
1F0F00
1F1E00
1F1C00
1F3C00
1FF800
0FF000
0FF000
0FE000
0FC000
0FC000
078000
0F0000
1F0000
3E0000
7C0000
FC0000
000000
070000
0F0000
0E0000
ENDCHAR
STARTCHAR uni1EF8
ENCODING 7928
SWIDTH 681 0
DWIDTH 18 0
BBX 17 23 4 0
BITMAP
03DC00
07F800
0EF000
000000
F80780
7C0F00
7C1E00
7C3C00
3E3800
3E7800
3EF000
1FE000
1FC000
1FC000
0F8000
0F8000
1F8000
1F0000
1F0000
1F0000
1F0000
3F0000
3E0000
ENDCHAR
STARTCHAR uni1EF9
ENCODING 7929
SWIDTH 633 0
DWIDTH 16 0
BBX 18 23 1 -5
BITMAP
01EE00
03FC00
077800
000000
3E03C0
3E0780
1F0700
1F0F00
1F1E00
1F1C00
1F3C00
1FF800
0FF000
0FF000
0FE000
0FC000
0FC000
078000
0F0000
1F0000
3E0000
7C0000
FC0000
ENDCHAR
STARTCHAR uni2000
ENCODING 8192
SWIDTH 500 0
DWIDTH 13 0
BBX 1 1 0 0
BITMAP
00
ENDCHAR
STARTCHAR uni2001
ENCODING 8193
SWIDTH 1000 0
DWIDTH 26 0
BBX 1 1 0 0
BITMAP
00
ENDCHAR
STARTCHAR uni2002
ENCODING 8194
SWIDTH 500 0
DWIDTH 13 0
BBX 1 1 0 0
BITMAP
00
ENDCHAR
STARTCHAR uni2003
ENCODING 8195
SWIDTH 1000 0
DWIDTH 26 0
BBX 1 1 0 0
BITMAP
00
ENDCHAR
STARTCHAR uni2004
ENCODING 8196
SWIDTH 333 0
DWIDTH 9 0
BBX 1 1 0 0
BITMAP
00
ENDCHAR
STARTCHAR uni2005
ENCODING 8197
SWIDTH 250 0
DWIDTH 7 0
BBX 1 1 0 0
BITMAP
00
ENDCHAR
STARTCHAR uni2006
ENCODING 8198
SWIDTH 167 0
DWIDTH 4 0
BBX 1 1 0 0
BITMAP
00
ENDCHAR
STARTCHAR uni2007
ENCODING 8199
SWIDTH 687 0
DWIDTH 18 0
BBX 1 1 0 0
BITMAP
00
ENDCHAR
STARTCHAR uni2008
ENCODING 8200
SWIDTH 343 0
DWIDTH 9 0
BBX 1 1 0 0
BITMAP
00
ENDCHAR
STARTCHAR uni2009
ENCODING 8201
SWIDTH 200 0
DWIDTH 5 0
BBX 1 1 0 0
BITMAP
00
ENDCHAR
STARTCHAR uni200A
ENCODING 8202
SWIDTH 100 0
DWIDTH 3 0
BBX 1 1 0 0
BITMAP
00
ENDCHAR
STARTCHAR uni200B
ENCODING 8203
SWIDTH 0 0
DWIDTH 0 0
BBX 1 1 0 0
BITMAP
00
ENDCHAR
STARTCHAR uni2010
ENCODING 8208
SWIDTH 289 0
DWIDTH 8 0
BBX 6 3 2 7
BITMAP
FC
FC
FC
ENDCHAR
STARTCHAR uni2011
ENCODING 8209
SWIDTH 289 0
DWIDTH 8 0
BBX 6 3 2 7
BITMAP
FC
FC
FC
ENDCHAR
STARTCHAR figuredash
ENCODING 8210
SWIDTH 500 0
DWIDTH 13 0
BBX 12 3 2 7
BITMAP
FFF0
FFF0
FFF0
ENDCHAR
STARTCHAR endash
ENCODING 8211
SWIDTH 500 0
DWIDTH 13 0
BBX 12 3 2 7
BITMAP
FFF0
FFF0
FFF0
ENDCHAR
STARTCHAR emdash
ENCODING 8212
SWIDTH 1000 0
DWIDTH 26 0
BBX 25 2 2 7
BITMAP
FFFFFF80
FFFFFF80
ENDCHAR
STARTCHAR afii00208
ENCODING 8213
SWIDTH 1000 0
DWIDTH 26 0
BBX 25 2 2 7
BITMAP
FFFFFF80
FFFFFF80
ENDCHAR
STARTCHAR quoteleft
ENCODING 8216
SWIDTH 265 0
DWIDTH 7 0
BBX 7 9 3 11
BITMAP
06
1E
3E
78
7C
7C
7C
FC
F8
ENDCHAR
STARTCHAR quoteright
ENCODING 8217
SWIDTH 265 0
DWIDTH 7 0
BBX 7 9 3 11
BITMAP
3E
7E
7E
7C
7C
1C
38
F8
E0
ENDCHAR
STARTCHAR quotesinglbase
ENCODING 8218
SWIDTH 265 0
DWIDTH 7 0
BBX 7 9 0 -4
BITMAP
3E
3E
7E
7C
7C
1C
38
F8
E0
ENDCHAR
STARTCHAR quotereversed
ENCODING 8219
SWIDTH 265 0
DWIDTH 7 0
BBX 7 9 3 11
BITMAP
F8
FC
FC
7C
7C
70
38
3E
0E
ENDCHAR
STARTCHAR quotedblleft
ENCODING 8220
SWIDTH 530 0
DWIDTH 14 0
BBX 14 9 3 11
BITMAP
060C
1E3C
3E7C
7870
70E0
7CF8
7CF8
F9F8
F9F0
ENDCHAR
STARTCHAR quotedblright
ENCODING 8221
SWIDTH 530 0
DWIDTH 14 0
BBX 14 9 3 11
BITMAP
3E7C
7E7C
7CFC
7CF8
7CF8
1C38
3870
F9F0
E1C0
ENDCHAR
STARTCHAR quotedblbase
ENCODING 8222
SWIDTH 530 0
DWIDTH 14 0
BBX 14 9 0 -4
BITMAP
3E7C
7E7C
7CFC
7CF8
7CF8
1C38
3870
F9F0
E1C0
ENDCHAR
STARTCHAR uni201F
ENCODING 8223
SWIDTH 530 0
DWIDTH 14 0
BBX 14 9 3 11
BITMAP
F9F0
F9F8
FCF8
7CF8
7CF8
70E0
3870
3E7C
0E1C
ENDCHAR
STARTCHAR dagger
ENCODING 8224
SWIDTH 687 0
DWIDTH 18 0
BBX 14 23 4 -4
BITMAP
03E0
03E0
03C0
07C0
07C0
07C0
7FFC
FFFC
FFF8
0F80
0F80
0F00
0F00
0F00
1F00
1F00
1F00
1E00
3E00
3E00
3E00
3E00
7E00
ENDCHAR
STARTCHAR daggerdbl
ENCODING 8225
SWIDTH 687 0
DWIDTH 18 0
BBX 15 23 3 -4
BITMAP
01F0
01F0
01F0
01E0
01E0
03E0
3FFE
3FFE
7FFC
03C0
03C0
07C0
0780
0780
7FFC
FFF8
FFF8
0F00
0F00
0F00
1F00
1F00
1F00
ENDCHAR
STARTCHAR bullet
ENCODING 8226
SWIDTH 687 0
DWIDTH 18 0
BBX 12 10 4 3
BITMAP
3FF0
3FF0
3FE0
7FE0
7FE0
7FE0
7FE0
7FC0
FFC0
FFC0
ENDCHAR
STARTCHAR ellipsis
ENCODING 8230
SWIDTH 1000 0
DWIDTH 26 0
BBX 21 3 3 0
BITMAP
707038
E07038
E07070
ENDCHAR
STARTCHAR perthousand
ENCODING 8240
SWIDTH 1332 0
DWIDTH 35 0
BBX 33 19 3 0
BITMAP
1F003C0000
3F80700000
7FC0E00000
7BC1C00000
F3C3800000
F3C7000000
F3CE000000
FF9E000000
7F3C000000
3E78000000
00F1F03E00
01E7F87F00
03CFFCFF80
078F3DE780
0F0E3DE780
1E0E79E780
3C0FF9FF00
780FF1FE00
F007C07C00
ENDCHAR
STARTCHAR guilsinglleft
ENCODING 8249
SWIDTH 386 0
DWIDTH 10 0
BBX 9 12 2 1
BITMAP
0100
0700
0F80
1E00
3C00
7800
F800
7C00
3C00
1E00
1E00
0800
ENDCHAR
STARTCHAR guilsinglright
ENCODING 8250
SWIDTH 386 0
DWIDTH 10 0
BBX 9 12 1 1
BITMAP
0800
3C00
3C00
1E00
1F00
0F80
0F00
1E00
3C00
F800
7000
4000
ENDCHAR
STARTCHAR fraction
ENCODING 8260
SWIDTH 130 0
DWIDTH 3 0
BBX 21 19 -6 0
BITMAP
000078
0000F0
0001E0
0003C0
000780
000F00
001E00
003C00
007800
00F800
00F000
01E000
03C000
078000
0F0000
1E0000
3C0000
780000
F00000
ENDCHAR
STARTCHAR oneinferior
ENCODING 8321
SWIDTH 539 0
DWIDTH 11 0
BBX 5 11 -17 -6
BITMAP
F8
F8
38
30
70
70
70
70
60
E0
E0
ENDCHAR
STARTCHAR twoinferior
ENCODING 8322
SWIDTH 539 0
DWIDTH 11 0
BBX 10 11 -15 -6
BITMAP
1F80
3FC0
21C0
01C0
0380
0F00
1E00
3800
7000
FF80
FF00
ENDCHAR
STARTCHAR threeinferior
ENCODING 8323
SWIDTH 539 0
DWIDTH 11 0
BBX 9 11 -15 -6
BITMAP
3F00
3F80
0380
0700
3E00
3E00
0700
0700
8700
FF00
FC00
ENDCHAR
STARTCHAR uni20A5
ENCODING 8357
SWIDTH 991 0
DWIDTH 26 0
BBX 24 24 2 -5
BITMAP
00003C
000078
000070
0000E0
0001E0
1E1DDE
3E7FBF
3EFFFF
3FFFFF
3DBFDF
3FBF9F
7F3F1E
7E3F3E
7E7E3E
7C7C3E
78FC3E
F9FC3C
F9FC7C
FBF87C
078000
070000
0E0000
1E0000
3C0000
ENDCHAR
STARTCHAR uni20A6
ENCODING 8358
SWIDTH 789 0
DWIDTH 20 0
BBX 20 19 2 0
BITMAP
0F00F0
1F80F0
1F80F0
1FC1E0
1FC1E0
1FFFE0
3FFFE0
3FFFE0
3DF3C0
3DFBC0
3CFBC0
7FFFC0
7FFFC0
7FFF80
783F80
783F80
F01F80
F01F80
F00F00
ENDCHAR
STARTCHAR uni20A9
ENCODING 8361
SWIDTH 991 0
DWIDTH 26 0
BBX 24 19 4 0
BITMAP
F83C0F
F83C0E
F87C1E
F87C1C
F87C3C
FBFFF8
FFFFF8
FFFFF0
F9FE70
FBFEF0
FBBEE0
7FFFF0
7FFFF0
7FFFE0
7E3F80
7E3F80
7E3F00
7C3F00
7C3E00
ENDCHAR
STARTCHAR Euro
ENCODING 8364
SWIDTH 737 0
DWIDTH 19 0
BBX 23 19 -2 0
BITMAP
0007FC
001FFE
007FFE
00FC04
01F800
3FFF80
7FFF80
7FFF00
07C000
0F8000
0F8000
7FFF00
FFFF00
FFFE00
0FC000
07F030
07FFF0
03FFF0
007F80
ENDCHAR
STARTCHAR uni20AD
ENCODING 8365
SWIDTH 753 0
DWIDTH 20 0
BBX 18 19 2 0
BITMAP
0F83C0
1F8780
1F0F00
1F1E00
1F1C00
1F3C00
3F7800
3EF000
FFFFC0
FFFFC0
FFFFC0
7EF800
7CFC00
7C7C00
7C7E00
7C3E00
FC3F00
F81F80
F81F80
ENDCHAR
STARTCHAR uni2103
ENCODING 8451
SWIDTH 966 0
DWIDTH 25 0
BBX 23 19 4 0
BITMAP
7007FC
901FFE
907FFE
90FC04
71F800
03F000
03E000
07C000
07C000
0F8000
0F8000
0F8000
0F8000
0FC000
0FC000
07F030
07FFF0
03FFF0
007F80
ENDCHAR
STARTCHAR uni2109
ENCODING 8457
SWIDTH 843 0
DWIDTH 22 0
BBX 21 19 4 0
BITMAP
70FFF8
90FFF8
91FFF0
91F000
71F000
01F000
01F000
03E000
03FFC0
03FF80
03FF80
03E000
07C000
07C000
07C000
07C000
07C000
0F8000
0F8000
ENDCHAR
STARTCHAR trademark
ENCODING 8482
SWIDTH 901 0
DWIDTH 23 0
BBX 23 10 3 9
BITMAP
FFFF3E
FFDF3E
FFDF7E
1E1F7C
1E1FFC
3E3FBC
3E3FFC
3C3B7C
3C3B78
3C7078
ENDCHAR
STARTCHAR uni212A
ENCODING 8490
SWIDTH 753 0
DWIDTH 20 0
BBX 18 19 2 0
BITMAP
0F83C0
1F8780
1F0F00
1F1E00
1F1C00
1F3C00
3F7800
3EF000
3EE000
3FF000
3FF800
7EF800
7CFC00
7C7C00
7C7E00
7C3E00
FC3F00
F81F80
F81F80
ENDCHAR
STARTCHAR uni212B
ENCODING 8491
SWIDTH 771 0
DWIDTH 20 0
BBX 19 24 0 0
BITMAP
000600
000900
000900
000600
000000
003E00
007F00
007F00
00FF00
00FF00
01EF00
01CF80
03CF80
038F80
078F80
070780
0FFFC0
1FFFC0
1FFFC0
3C07C0
3803C0
7803E0
7003E0
F003E0
ENDCHAR
STARTCHAR uni2132
ENCODING 8498
SWIDTH 614 0
DWIDTH 16 0
BBX 17 19 2 0
BITMAP
000F80
000F80
001F00
001F00
001F00
001F00
001F00
003E00
0FFE00
0FFE00
1FFE00
003E00
007C00
007C00
007C00
007C00
7FFC00
FFF800
FFF800
ENDCHAR
STARTCHAR minus
ENCODING 8722
SWIDTH 687 0
DWIDTH 18 0
BBX 16 3 2 6
BITMAP
7FFF
FFFF
FFFE
ENDCHAR
STARTCHAR fraction
ENCODING 8725
SWIDTH 130 0
DWIDTH 3 0
BBX 21 19 -6 0
BITMAP
000078
0000F0
0001E0
0003C0
000780
000F00
001E00
003C00
007800
00F800
00F000
01E000
03C000
078000
0F0000
1E0000
3C0000
780000
F00000
ENDCHAR
STARTCHAR periodcentered
ENCODING 8729
SWIDTH 343 0
DWIDTH 18 0
BBX 4 3 8 7
BITMAP
70
F0
E0
ENDCHAR
STARTCHAR uni2236
ENCODING 8758
SWIDTH 343 0
DWIDTH 9 0
BBX 8 14 2 0
BITMAP
1F
1F
3E
3E
3E
00
00
00
00
7C
7C
FC
F8
F8
ENDCHAR
STARTCHAR uni2259
ENCODING 8793
SWIDTH 687 0
DWIDTH 18 0
BBX 17 13 2 3
BITMAP
01E000
03F000
0E3800
000000
3FFF80
7FFF80
7FFF00
000000
000000
000000
7FFF00
FFFF00
FFFE00
ENDCHAR
STARTCHAR uni225A
ENCODING 8794
SWIDTH 687 0
DWIDTH 18 0
BBX 17 13 2 3
BITMAP
0E3800
07E000
03C000
000000
3FFF80
7FFF80
7FFF00
000000
000000
000000
7FFF00
FFFF00
FFFE00
ENDCHAR
STARTCHAR notequal
ENCODING 8800
SWIDTH 687 0
DWIDTH 18 0
BBX 20 24 1 -4
BITMAP
0000F0
0001E0
0001C0
000380
000780
000700
000E00
001E00
1FFFC0
3FFFC0
3FFF80
007000
00E000
01E000
3FFF80
7FFF80
7FFF00
070000
0E0000
1E0000
1C0000
380000
780000
F00000
ENDCHAR
STARTCHAR equivalence
ENCODING 8801
SWIDTH 687 0
DWIDTH 18 0
BBX 17 11 0 2
BITMAP
FFFF80
FFFF80
FFFF80
000000
FFFF80
FFFF80
FFFF80
000000
FFFF80
FFFF80
FFFF80
ENDCHAR
STARTCHAR uni2262
ENCODING 8802
SWIDTH 687 0
DWIDTH 18 0
BBX 20 24 -1 -4
BITMAP
0000F0
0001E0
0001C0
000380
000780
000700
000E00
7FFFC0
7FFFC0
7FFFC0
007800
7FFFC0
7FFFC0
7FFFC0
01C000
7FFFC0
7FFFC0
7FFFC0
0E0000
1E0000
1C0000
380000
780000
F00000
ENDCHAR
STARTCHAR lessequal
ENCODING 8804
SWIDTH 687 0
DWIDTH 18 0
BBX 17 20 3 -4
BITMAP
000080
000380
000F80
003F00
00FC00
03F000
1FC000
FF0000
7E0000
1F0000
0FC000
03F000
00FC00
003E00
001C00
000400
000000
FFFF80
FFFF80
FFFF80
ENDCHAR
STARTCHAR greaterequal
ENCODING 8805
SWIDTH 687 0
DWIDTH 18 0
BBX 17 20 1 -4
BITMAP
100000
1C0000
3E0000
1F8000
07E000
01F800
007C00
003F00
007F80
01FC00
07E000
1F8000
7E0000
F80000
E00000
800000
000000
FFFF80
FFFF80
FFFF80
ENDCHAR
STARTCHAR uni226E
ENCODING 8814
SWIDTH 687 0
DWIDTH 18 0
BBX 20 24 2 -4
BITMAP
0000F0
0001E0
0001C0
000380
0007C0
0007C0
000FC0
001F80
007E00
01F800
0FF800
7FF000
3FE000
0FE000
07E000
03F800
07FE00
071F00
0E0E00
1E0200
1C0000
380000
780000
F00000
ENDCHAR
STARTCHAR uni226F
ENCODING 8815
SWIDTH 687 0
DWIDTH 18 0
BBX 20 24 0 -4
BITMAP
0000F0
0001E0
0001C0
000380
080780
0E0700
1F0E00
0FDE00
03FC00
00FC00
007E00
007F80
00FFC0
01FE00
03F000
0FC000
3F8000
7F0000
7E0000
5E0000
1C0000
380000
780000
F00000
ENDCHAR
STARTCHAR uni2270
ENCODING 8816
SWIDTH 687 0
DWIDTH 18 0
BBX 20 24 2 -6
BITMAP
0000F0
0001E0
0001C0
0003C0
0007C0
001F80
007E00
01FE00
0FFC00
7FB800
3F7800
0FF000
07E000
01F800
01FE00
039F00
078E00
070200
0E0000
7FFFC0
7FFFC0
7FFFC0
780000
F00000
ENDCHAR
STARTCHAR uni2271
ENCODING 8817
SWIDTH 687 0
DWIDTH 18 0
BBX 20 24 0 -6
BITMAP
0000F0
0001E0
0801C0
0E0380
1F0780
0FC700
03FE00
00FE00
003E00
003F80
007FC0
00FE00
03F000
0FE000
3FC000
7F8000
778000
470000
0E0000
7FFFC0
7FFFC0
7FFFC0
780000
F00000
ENDCHAR
STARTCHAR fi
ENCODING -1
SWIDTH 695 0
DWIDTH 18 0
BBX 18 25 1 -5
BITMAP
007E00
01FF00
03FE00
07C200
078000
0F8000
3FFFC0
3FFFC0
3FFF80
1F0F80
1F0F80
1F0F80
1F0F80
3F1F00
3E1F00
3E1F00
3E1F00
3E1F00
7C3E00
7C3E00
7C0000
7C0000
7C0000
F80000
F80000
ENDCHAR
STARTCHAR fl
ENCODING -1
SWIDTH 695 0
DWIDTH 18 0
BBX 19 25 1 -5
BITMAP
007FE0
01FFE0
03FFE0
07C7C0
0F87C0
0F87C0
3FE7C0
3FE7C0
3FEF80
1F0F80
1F0F80
1F0F80
1F1F80
3E1F00
3E1F00
3E1F00
3E1F00
3E3F00
7C3E00
7C3E00
7C0000
7C0000
7C0000
F80000
F80000
ENDCHAR
ENDFONT
